<svg xmlns="http://www.w3.org/2000/svg" width="336.539" height="535.77" viewBox="0 0 336.539 535.77">
  <g id="Featured_products" data-name="Featured products" transform="translate(-400.76 -55.53)">
    <path id="Path_107303" data-name="Path 107303" d="M658.082,1302.271H609.905a1.255,1.255,0,0,1,0-2.511h48.177a1.255,1.255,0,1,1,0,2.511Z" transform="translate(-120.897 -723.574)" fill="#262424"/>
    <path id="Path_107304" data-name="Path 107304" d="M879.505,1302.271H774.125a1.255,1.255,0,0,1,0-2.511h105.38a1.255,1.255,0,1,1,0,2.511Z" transform="translate(-216.398 -723.574)" fill="#262424"/>
    <path id="Path_107305" data-name="Path 107305" d="M1117.211,1302.271h-59.755a1.255,1.255,0,0,1,0-2.511h59.755a1.255,1.255,0,0,1,0,2.511Z" transform="translate(-381.167 -723.574)" fill="#262424"/>
    <path id="Path_107306" data-name="Path 107306" d="M903.764,1332.391H810.255a1.255,1.255,0,0,1,0-2.511h93.529a1.255,1.255,0,0,1-.021,2.511Z" transform="translate(-237.409 -741.09)" fill="#262424"/>
    <path id="Path_107307" data-name="Path 107307" d="M721.292,1332.391H693.255a1.255,1.255,0,0,1,0-2.511h28.037a1.255,1.255,0,0,1,0,2.511Z" transform="translate(-169.369 -741.09)" fill="#262424"/>
    <path id="Path_107308" data-name="Path 107308" d="M1109.437,1332.391h-12a1.255,1.255,0,0,1,0-2.511h12a1.255,1.255,0,0,1,0,2.511Z" transform="translate(-404.417 -741.09)" fill="#262424"/>
    <path id="Path_107309" data-name="Path 107309" d="M506.433,1147.263c-2.193,1.862-6.8,3.465-12.478,3.766a36.8,36.8,0,0,1-32.271-15.989c-14.646-20.5-33.234-23.919-33.234-23.919s13.491-12,32.866-13.5h0a50.892,50.892,0,0,1,23.651,3.837c.205.084.418.167.6.255C515.987,1114.766,506.433,1147.263,506.433,1147.263Z" transform="translate(-16.103 -605.935)"/>
    <path id="Path_107310" data-name="Path 107310" d="M539.651,1150.995a36.858,36.858,0,0,1-9.913-.837c-6.239-7.03-11.989-16.663-9.8-26.927,2.984-13.947-6.5-21.977-12.922-25.639a50.892,50.892,0,0,1,23.651,3.837c.205.084.418.167.6.255,4.013,5.892,3.858,14.341-.69,23.639C525.562,1135.562,533.374,1145.3,539.651,1150.995Z" transform="translate(-61.795 -605.917)" fill="#fff"/>
    <path id="Path_107311" data-name="Path 107311" d="M612.252,981.344a75.283,75.283,0,0,1-10.357-12.336,45.939,45.939,0,0,1-5.658-11.78c-4.21-13.809.561-26.036,8.164-36.853,11.775-16.738,23.053-36.9,23.053-36.9a113.838,113.838,0,0,1,15.056,38.3q.611,3.2,1.025,6.57c.163,1.335.293,2.678.418,4.046C646.356,964.543,612.252,981.344,612.252,981.344Z" transform="translate(-112.765 -481.489)"/>
    <path id="Path_107312" data-name="Path 107312" d="M645.7,981.005c-6.875-.23-16.55,2.314-17.659,18.086-1.356,19.249-14.838,23.337-23.965,22.555a45.939,45.939,0,0,1-5.658-11.78c4.452,1.1,17.157,2.461,21.253-16.445,3.9-17.9,16.132-20.676,25.02-19Q645.287,977.641,645.7,981.005Z" transform="translate(-114.948 -534.131)" fill="#fff"/>
    <path id="Path_107313" data-name="Path 107313" d="M618.269,997.042c-8.26,5.185-7.9,16.7,0,12.039S625.768,992.331,618.269,997.042Z" transform="translate(-122.967 -546.908)" fill="#fff"/>
    <path id="Path_107314" data-name="Path 107314" d="M727.036,1103.4a30.71,30.71,0,0,1-7.62,11.269h0a45.244,45.244,0,0,1-14.684,8.993,66.461,66.461,0,0,1-17.726,4.185s-18.144-13.085-6.976-37.946c3.193-7.114,8.4-13.119,14.228-18.086a89.344,89.344,0,0,1,13.127-9.206,110.922,110.922,0,0,1,19.667-9.068S735.652,1081.024,727.036,1103.4Z" transform="translate(-160.295 -580.387)"/>
    <path id="Path_107315" data-name="Path 107315" d="M772.755,1097.307c-7.9,1.774-2.887,20.923,2.741,19.86S778.848,1095.934,772.755,1097.307Z" transform="translate(-213.952 -605.8)" fill="#fff"/>
    <path id="Path_107316" data-name="Path 107316" d="M737.767,1127.3h0a45.243,45.243,0,0,1-14.684,8.993c2.624-7.976,3.222-17.621-7.26-21.613-11.922-4.549-7.98-19.475-3.23-30.213a89.362,89.362,0,0,1,13.127-9.206c-6.156,12.428-6.662,27.2,5.8,36.088C737.382,1115.515,738.57,1121.478,737.767,1127.3Z" transform="translate(-178.646 -593.018)" fill="#fff"/>
    <path id="Path_107317" data-name="Path 107317" d="M683.479,1190.935h-5.93s6.98-47.495,36.284-80.465C713.834,1110.47,690.547,1144.227,683.479,1190.935Z" transform="translate(-160.965 -613.494)" fill="#fff"/>
    <path id="Path_107318" data-name="Path 107318" d="M681.716,1190.44h-5.929a1.255,1.255,0,0,1-1.255-1.44,177.8,177.8,0,0,1,7.206-28.087c4.971-14.7,14.106-35.841,29.384-53.031a1.255,1.255,0,0,1,1.971,1.548c-.23.335-23.212,34.079-30.129,79.925a1.255,1.255,0,0,1-1.247,1.084Zm-4.448-2.511h3.373a216.408,216.408,0,0,1,20.341-62.245c-16.588,26.359-22.5,55.512-23.71,62.245Z" transform="translate(-159.202 -611.743)" fill="#262424"/>
    <path id="Path_107319" data-name="Path 107319" d="M575.384,1204.374h-7.327s-12.039-46.988-60.187-70.794C507.87,1133.584,552.356,1143.535,575.384,1204.374Z" transform="translate(-62.289 -626.933)" fill="#fff"/>
    <path id="Path_107320" data-name="Path 107320" d="M573.624,1203.884H566.3a1.255,1.255,0,0,1-1.218-.942c-.029-.117-3.092-11.8-11.939-26.2a117,117,0,0,0-47.587-43.775,1.255,1.255,0,0,1,.837-2.352c.465.1,11.533,2.661,25.58,12.788,12.914,9.311,30.828,27.066,42.833,58.785a1.255,1.255,0,0,1-1.18,1.7Zm-6.373-2.511h4.544c-11.771-30.07-28.894-47-41.3-55.939-2.578-1.858-5.059-3.456-7.39-4.825a121.4,121.4,0,0,1,32.221,34.891,112.919,112.919,0,0,1,11.93,25.873Z" transform="translate(-60.529 -625.187)" fill="#262424"/>
    <path id="Path_107321" data-name="Path 107321" d="M644.954,957.28s-31.384,76.159,2.444,144.568h6.628S619.834,1047.482,644.954,957.28Z" transform="translate(-134.303 -524.407)" fill="#fff"/>
    <path id="Path_107322" data-name="Path 107322" d="M652.27,1101.356h-6.628a1.256,1.256,0,0,1-1.126-.7,154.048,154.048,0,0,1-14.784-51.888,197.412,197.412,0,0,1,.749-46.788c3.6-27.434,11.474-46.746,11.554-46.938a1.255,1.255,0,0,1,2.368.816c-12.888,46.281-9.775,82.854-4.9,105.376,5.289,24.409,13.738,38.054,13.809,38.188a1.255,1.255,0,0,1-1.046,1.933Zm-5.858-2.511h3.67c-2.511-4.578-8.708-17.157-13.01-36.937a198.5,198.5,0,0,1-4.323-45.758,226.292,226.292,0,0,1,1.632-23.1q-.785,4.482-1.431,9.34c-3.231,24.819-3.511,61.626,13.474,96.458Z" transform="translate(-132.548 -522.66)" fill="#262424"/>
    <path id="Path_107323" data-name="Path 107323" d="M847.7,1120.91l.364,23.454,11.328,4.272,2.816-27.727Z" transform="translate(-259.915 -619.565)" fill="#fff"/>
    <path id="Path_107324" data-name="Path 107324" d="M857.647,1148.206a1.253,1.253,0,0,1-.444-.079l-11.328-4.272a1.255,1.255,0,0,1-.812-1.155l-.364-23.434a1.255,1.255,0,0,1,1.255-1.255h14.508a1.255,1.255,0,0,1,1.255,1.381l-2.816,27.727A1.255,1.255,0,0,1,857.647,1148.206Zm-10.089-6.4,9,3.4,2.511-24.722H847.232Z" transform="translate(-258.171 -617.879)" fill="#262424"/>
    <path id="Path_107325" data-name="Path 107325" d="M823.54,626.669l4.214,196.256,28.037,2.092s18.3-153.1,19.793-159.951,1.841-22.291.452-37.8C873.4,597.926,823.54,592.385,823.54,626.669Z" transform="translate(-245.865 -318.409)" fill="rgba(0,0,0,0.23)"/>
    <path id="Path_107326" data-name="Path 107326" d="M889.252,905.919h-.13A1.255,1.255,0,0,1,888,904.542c.109-1.067,10.88-106.941,17.106-144.367a1.256,1.256,0,0,1,2.477.418c-6.2,37.339-16.977,143.133-17.077,144.2A1.255,1.255,0,0,1,889.252,905.919Z" transform="translate(-283.348 -409.173)" fill="#262424"/>
    <ellipse id="Ellipse_9920" data-name="Ellipse 9920" cx="15.859" cy="12.056" rx="15.859" ry="12.056" transform="translate(582.894 435.464) rotate(-88.854)" fill="#fff"/>
    <path id="Path_107327" data-name="Path 107327" d="M863.206,1116.462H863.1l-23.057-1.988a1.26,1.26,0,0,1,.218-2.511l23.057,1.988a1.257,1.257,0,1,1-.109,2.511Z" transform="translate(-254.791 -614.359)" fill="#262424"/>
    <path id="Path_107328" data-name="Path 107328" d="M785,1221.6v5.515h42s.138-2.879.268-7.721c.264-9.524.515-26.656-.268-44.356l-19.889-2.356s-4.971,19.421-15.211,34.548c-1.063,1.569-2.184,3.1-3.348,4.549A15.591,15.591,0,0,0,785,1221.6Z" transform="translate(-223.452 -649.672)" fill="rgba(0,0,0,0.23)"/>
    <path id="Path_107329" data-name="Path 107329" d="M835.775,1210.014a1.255,1.255,0,0,1-1.117-1.828,166.065,166.065,0,0,0,11.415-30.091,1.255,1.255,0,1,1,2.431.623,169.836,169.836,0,0,1-11.612,30.619A1.255,1.255,0,0,1,835.775,1210.014Z" transform="translate(-252.25 -652.253)" fill="#262424"/>
    <ellipse id="Ellipse_9921" data-name="Ellipse 9921" cx="3.728" cy="6.737" rx="3.728" ry="6.737" transform="translate(593.166 545.454)" fill="#fff"/>
    <path id="Path_107330" data-name="Path 107330" d="M862.544,1239.305c-2.8,0-4.984-3.511-4.984-7.993s2.188-7.992,4.984-7.992,4.984,3.511,4.984,7.992S865.339,1239.305,862.544,1239.305Zm0-13.478c-1.142,0-2.473,2.393-2.473,5.482s1.331,5.482,2.473,5.482,2.473-2.394,2.473-5.482S863.686,1225.827,862.544,1225.827Z" transform="translate(-265.649 -679.121)" fill="#262424"/>
    <path id="Path_107331" data-name="Path 107331" d="M785,1269.449v5.515h42s.138-2.879.268-7.72H808.015s-.607-13.671-16.123-12.165c-1.063,1.569-2.184,3.1-3.348,4.549A15.591,15.591,0,0,0,785,1269.449Z" transform="translate(-223.452 -697.523)" fill="#fff"/>
    <path id="Path_107332" data-name="Path 107332" d="M825.252,1274.484h-42a1.255,1.255,0,0,1-1.255-1.255v-5.515a16.914,16.914,0,0,1,3.825-10.608c1.1-1.356,2.209-2.854,3.293-4.461a1.256,1.256,0,0,1,.917-.544c5.285-.51,9.532.59,12.633,3.277a15.2,15.2,0,0,1,4.733,8.88h18.119a1.255,1.255,0,0,1,1.255,1.289c-.13,4.8-.268,7.716-.268,7.746A1.255,1.255,0,0,1,825.252,1274.484Zm-40.745-2.511h39.54c.042-1.084.109-2.871.18-5.21H806.27a1.256,1.256,0,0,1-1.255-1.2,12.963,12.963,0,0,0-4.026-8.311c-2.448-2.092-5.858-3.025-10.143-2.707-1.017,1.477-2.055,2.871-3.088,4.139a14.4,14.4,0,0,0-3.264,9.026v4.26Z" transform="translate(-221.708 -695.788)" fill="#262424"/>
    <path id="Path_107333" data-name="Path 107333" d="M1085.718,1120.91l2.586,23.454-11.332,4.272-5.762-27.727Z" transform="translate(-389.896 -619.565)" fill="#fff"/>
    <path id="Path_107334" data-name="Path 107334" d="M1075.246,1148.147a1.255,1.255,0,0,1-1.23-1l-5.762-27.727a1.255,1.255,0,0,1,1.23-1.51h14.508a1.255,1.255,0,0,1,1.255,1.117l2.582,23.434a1.255,1.255,0,0,1-.8,1.31l-11.361,4.306A1.255,1.255,0,0,1,1075.246,1148.147Zm-4.222-27.727,5.151,24.777,9.043-3.41-2.352-21.366h-11.842Z" transform="translate(-388.161 -617.82)" fill="#262424"/>
    <path id="Path_107335" data-name="Path 107335" d="M1000.511,625.494l20.341,196.256-28.037,2.092s-46.139-148.552-47.629-155.419-.234-26.781-.243-42.335C944.94,594.4,1000.511,591.21,1000.511,625.494Z" transform="translate(-316.184 -317.234)" fill="rgba(0,0,0,0.23)"/>
    <path id="Path_107336" data-name="Path 107336" d="M930.524,702.025a1.255,1.255,0,0,1-.527-.117l-2.511-1.167a9.921,9.921,0,0,1-5.716-8.959V666.255a1.255,1.255,0,0,1,2.511,0v25.526a7.4,7.4,0,0,0,4.281,6.7l2.511,1.167a1.255,1.255,0,0,1-.548,2.381Z" transform="translate(-302.99 -354.434)" fill="#262424"/>
    <path id="Path_107337" data-name="Path 107337" d="M942.735,702.93a1.255,1.255,0,0,1-1.255-1.255V664.515a1.255,1.255,0,0,1,2.511,0v37.159A1.255,1.255,0,0,1,942.735,702.93Z" transform="translate(-314.452 -353.422)" fill="#262424"/>
    <path id="Path_107338" data-name="Path 107338" d="M1003.078,905.887a1.255,1.255,0,0,1-1.205-.9c-17.24-59.32-44.407-143.43-44.679-144.267a1.256,1.256,0,1,1,2.389-.774c.272.837,27.447,84.993,44.7,144.334a1.255,1.255,0,0,1-1.205,1.611Z" transform="translate(-323.555 -409.141)" fill="#262424"/>
    <ellipse id="Ellipse_9922" data-name="Ellipse 9922" cx="12.056" cy="15.859" rx="12.056" ry="15.859" transform="translate(663.22 404.706) rotate(-3.69)" fill="#fff"/>
    <path id="Path_107339" data-name="Path 107339" d="M1061.791,1116.462a1.256,1.256,0,0,1-.1-2.511l23.057-1.988a1.26,1.26,0,1,1,.218,2.511l-23.057,1.988h-.109Z" transform="translate(-383.657 -614.359)" fill="#262424"/>
    <path id="Path_107340" data-name="Path 107340" d="M1116.539,1221.6v5.515h-42s-.138-2.879-.268-7.721c-.264-9.524-.515-26.656.268-44.356l19.889-2.356s4.971,19.421,15.211,34.548c1.063,1.569,2.184,3.1,3.348,4.549A15.592,15.592,0,0,1,1116.539,1221.6Z" transform="translate(-391.526 -649.672)" fill="rgba(0,0,0,0.23)"/>
    <path id="Path_107341" data-name="Path 107341" d="M1105.375,1210.094a1.255,1.255,0,0,1-1.117-.682,168.6,168.6,0,0,1-11.612-30.618,1.255,1.255,0,0,1,2.431-.624,166.149,166.149,0,0,0,11.416,30.1,1.255,1.255,0,0,1-1.117,1.829Z" transform="translate(-402.343 -652.333)" fill="#262424"/>
    <ellipse id="Ellipse_9923" data-name="Ellipse 9923" cx="3.728" cy="6.737" rx="3.728" ry="6.737" transform="translate(685.934 545.454)" fill="#fff"/>
    <path id="Path_107342" data-name="Path 107342" d="M1084.234,1239.305c-2.8,0-4.984-3.511-4.984-7.993s2.188-7.992,4.984-7.992,4.984,3.511,4.984,7.992S1087.029,1239.305,1084.234,1239.305Zm0-13.478c-1.008,0-2.473,2.134-2.473,5.482s1.465,5.482,2.473,5.482c1.142,0,2.473-2.394,2.473-5.482S1085.376,1225.827,1084.234,1225.827Z" transform="translate(-394.572 -679.121)" fill="#262424"/>
    <path id="Path_107343" data-name="Path 107343" d="M1116.9,1269.449v5.515h-42s-.138-2.879-.268-7.72h19.249s.607-13.671,16.123-12.165c1.063,1.569,2.184,3.1,3.348,4.549A15.593,15.593,0,0,1,1116.9,1269.449Z" transform="translate(-391.885 -697.523)" fill="#fff"/>
    <path id="Path_107344" data-name="Path 107344" d="M1115.153,1274.477h-42a1.256,1.256,0,0,1-1.255-1.2c0-.029-.138-2.929-.268-7.746a1.255,1.255,0,0,1,1.255-1.289h18.123a15.069,15.069,0,0,1,4.729-8.88c3.1-2.687,7.348-3.791,12.633-3.276a1.255,1.255,0,0,1,.916.544c1.084,1.6,2.193,3.1,3.293,4.461a16.913,16.913,0,0,1,3.825,10.608v5.515A1.255,1.255,0,0,1,1115.153,1274.477Zm-40.8-2.511h39.54v-4.26a14.39,14.39,0,0,0-3.264-9.026c-1.034-1.255-2.067-2.661-3.084-4.138-4.285-.314-7.7.594-10.143,2.707a12.962,12.962,0,0,0-4.026,8.315,1.255,1.255,0,0,1-1.255,1.2h-17.948c.067,2.335.117,4.122.176,5.206Z" transform="translate(-390.14 -695.78)" fill="#262424"/>
    <path id="Path_107345" data-name="Path 107345" d="M804.1,332.892c-11.813,5.323-42.39,85.311-37.757,100.488s27.128,10.461,33.669-16.487S827.3,322.426,804.1,332.892Z" transform="translate(-212.326 -160.663)"/>
    <path id="Path_107346" data-name="Path 107346" d="M930.535,325.743v137.8s-3.712.515-10.118,1.1V449.4a2.226,2.226,0,1,0-4.452,0v15.621c-21.04,1.711-61.551,3.348-99.174-4.5,0,0,4.8-111.213,16.918-142.355,0,0,21.287-12.135,45.712-11.654S930.535,325.743,930.535,325.743Z" transform="translate(-241.94 -145.948)"/>
    <path id="Path_107347" data-name="Path 107347" d="M820.091,447.718H820a1.255,1.255,0,0,1-1.167-1.339c2.348-33.757,6.515-78.67,13.027-100.986a1.255,1.255,0,1,1,2.41.7c-6.453,22.094-10.6,66.823-12.934,100.455A1.255,1.255,0,0,1,820.091,447.718Z" transform="translate(-243.128 -168.042)" fill="#262424"/>
    <path id="Path_107348" data-name="Path 107348" d="M888.943,667.045a506.152,506.152,0,0,1-62.057-3.992,1.206,1.206,0,1,1,.335-2.389c.452.063,45.746,6.306,88.294,3.009a1.205,1.205,0,1,1,.188,2.4C906.752,666.773,897.685,667.045,888.943,667.045Z" transform="translate(-247.207 -351.905)" fill="#262424"/>
    <path id="Path_107349" data-name="Path 107349" d="M962.906,299.83a21.5,21.5,0,0,1-13.562,12.164,80.248,80.248,0,0,0-3.8-12.529,32.441,32.441,0,0,0-5.134,12.466,15.391,15.391,0,0,1-11.164-12.391c1.222-9.654,9.528-16.922,16.65-16.68C961.647,283.4,962.906,299.83,962.906,299.83Z" transform="translate(-307.34 -132.2)" fill="#fff"/>
    <path id="Path_107350" data-name="Path 107350" d="M947.569,311.516a1.255,1.255,0,0,1-1.255-1.029,69.143,69.143,0,0,0-2.862-9.968,32.282,32.282,0,0,0-3.594,9.876,1.255,1.255,0,0,1-1.573,1.017,16.5,16.5,0,0,1-12.077-13.449,1.266,1.266,0,0,1,0-.305c1.368-10.788,10.553-18.035,17.939-17.776,16.68.565,18.2,17.952,18.215,18.123a1.256,1.256,0,0,1-.1.59,22.852,22.852,0,0,1-14.341,12.868,1.255,1.255,0,0,1-.351.054Zm-3.8-15.039h.155a1.255,1.255,0,0,1,1.009.778,85.629,85.629,0,0,1,3.573,11.332,20.228,20.228,0,0,0,11.336-10.708c-.255-2.205-2.306-15.064-15.763-15.508-6.256-.218-14.106,6.327-15.341,15.42a14.03,14.03,0,0,0,8.938,10.771,33.783,33.783,0,0,1,5.076-11.579A1.255,1.255,0,0,1,943.774,296.477Z" transform="translate(-305.565 -130.466)" fill="#262424"/>
    <path id="Path_107351" data-name="Path 107351" d="M1030.261,396.472c-.962,13.784-2.54,31.46-6.143,43.1-2.289,7.357-5.381,12.3-9.646,12.3a26.249,26.249,0,0,1-10.729-2.6c-15.37-6.976-29.853-25.831-31.443-29.756-1.963-4.842,4.185-14.525,9.813-15.064s17.4,7.85,17.4,7.85,9.026-39.774,11.252-47.495,9.984-12.323,9.984-12.323C1030.542,357.652,1031.831,373.968,1030.261,396.472Z" transform="translate(-332.159 -172.689)"/>
    <path id="Path_107352" data-name="Path 107352" d="M1054.1,507.581a1.255,1.255,0,0,1-1.067-.59c-.054-.084-2.975-4.561-10.512-7.478a1.255,1.255,0,0,1,.347-2.423,32.594,32.594,0,0,1,13.809,2.444,1.256,1.256,0,1,1-.946,2.327,31.379,31.379,0,0,0-6.7-1.883,20.42,20.42,0,0,1,6.16,5.687,1.255,1.255,0,0,1-1.1,1.917Z" transform="translate(-372.744 -256.77)" fill="#262424"/>
    <path id="Path_107353" data-name="Path 107353" d="M1068.23,555.622c-2.289,7.356-5.381,12.3-9.645,12.3a26.25,26.25,0,0,1-10.729-2.6,12.24,12.24,0,0,1-.075-1.322,11.938,11.938,0,0,1,20.45-8.373Z" transform="translate(-376.27 -288.751)" fill="#fff"/>
    <path id="Path_107354" data-name="Path 107354" d="M1012.729,455.9c-10.382,0-21.065-8-28.2-14.7-7.658-7.2-13.972-15.592-15.127-18.441-1.025-2.532-.322-6.214,1.887-9.846,1.9-3.122,5.252-6.578,8.972-6.921,4.846-.452,13.177,4.674,16.7,7.022,1.808-7.951,8.9-38.946,10.88-45.762a22.116,22.116,0,0,1,6.168-9.624,1.255,1.255,0,1,1,1.732,1.816,19.863,19.863,0,0,0-5.486,8.495c-2.188,7.6-11.143,47.026-11.235,47.424a1.255,1.255,0,0,1-1.95.745c-3.172-2.255-12.328-8.018-16.558-7.624-2.3.213-5.076,2.461-7.059,5.729-1.745,2.866-2.415,5.858-1.707,7.6,1.933,4.775,23.316,31.577,41.009,31.577h0a1.255,1.255,0,0,1,0,2.511h0Z" transform="translate(-330.419 -175.467)" fill="#262424"/>
    <path id="Path_107355" data-name="Path 107355" d="M976.7,471.947l-9.553-7.457s-8.767.653-10.6,11.775l10.336,8.767S975.916,482.806,976.7,471.947Z" transform="translate(-323.216 -237.828)"/>
    <path id="Path_107356" data-name="Path 107356" d="M965.161,484.534a1.255,1.255,0,0,1-.812-.3l-10.336-8.767a1.255,1.255,0,0,1-.418-1.163c1.971-11.955,11.646-12.817,11.742-12.821a1.255,1.255,0,0,1,.866.264l9.553,7.457a1.255,1.255,0,0,1,.481,1.08c-.837,11.637-10.666,14.19-10.767,14.228a1.254,1.254,0,0,1-.31.021Zm-8.972-10.512,9.256,7.85c1.841-.661,7.365-3.289,8.219-11.11l-8.6-6.7c-1.649.285-7.26,1.883-8.88,9.959Z" transform="translate(-321.487 -236.079)" fill="#262424"/>
    <path id="Path_107357" data-name="Path 107357" d="M916.065,449.513s-17.182-13.173-18.056-13.173-27.2,8.285-27.74,8.549a2,2,0,0,0,.611,3.138c1.657.87,15.353-.088,15.353-.088a42.428,42.428,0,0,0,5.67,6.193c3.055,2.615,7.591,4.1,10.641.958,0,0,2.511,5.406,7.327,3.837S916.065,449.513,916.065,449.513Z" transform="translate(-272.738 -221.458)" fill="#fff"/>
    <path id="Path_107358" data-name="Path 107358" d="M906.435,458.694a7.54,7.54,0,0,1-5.95-3.477c-3.456,2.289-7.951.837-11.127-1.908a42.383,42.383,0,0,1-5.44-5.858c-4.532.305-13.654.791-15.345-.1a3.243,3.243,0,0,1-1.8-2.988,2.693,2.693,0,0,1,1.205-2.389c.176-.088,26.978-8.683,28.3-8.683.519,0,1.3,0,18.831,13.432a1.255,1.255,0,0,1,.473,1.218c-.063.352-1.59,8.612-7.038,10.394A6.7,6.7,0,0,1,906.435,458.694Zm-5.62-6.633a1.255,1.255,0,0,1,1.138.724c.084.176,2.13,4.377,5.8,3.176,2.984-.975,4.6-5.377,5.189-7.712-7.189-5.5-15.094-11.386-16.805-12.378-2.967.741-23.944,7.31-26.823,8.294a1.009,1.009,0,0,0,0,.5.762.762,0,0,0,.418.477c1.063.418,8.457.209,14.679-.23a1.256,1.256,0,0,1,1.1.511,41.427,41.427,0,0,0,5.473,5.98c2.013,1.724,6.16,3.887,8.926,1.038a1.255,1.255,0,0,1,.9-.372Zm-4.9-16.32Z" transform="translate(-271.009 -219.684)" fill="#262424"/>
    <path id="Path_107359" data-name="Path 107359" d="M967.609,236.37l-.255,9.683-.418,16.562c-5.57,3.892-10.989,4.306-16.215.381l.766-7.7,1.159-11.654Z" transform="translate(-319.826 -105.166)" fill="#fff"/>
    <path id="Path_107360" data-name="Path 107360" d="M956.49,265.26a13.7,13.7,0,0,1-8.315-3.009,1.255,1.255,0,0,1-.494-1.13l1.925-19.345a1.255,1.255,0,0,1,.7-1l14.985-7.277a1.255,1.255,0,0,1,1.8,1.163L966.4,260.9a1.256,1.256,0,0,1-.536,1A16.414,16.414,0,0,1,956.49,265.26Zm-6.243-4.6c4.272,2.929,8.754,2.77,13.658-.46l.623-23.534-12.495,6.068Z" transform="translate(-318.055 -103.421)" fill="#262424"/>
    <path id="Path_107361" data-name="Path 107361" d="M962.851,242.37c-.075,4.373.326,19.249-11.411,20.877l1.6-16.111Z" transform="translate(-320.244 -108.656)" fill="#262424"/>
    <path id="Path_107362" data-name="Path 107362" d="M920.128,210.093c1.059,7.951,3.678,17.383,13.181,15.592,11.3-2.13,18.379-10.394,18.136-21.2s-5.44-16.738-18.32-15.064a19.858,19.858,0,0,0-3.239.686c-7.382,2.247-10.926,8.536-10.227,15.763C919.781,207.151,919.923,208.595,920.128,210.093Z" transform="translate(-301.713 -77.701)" fill="#fff"/>
    <path id="Path_107363" data-name="Path 107363" d="M929.274,225.78a9.415,9.415,0,0,1-5.8-1.866c-4.967-3.733-6.147-11.93-6.859-19.324-.908-9.419,4.942-16.579,14.558-17.814a1.265,1.265,0,0,1,.318,2.511c-8.3,1.067-13.16,6.988-12.378,15.064.477,4.955,1.368,14.182,5.858,17.575a7.652,7.652,0,0,0,6.3,1.163,22.489,22.489,0,0,0,10.57-4.833,1.255,1.255,0,1,1,1.624,1.912,25.3,25.3,0,0,1-11.717,5.39A13.39,13.39,0,0,1,929.274,225.78Z" transform="translate(-299.936 -76.319)" fill="#262424"/>
    <path id="Path_107364" data-name="Path 107364" d="M946.241,192.7a33.2,33.2,0,0,1-3.532,4.557l-5.716.54-1.364-4.009s-3.641-.046-4.469-2.473a1.4,1.4,0,0,1-.054-.172,31.51,31.51,0,0,1-.716-9.943s-8.612,4.139-13.349,4.791a10.8,10.8,0,0,1-5.612-1.214c-3.766-1.72-7.227-7.679-6.7-11.8V172.9c.837-6.042,4.092-1.979,4.092-1.979s.741-4.867,3.766-5.314,5.093,3.963,5.093,3.963a47.759,47.759,0,0,1,17.717-1.306c11.775,1.41,9.118,9.574,9.118,9.574S953.229,180.319,946.241,192.7Z" transform="translate(-293.052 -63.995)" fill="#262424"/>
    <path id="Path_107365" data-name="Path 107365" d="M984.683,227.737a8.334,8.334,0,0,1,6.9-9.457,7.565,7.565,0,0,1,2.862.113c5.641,1.331,4.6,14.395-9.122,13.843Z" transform="translate(-339.528 -94.596)" fill="#fff"/>
    <path id="Path_107366" data-name="Path 107366" d="M984.394,231.787h-.87a1.256,1.256,0,1,1,.1-2.511c7.365.3,10.512-3.519,10.968-6.879.264-1.912-.418-4.067-2.189-4.486a6.352,6.352,0,0,0-2.389-.092,7.063,7.063,0,0,0-5.833,8.039,1.255,1.255,0,1,1-2.486.352,9.59,9.59,0,0,1,7.951-10.88,8.854,8.854,0,0,1,3.348.13c2.858.674,4.582,3.733,4.1,7.273C996.453,227.305,992.294,231.787,984.394,231.787Z" transform="translate(-337.782 -92.871)" fill="#262424"/>
    <path id="Path_107367" data-name="Path 107367" d="M749.357,559.913l4.791-9.763a1.632,1.632,0,0,1,1.887-.858l.109.029a1.632,1.632,0,0,1,1.155,2.009l-2.331,8.587a1.306,1.306,0,0,0,.983,1.619h0a1.306,1.306,0,0,0,1.5-.837l3.214-8.871a1.942,1.942,0,0,1,2.264-1.23l.268.063a1.942,1.942,0,0,1,1.477,2.21l-1.532,9.177a1.1,1.1,0,0,0,.8,1.255h0a1.1,1.1,0,0,0,1.339-.741l2.808-9.185a1.942,1.942,0,0,1,2.327-1.314h0a1.942,1.942,0,0,1,1.456,2.122l-1.193,9.549a1.063,1.063,0,0,0,.837,1.172h0a1.063,1.063,0,0,0,1.255-.749l2.247-7.951a1.632,1.632,0,0,1,1.891-1.159h0a1.632,1.632,0,0,1,1.3,1.824l-1.6,11.574a2.452,2.452,0,0,1-1.4,1.887l-1.31.607a2.452,2.452,0,0,1-2.327-.142h0a2.452,2.452,0,0,0-1.732-.331l-2.423.431a2.452,2.452,0,0,1-1.925-.46l-1.285-.975a2.452,2.452,0,0,0-2.034-.419l-3.168.724a2.452,2.452,0,0,1-2.172-.557l-1.18-1.046a2.452,2.452,0,0,0-1.862-.607l-3.21.31a2.452,2.452,0,0,1-2.071-.816l-6.9-7.792a2.025,2.025,0,0,1,.36-3.009h0a2.025,2.025,0,0,1,2.352.029Z" transform="translate(-197.928 -287.112)" fill="#fff"/>
    <path id="Path_107368" data-name="Path 107368" d="M771.13,570.657a3.7,3.7,0,0,1-1.954-.561,1.2,1.2,0,0,0-.837-.159l-2.393.418a3.711,3.711,0,0,1-2.908-.7l-1.285-.975a1.192,1.192,0,0,0-.992-.213l-3.168.724a3.712,3.712,0,0,1-3.285-.837l-1.18-1.046a1.2,1.2,0,0,0-.908-.3l-3.21.31a3.72,3.72,0,0,1-3.13-1.234l-6.925-7.775a3.281,3.281,0,0,1,4.394-4.825l3.8,2.783,4.134-8.419a2.9,2.9,0,0,1,3.348-1.519l.109.029a2.887,2.887,0,0,1,2.034,3.54l-2.331,8.587.038.063a.05.05,0,0,0,.059-.033l3.214-8.871a3.2,3.2,0,0,1,3.728-2.025l.272.063a3.2,3.2,0,0,1,2.427,3.636l-1.147,6.871,2.122-6.946a3.2,3.2,0,0,1,6.227,1.331l-.875,7,1.548-5.482a2.887,2.887,0,0,1,5.641,1.18l-1.6,11.575a3.7,3.7,0,0,1-2.092,2.854l-1.306.607a3.706,3.706,0,0,1-1.573.351Zm-2.582-3.251a3.7,3.7,0,0,1,1.954.557,1.193,1.193,0,0,0,1.134.067l1.31-.607a1.193,1.193,0,0,0,.682-.921l1.582-11.579a.377.377,0,0,0-.736-.155l-2.247,7.951a2.318,2.318,0,0,1-4.528-.916l1.193-9.549a.686.686,0,0,0-1.335-.285l-2.808,9.185a2.356,2.356,0,0,1-4.578-1.075L761.7,550.9a.686.686,0,0,0-.519-.778l-.272-.063a.682.682,0,0,0-.8.418l-3.21,8.9a2.561,2.561,0,0,1-4.879-1.531l2.331-8.587a.377.377,0,0,0-.268-.465l-.109-.029a.377.377,0,0,0-.418.2l-4.791,9.763a1.255,1.255,0,0,1-1.866.46l-5.022-3.666a.775.775,0,0,0-1.034,1.142l6.9,7.792a1.2,1.2,0,0,0,1.013.418l3.21-.31a3.72,3.72,0,0,1,2.816.916l1.18,1.046a1.2,1.2,0,0,0,1.063.272l3.168-.724a3.7,3.7,0,0,1,3.071.665l1.285.975a1.2,1.2,0,0,0,.937.226l2.394-.418a3.735,3.735,0,0,1,.649-.121Z" transform="translate(-196.192 -285.366)" fill="#262424"/>
    <rect id="Rectangle_14169" data-name="Rectangle 14169" width="25.12" height="34.02" transform="translate(538.913 225.787)" fill="#fff"/>
    <path id="Path_107369" data-name="Path 107369" d="M754.313,495.927H729.205a1.255,1.255,0,0,1-1.255-1.255V460.655a1.255,1.255,0,0,1,1.255-1.255h25.107a1.255,1.255,0,0,1,1.255,1.255v34.016a1.255,1.255,0,0,1-1.255,1.255Zm-23.852-2.511h22.6V461.911h-22.6Z" transform="translate(-190.275 -234.868)" fill="#262424"/>
    <path id="Path_107370" data-name="Path 107370" d="M732.894,439.16H707.77l9.683,9.725h25.124Z" transform="translate(-178.54 -223.098)" fill="#fff"/>
    <path id="Path_107371" data-name="Path 107371" d="M740.851,448.4H715.744a1.255,1.255,0,0,1-.891-.368L705.17,438.3a1.255,1.255,0,0,1,.891-2.142h25.107a1.256,1.256,0,0,1,.891.368l9.683,9.725a1.255,1.255,0,0,1-.891,2.142Zm-24.6-2.511h21.58l-7.181-7.214H709.07Z" transform="translate(-176.814 -221.353)" fill="#262424"/>
    <rect id="Rectangle_14170" data-name="Rectangle 14170" width="25.12" height="34.02" transform="translate(589.153 259.804) rotate(180)" fill="#fff"/>
    <path id="Path_107372" data-name="Path 107372" d="M814.363,495.927H789.255A1.255,1.255,0,0,1,788,494.672V460.655a1.255,1.255,0,0,1,1.255-1.255h25.107a1.255,1.255,0,0,1,1.255,1.255v34.016a1.255,1.255,0,0,1-1.255,1.255Zm-23.852-2.511h22.6V461.911h-22.6Z" transform="translate(-225.197 -234.868)" fill="#262424"/>
    <path id="Path_107373" data-name="Path 107373" d="M800.629,439.16h25.124l-9.683,9.725H790.95Z" transform="translate(-226.913 -223.098)" fill="#fff"/>
    <path id="Path_107374" data-name="Path 107374" d="M814.358,448.372H789.251a1.255,1.255,0,0,1-.891-2.143l9.679-9.742a1.255,1.255,0,0,1,.891-.368h25.107a1.255,1.255,0,0,1,.891,2.142L815.237,448a1.256,1.256,0,0,1-.879.372Zm-22.1-2.511h21.58l7.185-7.214H799.432Z" transform="translate(-225.193 -221.33)" fill="#262424"/>
    <path id="Path_107375" data-name="Path 107375" d="M720.961,478.034a50.357,50.357,0,1,1,50.353-50.358A50.358,50.358,0,0,1,720.961,478.034Zm0-98.2a47.847,47.847,0,1,0,0-.013Z" transform="translate(-156.924 -187.135)" fill="#262424"/>
    <rect id="Rectangle_14171" data-name="Rectangle 14171" width="9.227" height="16.479" rx="4.613" transform="translate(548.504 104.682)"/>
    <path id="Path_107376" data-name="Path 107376" d="M802.7,164.189v7.633a5.151,5.151,0,0,1-5.151,5.151H786.984a2.544,2.544,0,0,1-2.544-2.544v-11.9a2.544,2.544,0,0,1,.745-1.8l8.809-8.808a1.427,1.427,0,0,1,2.017,0h0a1.427,1.427,0,0,1,.305,1.569l-3.394,7.988h7.051a2.716,2.716,0,0,1,2.724,2.712Z" transform="translate(-223.127 -55.812)"/>
    <path id="Path_107377" data-name="Path 107377" d="M749.387,174.876a1.255,1.255,0,0,1-.305-2.473,33.79,33.79,0,0,0-8.227-66.535h-.063a33.795,33.795,0,0,0-8.407,66.535,1.255,1.255,0,0,1-.623,2.431,36.305,36.305,0,0,1,9.03-71.464h.071a36.3,36.3,0,0,1,8.833,71.468,1.255,1.255,0,0,1-.31.038Z" transform="translate(-176.641 -27.821)" fill="#262424"/>
    <path id="Path_107378" data-name="Path 107378" d="M753.116,179.383h-.054a27.4,27.4,0,0,1,.05-54.793h.05a27.4,27.4,0,0,1-.046,54.793Zm0-52.282a24.886,24.886,0,1,0-.046,49.771h.046a24.886,24.886,0,0,0,.046-49.771Z" transform="translate(-188.961 -40.161)" fill="#262424"/>
    <path id="Path_107379" data-name="Path 107379" d="M789.205,299.166h0a1.255,1.255,0,0,1-1.255-1.255L788,269.455a1.255,1.255,0,0,1,1.255-1.255h0a1.255,1.255,0,0,1,1.255,1.255l-.054,28.455a1.255,1.255,0,0,1-1.255,1.255Z" transform="translate(-225.168 -123.677)" fill="#262424"/>
    <path id="Path_107380" data-name="Path 107380" d="M511.474,319.94v8.172a1.3,1.3,0,0,1-2.214.916l-2.117-2.117-8.549,8.553a3.674,3.674,0,0,1-5.193,0l-5.578-5.565-7.156,7.156a3.67,3.67,0,0,1-5.193,0h0a3.67,3.67,0,0,1,0-5.193l9.75-9.75a3.67,3.67,0,0,1,5.193,0l5.574,5.578,5.971-5.967-1.7-1.7a1.3,1.3,0,0,1,.916-2.214h8.172A2.126,2.126,0,0,1,511.474,319.94Z" transform="translate(-42.823 -152.527)"/>
    <path id="Path_107381" data-name="Path 107381" d="M472.569,332.42a36.305,36.305,0,1,1,34.933-26.5,1.255,1.255,0,0,1-2.415-.682,33.778,33.778,0,1,0-8.348,14.491,1.256,1.256,0,1,1,1.8,1.753,36.217,36.217,0,0,1-25.969,10.938Z" transform="translate(-20.632 -118.798)" fill="#262424"/>
    <path id="Path_107382" data-name="Path 107382" d="M484.912,335.863a27.392,27.392,0,1,1,23.773-13.692h0A27.417,27.417,0,0,1,484.912,335.863ZM485,283.59a24.886,24.886,0,1,0,21.509,37.326h0A24.877,24.877,0,0,0,485,283.594Zm22.6,37.954Z" transform="translate(-33.037 -131.166)" fill="#262424"/>
    <path id="Path_107383" data-name="Path 107383" d="M616.2,400.877a1.256,1.256,0,0,1-.628-.167l-24.63-14.228a1.256,1.256,0,1,1,1.255-2.176l24.63,14.228a1.255,1.255,0,0,1-.628,2.343Z" transform="translate(-110.236 -191.1)" fill="#262424"/>
    <path id="Path_107384" data-name="Path 107384" d="M506.826,648.277l-6.871,3.159a1.523,1.523,0,0,1-2.151-1.565l.883-7.532a1.523,1.523,0,0,0-.393-1.214l-5.134-5.536a1.523,1.523,0,0,1,.837-2.511l7.419-1.481a1.523,1.523,0,0,0,1.029-.749l3.7-6.595a1.523,1.523,0,0,1,2.661,0l3.7,6.595a1.523,1.523,0,0,0,1.029.749l7.419,1.481a1.523,1.523,0,0,1,.837,2.511l-5.164,5.561a1.523,1.523,0,0,0-.393,1.214l.883,7.532a1.523,1.523,0,0,1-2.151,1.565L508.1,648.3A1.523,1.523,0,0,0,506.826,648.277Z" transform="translate(-53.508 -330.283)"/>
    <path id="Path_107385" data-name="Path 107385" d="M477.508,642.9a36.3,36.3,0,1,1,25.664-61.952,1.255,1.255,0,1,1-1.778,1.77,33.778,33.778,0,1,0,8.511,14.366,1.256,1.256,0,0,1,2.41-.707A36.339,36.339,0,0,1,477.508,642.9Z" transform="translate(-23.504 -299.355)" fill="#262424"/>
    <path id="Path_107386" data-name="Path 107386" d="M489.861,646.372A27.4,27.4,0,1,1,513.386,605h0a27.413,27.413,0,0,1-23.526,41.369Zm-.088-52.307a24.881,24.881,0,1,0,21.458,12.2h0a24.9,24.9,0,0,0-21.463-12.185Z" transform="translate(-35.856 -311.728)" fill="#262424"/>
    <path id="Path_107387" data-name="Path 107387" d="M595.986,595.062a1.255,1.255,0,0,1-.64-2.335l24.476-14.491a1.255,1.255,0,1,1,1.281,2.159l-24.476,14.491A1.255,1.255,0,0,1,595.986,595.062Z" transform="translate(-112.802 -303.874)" fill="#262424"/>
    <path id="Path_107388" data-name="Path 107388" d="M547.293,152.325a13.324,13.324,0,0,0,6.892-6.892l1.77-4.063,1.77,4.063a13.324,13.324,0,0,0,6.892,6.892l4.063,1.77-4.063,1.766a13.324,13.324,0,0,0-6.892,6.892l-1.77,4.063-1.77-4.063a13.323,13.323,0,0,0-6.892-6.892l-4.063-1.77Z" transform="translate(-82.853 -49.92)"/>
    <path id="Path_107389" data-name="Path 107389" d="M436.136,758.678a6.277,6.277,0,0,0,3.251-3.251l.837-1.917.837,1.917a6.277,6.277,0,0,0,3.251,3.251l1.917.837-1.917.837a6.277,6.277,0,0,0-3.251,3.251l-.837,1.917-.837-1.917a6.277,6.277,0,0,0-3.251-3.251l-1.917-.837Z" transform="translate(-19.458 -405.906)"/>
    <path id="Path_107390" data-name="Path 107390" d="M510.892,804.407a9.938,9.938,0,0,0,5.143-5.143l1.322-3.034,1.322,3.034a9.939,9.939,0,0,0,5.135,5.143l3.034,1.322-3.034,1.318a9.938,9.938,0,0,0-5.143,5.143l-1.322,3.034-1.322-3.034a9.938,9.938,0,0,0-5.143-5.143l-3.034-1.322Z" transform="translate(-62.278 -430.749)"/>
    <path id="Path_107391" data-name="Path 107391" d="M904.178,70.392a14,14,0,0,0,7.243-7.243l1.862-4.268,1.862,4.268a14,14,0,0,0,7.243,7.243l4.268,1.862-4.268,1.862a14,14,0,0,0-7.243,7.243l-1.862,4.268-1.862-4.268a14,14,0,0,0-7.243-7.243l-4.268-1.862Z" transform="translate(-290.277 -1.948)"/>
    <path id="Path_107392" data-name="Path 107392" d="M452.132,115.22a21.931,21.931,0,0,0,13.533,10.244l-4.118,8.633a23.11,23.11,0,0,1-17.387-14.855Z" transform="translate(-25.239 -34.712)" fill="#919191"/>
    <path id="Path_107393" data-name="Path 107393" d="M1089.44,177.786a21.931,21.931,0,0,0,15.064-7.846l6.038,7.419a23.15,23.15,0,0,1-20.869,9.353Z" transform="translate(-400.498 -66.534)" fill="#919191"/>
    <path id="Path_107394" data-name="Path 107394" d="M400.76,476.245a26.4,26.4,0,0,0,13-15.755l10.173,5.39a27.81,27.81,0,0,1-18.747,20.153Z" transform="translate(0 -235.502)" fill="#919191"/>
    <path id="Path_107395" data-name="Path 107395" d="M734.7,844.17a26.4,26.4,0,0,0,15.809-12.93l8.93,7.26a27.828,27.828,0,0,1-22.3,16.136Z" transform="translate(-194.201 -451.109)" fill="#919191"/>
    <circle id="Ellipse_9924" data-name="Ellipse 9924" cx="5.222" cy="5.222" r="5.222" transform="translate(580.901 55.53)" fill="#919191"/>
    <circle id="Ellipse_9925" data-name="Ellipse 9925" cx="5.222" cy="5.222" r="5.222" transform="translate(511.362 149.369)" fill="#919191"/>
    <circle id="Ellipse_9926" data-name="Ellipse 9926" cx="5.222" cy="5.222" r="5.222" transform="translate(507.872 345.972)" fill="#919191"/>
    <circle id="Ellipse_9927" data-name="Ellipse 9927" cx="6.976" cy="6.976" r="6.976" transform="translate(627.86 508.233)" fill="#919191"/>
  </g>
</svg>
