<svg id="vuesax_twotone_wallet-check" data-name="vuesax/twotone/wallet-check" xmlns="http://www.w3.org/2000/svg" width="48" height="48" viewBox="0 0 48 48">
  <g id="wallet-check">
    <g id="Group" transform="translate(2 30)">
      <path id="Vector" d="M16,8a7.842,7.842,0,0,1-1.16,4.12,7.969,7.969,0,0,1-13.68,0A7.842,7.842,0,0,1,0,8,8,8,0,0,1,16,8Z" fill="none" stroke="#fff" stroke-linecap="round" stroke-linejoin="round" stroke-width="2.5"/>
      <path id="Vector-2" data-name="Vector" d="M0,1.96,1.98,3.94,6.24,0" transform="translate(4.88 6.04)" fill="none" stroke="#fff" stroke-linecap="round" stroke-linejoin="round" stroke-width="2.5"/>
    </g>
    <path id="Vector-3" data-name="Vector" d="M0,0H48V48H0Z" fill="none" opacity="0"/>
    <path id="Vector-4" data-name="Vector" d="M23.12,10.1a9.146,9.146,0,0,0-1.5-.1h-20A10.644,10.644,0,0,0,0,10.12,6.086,6.086,0,0,1,1.16,8.56l6.5-6.52a7.05,7.05,0,0,1,9.92,0l3.5,3.54A6.748,6.748,0,0,1,23.12,10.1Z" transform="translate(12.38 4)" fill="none" stroke="#fff" stroke-linecap="round" stroke-linejoin="round" stroke-width="2.5" opacity="0.4"/>
    <path id="Vector-5" data-name="Vector" d="M40,10V20c0,6-4,10-10,10H11.26a7.186,7.186,0,0,0,1.58-1.88A7.842,7.842,0,0,0,14,24,7.993,7.993,0,0,0,0,18.72V10C0,4.56,3.28.76,8.38.12A10.644,10.644,0,0,1,10,0H30a9.146,9.146,0,0,1,1.5.1C36.66.7,40,4.52,40,10Z" transform="translate(4 14)" fill="none" stroke="#fff" stroke-linecap="round" stroke-linejoin="round" stroke-width="2.5"/>
    <path id="Vector-6" data-name="Vector" d="M10,0H4A4,4,0,0,0,4,8h6" transform="translate(34 25)" fill="none" stroke="#fff" stroke-linecap="round" stroke-linejoin="round" stroke-width="2.5" opacity="0.4"/>
  </g>
</svg>
