<svg xmlns="http://www.w3.org/2000/svg" width="160.331" height="60" viewBox="0 0 160.331 60">
  <g id="b" transform="translate(0 0)">
    <g id="c">
      <g id="Group_41" data-name="Group 41" transform="translate(0 0)">
        <g id="Group_39" data-name="Group 39">
          <path id="Path_11" data-name="Path 11" d="M56.285,19.877H53.49c-10.682,0-16.679-4.829-21.97-9.089C27.28,7.373,21.445,4.424,15.936,4.424H10.1A5.617,5.617,0,0,0,4.44,9.657a5.517,5.517,0,0,0,5.5,5.788H19.4c14.976,0,23.916,6.851,23.916,18.327h-.016a.015.015,0,0,1,.016.016V49.718A10.282,10.282,0,0,1,32.753,59.986a10.425,10.425,0,0,1-9.976-10.5V24.6a2.216,2.216,0,1,1,4.433,0V49.537a5.908,5.908,0,0,0,6.307,6,5.847,5.847,0,0,0,5.37-5.82V33.787a.015.015,0,0,1,.016-.016h-.016c0-12.09-12.208-13.894-19.484-13.894H10.156A10.083,10.083,0,0,1,.006,10.235,9.954,9.954,0,0,1,9.944-.009h5.991c7.073,0,13.882,3.733,18.366,7.344,4.951,3.987,10.07,8.109,19.189,8.109h2.635a5.617,5.617,0,0,0,5.663-5.233,5.517,5.517,0,0,0-5.5-5.788h-21.7a2.216,2.216,0,1,1,0-4.433H56.074a10.082,10.082,0,0,1,10.15,9.642,9.954,9.954,0,0,1-9.939,10.244Z" transform="translate(-0.001 0.01)" fill="#fff"/>
          <path id="Path_12" data-name="Path 12" d="M41.265,67.392c-.09,0-.181,0-.271,0a9.253,9.253,0,0,1-6.507-2.95,9.772,9.772,0,0,1-2.665-6.723V32.826a1.388,1.388,0,0,1,1.385-1.388c.035,0,.071,0,.105,0A1.394,1.394,0,0,1,34.6,32.826V57.767a6.766,6.766,0,0,0,6.665,6.848c.178,0,.358-.007.536-.021a6.7,6.7,0,0,0,6.132-6.646V42c0-5.653-2.514-9.766-7.474-12.222-4.171-2.066-9.283-2.5-12.838-2.5H18.371A9.408,9.408,0,0,1,11.9,24.713a8.943,8.943,0,0,1-2.847-6.271A9.116,9.116,0,0,1,18.16,9.05h5.991a24.461,24.461,0,0,1,9.82,2.248A36.505,36.505,0,0,1,42,16.211c5.063,4.077,10.3,8.292,19.708,8.292H64.34a6.415,6.415,0,0,0,6.49-6.02A6.344,6.344,0,0,0,64.5,11.827H42.8a1.388,1.388,0,0,1-1.387-1.319A1.388,1.388,0,0,1,42.8,9.051H64.287a9.408,9.408,0,0,1,6.476,2.568,8.943,8.943,0,0,1,2.847,6.271A9.116,9.116,0,0,1,64.5,27.281H61.7A27.715,27.715,0,0,1,49.065,24.42a48.19,48.19,0,0,1-8.812-6.046c-2.445-1.969-8.907-6.547-16.1-6.547H18.317a6.415,6.415,0,0,0-6.49,6.02A6.344,6.344,0,0,0,18.158,24.5h9.461a36.747,36.747,0,0,1,9.832,1.22,21.17,21.17,0,0,1,7.238,3.47,14.914,14.914,0,0,1,4.468,5.46A16.989,16.989,0,0,1,50.708,42V57.95a9.456,9.456,0,0,1-9.444,9.444h0Z" transform="translate(-8.216 -8.22)" fill="#fff"/>
        </g>
        <g id="Group_40" data-name="Group 40" transform="translate(47.478 27.237)">
          <path id="Path_13" data-name="Path 13" d="M1325.537,315.887v-2.153l-3.17-.208v-3.8h7.244c0,1.384.017,2.757.017,4.094,0,2.859.081,5.264-3.114,6.461a8.766,8.766,0,0,1-9.554-1.77c-4.23-4.378-3.185-12.894,2.01-15.991a5.85,5.85,0,0,1,2.617-.849c2.57-.113,5.148-.039,7.873-.039v4.126a51.909,51.909,0,0,1-5.839-.042,4.169,4.169,0,0,0-4.748,3.35,7,7,0,0,0,.621,5.782,4.062,4.062,0,0,0,6.044,1.043Z" transform="translate(-1241.467 -301.224)" fill="#fff"/>
          <path id="Path_14" data-name="Path 14" d="M522.49,319.839h-3.98V301.09h6.536c3.891,0,5.6,1.018,6.556,3.9a7.229,7.229,0,0,1-2.753,8.313l3.507,6.28a4.051,4.051,0,0,1-5.352-1.3c-1.434-2.5-2.84-5.012-4.515-7.976v9.535Zm.1-9.432c1.029,0,1.691,0,2.378-.006a2.72,2.72,0,0,0,2.7-2.79c0-.027,0-.052,0-.079a2.72,2.72,0,0,0-2.718-2.646h-2.373c0,2,.009,3.393.009,5.521Z" transform="translate(-518.51 -300.757)" fill="#fff"/>
          <path id="Path_15" data-name="Path 15" d="M693.867,301.93h3.688c0,3.307-.029,6.533.017,9.789a12.531,12.531,0,0,0,.389,2.947,2.745,2.745,0,0,0,5.367-.2,35.828,35.828,0,0,0,.256-4.822c.037-2.541.01-5.082.01-7.709h3.924c-.082,4.49.168,9.215-.357,13.653-.451,3.811-3.047,5.306-7.359,5.236a5.71,5.71,0,0,1-5.845-5.447c-.364-4.42-.089-8.863-.089-13.441Z" transform="translate(-677.721 -301.52)" fill="#fff"/>
          <path id="Path_16" data-name="Path 16" d="M864.911,313.352l2.039-2.939a42.031,42.031,0,0,0,3.69,2.027c1.1.473,2.31.369,2.765-.935.462-1.321-.656-1.768-1.634-2.181-1.448-.611-2.9-1.209-4.337-1.846-2.685-1.193-2.766-7.395.549-9.249a7.621,7.621,0,0,1,9.033,1.817l-1.865,3.157a14.586,14.586,0,0,0-3.225-1.546,2.614,2.614,0,0,0-2.277.751c-.576.973.264,1.682,1.237,2.05a35.084,35.084,0,0,1,3.735,1.452c2.593,1.338,3.491,3.8,2.6,6.737a5.6,5.6,0,0,1-5.918,3.988,8.828,8.828,0,0,1-6.391-3.283Z" transform="translate(-833.191 -297.448)" fill="#fff"/>
          <path id="Path_17" data-name="Path 17" d="M1606.617,313.118l2.36,2.872c-2.5,4.446-9.136,4.7-12.259.584a11.182,11.182,0,0,1,.779-13.891c2.935-3.089,9.184-2.6,11.319,1-.7.983-1.42,2.009-2.2,3.111-.31-.234-.534-.374-.721-.549-2.68-2.527-5.63-1.911-6.844,1.561a6.306,6.306,0,0,0,1.052,6.333,3.764,3.764,0,0,0,5.578.048c.273-.295.531-.6.935-1.063Z" transform="translate(-1496.124 -300.352)" fill="#fff"/>
          <path id="Path_18" data-name="Path 18" d="M1007.141,306.09v-4.08h13.137V306.1h-4.548v14.578h-4V306.09h-4.587Z" transform="translate(-962.397 -301.592)" fill="#fff"/>
          <path id="Path_19" data-name="Path 19" d="M1187.452,393.514H1175.38V382.16h7.538v3.924l-3.8.172v3.187h8.332Z" transform="translate(-1115.232 -374.403)" fill="#fff"/>
          <path id="Path_20" data-name="Path 20" d="M1525.31,301.93h3.762v18.658h-3.762Z" transform="translate(-1433.12 -301.52)" fill="#fff"/>
          <path id="Path_21" data-name="Path 21" d="M1184.744,301.15v4h-9.207c-3.228.007-3.554-.421-2.856-4Z" transform="translate(-1112.503 -300.811)" fill="#fff"/>
        </g>
      </g>
      <path id="Path_22" data-name="Path 22" d="M2.291,2.386h.682V-3.475H5.24v-.59H.024v.59H2.291Zm4.4-3.9v-.949H6.06V2.386h.654V-.084A1.568,1.568,0,0,1,8.345-1.872c.046,0,.1.009.157.009V-2.5A1.828,1.828,0,0,0,6.686-1.512Zm6.782-.949V.082a1.576,1.576,0,0,1-1.649,1.76A1.357,1.357,0,0,1,10.363.284V-2.462H9.709V.349a1.878,1.878,0,0,0,2.046,2.083A1.928,1.928,0,0,0,13.5,1.5v.885h.627V-2.462Zm3.787,4.893c1.262,0,2-.544,2-1.382,0-1.861-3.142-.875-3.142-2.184,0-.461.387-.8,1.262-.8a2.484,2.484,0,0,1,1.428.415l.286-.525A3.285,3.285,0,0,0,17.376-2.5c-1.235,0-1.917.59-1.917,1.382C15.459.8,18.6-.195,18.6,1.068c0,.479-.378.792-1.3.792a2.928,2.928,0,0,1-1.723-.544l-.295.516A3.238,3.238,0,0,0,17.256,2.432Zm5.529-.811a1.083,1.083,0,0,1-.719.249.776.776,0,0,1-.839-.885V-1.909H22.7v-.553H21.228v-1.06h-.654v1.06h-.866v.553h.866v2.93a1.284,1.284,0,0,0,1.419,1.41,1.558,1.558,0,0,0,1.023-.341ZM23.753.174h2.414V-.4H23.753ZM30.129-2.5a2.117,2.117,0,0,0-1.843.958V-4.452h-.654V2.386h.627V1.427a2.1,2.1,0,0,0,1.871,1,2.352,2.352,0,0,0,2.414-2.47A2.345,2.345,0,0,0,30.129-2.5Zm-.046,4.349A1.775,1.775,0,0,1,28.277-.038a1.775,1.775,0,0,1,1.806-1.889A1.78,1.78,0,0,1,31.889-.038,1.78,1.78,0,0,1,30.083,1.851Zm7.51-4.313V.082a1.576,1.576,0,0,1-1.649,1.76A1.357,1.357,0,0,1,34.488.284V-2.462h-.654V.349a1.878,1.878,0,0,0,2.046,2.083A1.928,1.928,0,0,0,37.621,1.5v.885h.627V-2.462Zm2.82-1.06A.47.47,0,0,0,40.892-4a.465.465,0,0,0-.479-.452.472.472,0,0,0-.479.461A.474.474,0,0,0,40.413-3.521Zm-.332,5.907h.654V-2.462h-.654Zm2.479,0h.654V-4.452H42.56Zm6.248-6.838V-1.54A2.117,2.117,0,0,0,46.965-2.5a2.345,2.345,0,0,0-2.414,2.46,2.352,2.352,0,0,0,2.414,2.47,2.1,2.1,0,0,0,1.871-1v.958h.627V-4.452Zm-1.788,6.3A1.775,1.775,0,0,1,45.214-.038,1.775,1.775,0,0,1,47.02-1.927a1.773,1.773,0,0,1,1.8,1.889A1.773,1.773,0,0,1,47.02,1.851Zm4.6-5.372A.47.47,0,0,0,52.1-4a.465.465,0,0,0-.479-.452.472.472,0,0,0-.479.461A.474.474,0,0,0,51.619-3.521Zm-.332,5.907h.654V-2.462h-.654ZM56.235-2.5a2.037,2.037,0,0,0-1.843.931v-.894h-.627V2.386h.654V-.158a1.589,1.589,0,0,1,1.7-1.751A1.353,1.353,0,0,1,57.571-.361V2.386h.654V-.425A1.855,1.855,0,0,0,56.235-2.5Zm7.648.037v.931A2.187,2.187,0,0,0,61.967-2.5,2.3,2.3,0,0,0,59.534-.158,2.319,2.319,0,0,0,61.967,2.2a2.181,2.181,0,0,0,1.889-.94v.617c0,1.2-.562,1.76-1.788,1.76a2.885,2.885,0,0,1-1.907-.663l-.332.5a3.38,3.38,0,0,0,2.258.746A2.126,2.126,0,0,0,64.51,1.8V-2.462ZM62.032,1.621A1.733,1.733,0,0,1,60.2-.158a1.725,1.725,0,0,1,1.834-1.769A1.733,1.733,0,0,1,63.875-.158,1.74,1.74,0,0,1,62.032,1.621Zm8.026.811c1.262,0,2-.544,2-1.382,0-1.861-3.142-.875-3.142-2.184,0-.461.387-.8,1.262-.8a2.484,2.484,0,0,1,1.428.415l.286-.525A3.285,3.285,0,0,0,70.178-2.5c-1.235,0-1.917.59-1.917,1.382C68.261.8,71.4-.195,71.4,1.068c0,.479-.378.792-1.3.792a2.928,2.928,0,0,1-1.723-.544l-.295.516A3.238,3.238,0,0,0,70.058,2.432Zm5.529-.811a1.083,1.083,0,0,1-.719.249.776.776,0,0,1-.839-.885V-1.909H75.5v-.553H74.029v-1.06h-.654v1.06h-.866v.553h.866v2.93a1.284,1.284,0,0,0,1.419,1.41,1.558,1.558,0,0,0,1.023-.341Zm2.046-3.133v-.949h-.627V2.386h.654V-.084a1.568,1.568,0,0,1,1.631-1.788c.046,0,.1.009.157.009V-2.5A1.828,1.828,0,0,0,77.632-1.512ZM82.314-2.5a3.078,3.078,0,0,0-1.972.654l.295.488a2.469,2.469,0,0,1,1.613-.571c.9,0,1.373.452,1.373,1.281v.295H82.083c-1.391,0-1.871.627-1.871,1.373,0,.839.673,1.41,1.769,1.41a1.82,1.82,0,0,0,1.668-.8v.756h.627v-3A1.722,1.722,0,0,0,82.314-2.5Zm-.23,4.414c-.774,0-1.226-.35-1.226-.912,0-.5.3-.866,1.244-.866h1.52V.93A1.551,1.551,0,0,1,82.083,1.916Zm6.294-.295a1.083,1.083,0,0,1-.719.249A.776.776,0,0,1,86.82.985V-1.909h1.474v-.553H86.82v-1.06h-.654v1.06H85.3v.553h.866v2.93a1.284,1.284,0,0,0,1.419,1.41,1.558,1.558,0,0,0,1.023-.341ZM93.851-.038A2.31,2.31,0,0,0,91.5-2.5a2.334,2.334,0,0,0-2.368,2.46,2.4,2.4,0,0,0,2.543,2.47,2.386,2.386,0,0,0,1.871-.792l-.369-.424a1.911,1.911,0,0,1-1.484.636A1.794,1.794,0,0,1,89.787.165h4.055C93.842.091,93.851.017,93.851-.038Zm-2.35-1.9A1.686,1.686,0,0,1,93.224-.324H89.787A1.684,1.684,0,0,1,91.5-1.936Zm7.547-.525v.931A2.187,2.187,0,0,0,97.131-2.5,2.3,2.3,0,0,0,94.7-.158,2.319,2.319,0,0,0,97.131,2.2a2.181,2.181,0,0,0,1.889-.94v.617c0,1.2-.562,1.76-1.788,1.76a2.885,2.885,0,0,1-1.908-.663l-.332.5a3.38,3.38,0,0,0,2.258.746A2.126,2.126,0,0,0,99.675,1.8V-2.462ZM97.2,1.621A1.733,1.733,0,0,1,95.362-.158,1.725,1.725,0,0,1,97.2-1.927,1.733,1.733,0,0,1,99.039-.158,1.74,1.74,0,0,1,97.2,1.621Zm4.644-5.142A.47.47,0,0,0,102.319-4a.465.465,0,0,0-.479-.452.472.472,0,0,0-.479.461A.474.474,0,0,0,101.84-3.521Zm-.332,5.907h.654V-2.462h-.654Zm6.708-2.424a2.31,2.31,0,0,0-2.35-2.46A2.334,2.334,0,0,0,103.5-.038a2.4,2.4,0,0,0,2.543,2.47,2.386,2.386,0,0,0,1.871-.792l-.369-.424a1.911,1.911,0,0,1-1.484.636A1.794,1.794,0,0,1,104.153.165h4.055C108.208.091,108.217.017,108.217-.038Zm-2.35-1.9A1.686,1.686,0,0,1,107.59-.324h-3.437A1.684,1.684,0,0,1,105.867-1.936Zm4.985,4.368c1.262,0,2-.544,2-1.382,0-1.861-3.142-.875-3.142-2.184,0-.461.387-.8,1.262-.8a2.484,2.484,0,0,1,1.428.415l.286-.525a3.285,3.285,0,0,0-1.714-.452c-1.235,0-1.917.59-1.917,1.382,0,1.917,3.142.921,3.142,2.184,0,.479-.378.792-1.3.792a2.928,2.928,0,0,1-1.723-.544l-.295.516A3.238,3.238,0,0,0,110.852,2.432Z" transform="translate(47.478 54.71)" fill="#fff"/>
    </g>
  </g>
</svg>
