<svg id="designtools_twotone" data-name="designtools/twotone" xmlns="http://www.w3.org/2000/svg" width="48" height="48" viewBox="0 0 48 48">
  <g id="vuesax_twotone_designtools" data-name="vuesax/twotone/designtools">
    <g id="designtools">
      <path id="Vector" d="M16.89,8.128a8.34,8.34,0,0,1-2.42,5.9,8.311,8.311,0,0,1-4.86,2.32l-4.92.54a4.228,4.228,0,0,1-4.66-4.7l.54-4.92A8.154,8.154,0,0,1,8.59.008a11.912,11.912,0,0,1,1.2.02,8.05,8.05,0,0,1,4.72,2.38,7.832,7.832,0,0,1,2.32,4.58C16.85,7.368,16.89,7.748,16.89,8.128Z" transform="translate(3.97 27.112)" fill="none" stroke="#292d32" stroke-linecap="round" stroke-linejoin="round" stroke-width="2.5"/>
      <g id="Group_623" data-name="Group 623" transform="translate(12.539 4.02)" opacity="0.4">
        <path id="Vector-2" data-name="Vector" d="M31.08,3.86C28,11.54,20.28,21.98,13.82,27.16L9.88,30.32a7.176,7.176,0,0,1-1.56.9,7.457,7.457,0,0,0-.08-1.14A7.832,7.832,0,0,0,5.92,25.5,8.167,8.167,0,0,0,1.2,23.12,8.014,8.014,0,0,0,0,23.1a5.228,5.228,0,0,1,.98-1.68L4.1,17.48C9.26,11.02,19.74,3.26,27.4.2a2.8,2.8,0,0,1,3.04.62A2.716,2.716,0,0,1,31.08,3.86Z" transform="translate(0 0)" fill="none" stroke="#292d32" stroke-linecap="round" stroke-linejoin="round" stroke-width="2.5"/>
        <path id="Vector-3" data-name="Vector" d="M9.46,9.46A9.466,9.466,0,0,0,0,0" transform="translate(6.48 15.461)" fill="none" stroke="#292d32" stroke-linecap="round" stroke-linejoin="round" stroke-width="2.5"/>
      </g>
      <path id="Vector-4" data-name="Vector" d="M13.3,0l1.48,1.46c2.98,2.98,2.98,5.92,0,8.9L8.86,16.28c-2.94,2.94-5.92,2.94-8.86,0" transform="translate(26.94 25.46)" fill="none" stroke="#292d32" stroke-linecap="round" stroke-width="2.5"/>
      <path id="Vector-5" data-name="Vector" d="M2.2,17.025c-2.94-2.98-2.94-5.92,0-8.9L8.125,2.2c2.94-2.94,5.92-2.94,8.86,0l1.48,1.48" transform="translate(4.015 3.995)" fill="none" stroke="#292d32" stroke-linecap="round" stroke-width="2.5"/>
      <path id="Vector-6" data-name="Vector" d="M7.4,0,0,7.4" transform="translate(15.1 7.7)" fill="none" stroke="#292d32" stroke-linecap="round" stroke-width="2.5" opacity="0.4"/>
      <path id="Vector-7" data-name="Vector" d="M5.92,0,0,5.9" transform="translate(34.32 25.46)" fill="none" stroke="#292d32" stroke-linecap="round" stroke-width="2.5" opacity="0.4"/>
      <path id="Vector-8" data-name="Vector" d="M0,0H48V48H0Z" fill="none" opacity="0"/>
    </g>
  </g>
</svg>
