<svg id="eye_finger-cricle_twotone" data-name="eye/finger-cricle/twotone" xmlns="http://www.w3.org/2000/svg" width="48" height="48" viewBox="0 0 48 48">
  <g id="vuesax_twotone_finger-cricle" data-name="vuesax/twotone/finger-cricle">
    <g id="finger-cricle">
      <path id="Vector" d="M40,20A20,20,0,1,1,20,0,20,20,0,0,1,40,20Z" transform="translate(4 4)" fill="none" stroke="#292d32" stroke-linecap="round" stroke-linejoin="round" stroke-width="2.5"/>
      <path id="Vector-2" data-name="Vector" d="M3.3,11.54A3.3,3.3,0,0,1,0,8.24V3.3a3.3,3.3,0,1,1,6.6,0V8.24A3.3,3.3,0,0,1,3.3,11.54Z" transform="translate(20.7 18.22)" fill="none" stroke="#292d32" stroke-linecap="round" stroke-width="2.5" opacity="0.4"/>
      <path id="Vector-3" data-name="Vector" d="M19.96,15.08A10,10,0,0,1,0,14.28V10A10,10,0,0,1,19.94,8.98" transform="translate(14 11.86)" fill="none" stroke="#292d32" stroke-linecap="round" stroke-width="2.5" opacity="0.4"/>
      <path id="Vector-4" data-name="Vector" d="M0,0H48V48H0Z" transform="translate(48 48) rotate(180)" fill="none" opacity="0"/>
    </g>
  </g>
</svg>
