<svg xmlns="http://www.w3.org/2000/svg" width="517.824" height="410" viewBox="0 0 517.824 410">
  <g id="Integration" transform="translate(-23.789 -79.067)">
    <g id="EXPLORER" transform="translate(112.875 91.218)">
      <g id="Group_56286" data-name="Group 56286">
        <path id="Path_117131" data-name="Path 117131" d="M158.516,358.376a37.84,37.84,0,0,1-37.8-37.8V130.086a37.841,37.841,0,0,1,37.8-37.8H412.473a37.84,37.84,0,0,1,37.8,37.8V320.578a37.84,37.84,0,0,1-37.8,37.8H158.516Z" transform="translate(-120.718 -92.287)" fill="#fff" stroke="#262424" stroke-linecap="round" stroke-linejoin="round" stroke-width="2"/>
        <path id="Path_117132" data-name="Path 117132" d="M227.9,130.9h-71.2a6.989,6.989,0,0,1-6.989-6.989h0a6.989,6.989,0,0,1,6.989-6.989h71.2a6.989,6.989,0,0,1,6.989,6.989h0A6.989,6.989,0,0,1,227.9,130.9Z" transform="translate(-123.064 -94.281)" fill="#707070"/>
        <path id="Path_117133" data-name="Path 117133" d="M442.063,130.9h0a6.989,6.989,0,0,1-6.989-6.989h0a6.989,6.989,0,0,1,6.989-6.989h0a6.989,6.989,0,0,1,6.989,6.989h0A6.989,6.989,0,0,1,442.063,130.9Z" transform="translate(-146.153 -94.281)"/>
        <path id="Path_117134" data-name="Path 117134" d="M399.766,130.9h0a6.989,6.989,0,0,1-6.989-6.989h0a6.989,6.989,0,0,1,6.989-6.989h0a6.989,6.989,0,0,1,6.989,6.989h0A6.989,6.989,0,0,1,399.766,130.9Z" transform="translate(-142.73 -94.281)"/>
        <path id="Path_117135" data-name="Path 117135" d="M357.469,130.9h0a6.989,6.989,0,0,1-6.989-6.989h0a6.989,6.989,0,0,1,6.989-6.989h0a6.989,6.989,0,0,1,6.989,6.989h0A6.989,6.989,0,0,1,357.469,130.9Z" transform="translate(-139.308 -94.281)"/>
        <path id="Path_117136" data-name="Path 117136" d="M203.924,365.8h-42.08" transform="translate(-124.045 -114.418)" fill="none" stroke="#262424" stroke-linecap="round" stroke-linejoin="round" stroke-width="2"/>
        <path id="Path_117137" data-name="Path 117137" d="M443.782,157.447v168.4a23.119,23.119,0,0,1-23.092,23.093H222.271" transform="translate(-128.935 -97.56)" fill="none" stroke="#262424" stroke-linecap="round" stroke-linejoin="round" stroke-width="2"/>
        <path id="Path_117138" data-name="Path 117138" d="M414.819,336.014H160.862a11.144,11.144,0,0,1-11.144-11.144v-168.4a11.144,11.144,0,0,1,11.144-11.144H414.819a11.144,11.144,0,0,1,11.144,11.144v168.4A11.144,11.144,0,0,1,414.819,336.014Z" transform="translate(-123.064 -96.578)" fill="#707070"/>
      </g>
    </g>
    <g id="TABLE" transform="translate(347.186 172.607)">
      <g id="Group_56288" data-name="Group 56288">
        <path id="Path_117139" data-name="Path 117139" d="M428.767,291.937H410.141a6.716,6.716,0,0,1-6.716-6.716h0a6.716,6.716,0,0,1,6.716-6.716h18.626a6.716,6.716,0,0,1,6.716,6.716h0A6.716,6.716,0,0,1,428.767,291.937Z" transform="translate(-377.903 -188.744)" fill="#fff" stroke="#262424" stroke-linecap="round" stroke-linejoin="round" stroke-width="2"/>
        <path id="Path_117140" data-name="Path 117140" d="M426.52,317.606H382.372a6.716,6.716,0,0,1-6.716-6.716h0a6.716,6.716,0,0,1,6.716-6.716H426.52a6.716,6.716,0,0,1,6.716,6.716h0A6.715,6.715,0,0,1,426.52,317.606Z" transform="translate(-375.656 -190.821)" fill="#fff" stroke="#262424" stroke-linecap="round" stroke-linejoin="round" stroke-width="2"/>
        <g id="Group_56287" data-name="Group 56287" transform="translate(16.832)">
          <path id="Path_117141" data-name="Path 117141" d="M428.989,252.253H397.983a4.013,4.013,0,0,1-4.013-4.013V184.855a4.013,4.013,0,0,1,4.013-4.013h31.006A4.013,4.013,0,0,1,433,184.855V248.24A4.013,4.013,0,0,1,428.989,252.253Z" transform="translate(-393.97 -180.842)" fill="#fff" stroke="#262424" stroke-linecap="round" stroke-linejoin="round" stroke-width="2"/>
          <path id="Path_117142" data-name="Path 117142" d="M421.064,198.313H407.438a4.013,4.013,0,0,1-4.013-4.013h0a4.013,4.013,0,0,1,4.013-4.013h13.626a4.013,4.013,0,0,1,4.013,4.013h0A4.014,4.014,0,0,1,421.064,198.313Z" transform="translate(-394.735 -181.606)" fill="#707070"/>
          <path id="Path_117143" data-name="Path 117143" d="M421.064,215.422H407.438a4.013,4.013,0,0,1-4.013-4.013h0a4.013,4.013,0,0,1,4.013-4.013h13.626a4.013,4.013,0,0,1,4.013,4.013h0A4.014,4.014,0,0,1,421.064,215.422Z" transform="translate(-394.735 -182.991)" fill="#707070"/>
          <circle id="Ellipse_9969" data-name="Ellipse 9969" cx="10.826" cy="10.826" r="10.826" transform="translate(8.69 41.608)"/>
        </g>
      </g>
    </g>
    <g id="INTEGRATION_4" transform="translate(331.608 79.067)">
      <g id="Group_56291" data-name="Group 56291">
        <g id="Group_56289" data-name="Group 56289" transform="translate(0 22.313)">
          <path id="Path_117144" data-name="Path 117144" d="M364.982,179.474,433.759,110.7h62.365a3.676,3.676,0,0,0,0-7.353H432.236a3.7,3.7,0,0,0-2.6,1.077l-69.853,69.854a3.676,3.676,0,0,0,5.2,5.2Z" transform="translate(-358.707 -103.344)" fill="#fff" stroke="#262424" stroke-linecap="round" stroke-linejoin="round" stroke-width="2"/>
        </g>
        <g id="Group_56290" data-name="Group 56290" transform="translate(147.928)">
          <circle id="Ellipse_9970" data-name="Ellipse 9970" cx="25.989" cy="25.989" r="25.989" fill="#707070"/>
          <circle id="Ellipse_9971" data-name="Ellipse 9971" cx="13.038" cy="13.038" r="13.038" transform="translate(12.951 12.951)" fill="#fff" stroke="#262424" stroke-linecap="round" stroke-linejoin="round" stroke-width="2"/>
        </g>
      </g>
    </g>
    <g id="INTEGRATION_3" transform="translate(23.789 79.067)">
      <g id="Group_56294" data-name="Group 56294">
        <g id="Group_56292" data-name="Group 56292" transform="translate(58.813 22.313)">
          <path id="Path_117145" data-name="Path 117145" d="M222.6,179.474,153.82,110.7H91.456a3.676,3.676,0,0,1,0-7.353h63.887a3.7,3.7,0,0,1,2.6,1.077L227.8,174.275a3.676,3.676,0,0,1-5.2,5.2Z" transform="translate(-87.779 -103.344)" fill="#fff" stroke="#262424" stroke-linecap="round" stroke-linejoin="round" stroke-width="2"/>
        </g>
        <g id="Group_56293" data-name="Group 56293">
          <circle id="Ellipse_9972" data-name="Ellipse 9972" cx="25.989" cy="25.989" r="25.989" fill="#707070"/>
        </g>
        <path id="Path_117146" data-name="Path 117146" d="M64.3,109.524,54.246,119.576a4.951,4.951,0,0,1-7,0L37.193,109.524a4.951,4.951,0,0,1,0-7L47.245,92.471a4.951,4.951,0,0,1,7,0L64.3,102.523A4.951,4.951,0,0,1,64.3,109.524Z" transform="translate(-24.756 -80.034)" fill="#fff" stroke="#262424" stroke-linecap="round" stroke-linejoin="round" stroke-width="2"/>
      </g>
    </g>
    <g id="INTEGRATION_2" transform="translate(23.789 287.678)">
      <g id="Group_56298" data-name="Group 56298">
        <g id="Group_56295" data-name="Group 56295" transform="translate(58.813)">
          <path id="Path_117147" data-name="Path 117147" d="M222.6,307.119,153.82,375.9H91.456a3.676,3.676,0,0,0,0,7.353h63.887a3.7,3.7,0,0,0,2.6-1.077L227.8,312.318a3.676,3.676,0,0,0-5.2-5.2Z" transform="translate(-87.779 -306.042)" fill="#fff" stroke="#262424" stroke-linecap="round" stroke-linejoin="round" stroke-width="2"/>
        </g>
        <g id="Group_56297" data-name="Group 56297" transform="translate(0 47.54)">
          <g id="Group_56296" data-name="Group 56296">
            <circle id="Ellipse_9973" data-name="Ellipse 9973" cx="25.989" cy="25.989" r="25.989" fill="#707070"/>
          </g>
          <path id="Path_117148" data-name="Path 117148" d="M38.947,380.683v8.4a4.781,4.781,0,0,0,2.39,4.14l7.277,4.2a4.781,4.781,0,0,0,4.781,0l7.277-4.2a4.781,4.781,0,0,0,2.39-4.14v-8.4a4.781,4.781,0,0,0-2.39-4.14l-7.277-4.2a4.781,4.781,0,0,0-4.781,0l-7.277,4.2A4.781,4.781,0,0,0,38.947,380.683Z" transform="translate(-25.016 -358.895)" fill="#fff" stroke="#262424" stroke-linecap="round" stroke-linejoin="round" stroke-width="2"/>
        </g>
      </g>
    </g>
    <g id="GEAR" transform="translate(210.25 165.731)">
      <g id="Group_56299" data-name="Group 56299" transform="translate(0 0)">
        <path id="Path_117149" data-name="Path 117149" d="M283.748,320.005q-.414-.079-.826-.163l-6.859-1.392m98.173-81.739a77.081,77.081,0,0,1-1.088,23.194l-1.391,6.866-15.243,1.042q-.39.991-.816,1.968l10.044,11.527-3.884,5.84a76.371,76.371,0,0,1-21.4,21.406l-5.843,3.885-11.52-10.048q-.976.424-1.967.816l-1.052,15.243-6.858,1.392a76.266,76.266,0,0,1-15.147,1.508,77.089,77.089,0,0,1-9.11-.539m82.8-98.062,1.392,6.858" transform="translate(-230.662 -177.356)" fill="none" stroke="#262424" stroke-linecap="round" stroke-linejoin="round" stroke-width="2"/>
        <path id="Path_117150" data-name="Path 117150" d="M360.144,254.084a67.711,67.711,0,0,0,0-26.644l-14.375-.993a53.7,53.7,0,0,0-5.027-12.123l9.467-10.864a67.6,67.6,0,0,0-18.841-18.841L320.5,194.085a53.7,53.7,0,0,0-12.123-5.027l-.993-14.375a67.666,67.666,0,0,0-26.635,0l-.993,14.375a53.526,53.526,0,0,0-12.123,5.027l-10.864-9.467a67.515,67.515,0,0,0-18.851,18.841l9.476,10.864a52.873,52.873,0,0,0-5.027,12.123l-14.384.993a67.711,67.711,0,0,0,0,26.644l14.384.983A52.945,52.945,0,0,0,247.4,267.2l-9.476,10.864A67.6,67.6,0,0,0,256.765,296.9l10.873-9.476a52.7,52.7,0,0,0,12.123,5.027l.993,14.384a67.666,67.666,0,0,0,26.635,0l.993-14.384a52.873,52.873,0,0,0,12.123-5.027l10.864,9.476a67.6,67.6,0,0,0,18.841-18.841L340.742,267.2a53.774,53.774,0,0,0,5.027-12.132ZM294.071,258.7A17.936,17.936,0,1,1,312,240.757,17.941,17.941,0,0,1,294.071,258.7Z" transform="translate(-226.665 -173.36)"/>
        <circle id="Ellipse_9974" data-name="Ellipse 9974" cx="7.642" cy="7.642" r="7.642" transform="translate(59.76 59.76)" fill="#fff" stroke="#262424" stroke-linecap="round" stroke-linejoin="round" stroke-width="2"/>
      </g>
    </g>
    <g id="INTEGRATION_1" transform="translate(23.789 207.143)">
      <g id="Group_56302" data-name="Group 56302" transform="translate(0 0)">
        <g id="Group_56301" data-name="Group 56301">
          <g id="Group_56300" data-name="Group 56300">
            <circle id="Ellipse_9975" data-name="Ellipse 9975" cx="25.989" cy="25.989" r="25.989"/>
          </g>
          <path id="Path_117151" data-name="Path 117151" d="M58.112,257.692H43.9a4.951,4.951,0,0,1-4.951-4.951V238.526a4.951,4.951,0,0,1,4.951-4.951H58.112a4.951,4.951,0,0,1,4.951,4.951v14.215A4.951,4.951,0,0,1,58.112,257.692Z" transform="translate(-25.016 -219.644)" fill="#fff" stroke="#262424" stroke-linecap="round" stroke-linejoin="round" stroke-width="2"/>
        </g>
        <path id="Path_117152" data-name="Path 117152" d="M193.734,250.048H91.456a3.676,3.676,0,0,1-3.676-3.676h0a3.676,3.676,0,0,1,3.676-3.676H193.735a3.676,3.676,0,0,1,3.676,3.676h0A3.677,3.677,0,0,1,193.734,250.048Z" transform="translate(-28.967 -220.382)" fill="#fff" stroke="#262424" stroke-linecap="round" stroke-linejoin="round" stroke-width="2"/>
      </g>
    </g>
    <g id="ORNAMENT" transform="translate(45.154 163.312)">
      <g id="Group_56303" data-name="Group 56303">
        <path id="Path_117153" data-name="Path 117153" d="M314.217,479.23a11.889,11.889,0,0,0-11.886,11.886,11.889,11.889,0,0,0-11.886-11.886,11.889,11.889,0,0,0,11.886-11.886,11.889,11.889,0,0,0,11.886,11.886Z" transform="translate(-66.729 -194.728)"/>
        <path id="Path_117154" data-name="Path 117154" d="M549.682,203.509A11.889,11.889,0,0,0,537.8,215.394a11.889,11.889,0,0,0-11.886-11.886A11.889,11.889,0,0,0,537.8,191.623a11.889,11.889,0,0,0,11.886,11.886Z" transform="translate(-85.781 -172.419)" fill="#707070"/>
        <path id="Path_117155" data-name="Path 117155" d="M81.96,443.557a6.322,6.322,0,0,0-6.321,6.321,6.322,6.322,0,0,0-6.321-6.321,6.322,6.322,0,0,0,6.321-6.321,6.322,6.322,0,0,0,6.321,6.321Z" transform="translate(-48.838 -192.292)"/>
        <path id="Path_117156" data-name="Path 117156" d="M92.869,180.024a9.3,9.3,0,0,0-9.3,9.3,9.3,9.3,0,0,0-9.3-9.3,9.3,9.3,0,0,0,9.3-9.3,9.3,9.3,0,0,0,9.3,9.3Z" transform="translate(-49.239 -170.729)" fill="#707070"/>
        <path id="Path_117157" data-name="Path 117157" d="M271.281,431.358a5.944,5.944,0,0,0-5.943,5.943,5.944,5.944,0,0,0-5.943-5.943,5.944,5.944,0,0,0,5.943-5.943,5.944,5.944,0,0,0,5.943,5.943Z" transform="translate(-64.217 -191.335)" fill="#707070"/>
        <path id="Path_117158" data-name="Path 117158" d="M56.284,309.558a4.626,4.626,0,0,0-4.625,4.625,4.626,4.626,0,0,0-4.625-4.625,4.626,4.626,0,0,0,4.625-4.625,4.626,4.626,0,0,0,4.625,4.625Z" transform="translate(-47.034 -181.587)"/>
        <circle id="Ellipse_9976" data-name="Ellipse 9976" cx="3.566" cy="3.566" r="3.566" transform="translate(282.805 235.965)" fill="#707070"/>
        <circle id="Ellipse_9977" data-name="Ellipse 9977" cx="2.91" cy="2.91" r="2.91" transform="translate(461.422 105.756)"/>
      </g>
    </g>
    <g id="LEFT_UPPER_ARM" transform="translate(472.949 294.33)">
      <g id="Group_56304" data-name="Group 56304">
        <path id="Path_117159" data-name="Path 117159" d="M528.392,313.306c13.272.565,38.632,44.149,49.826,64.618a15.308,15.308,0,0,1-2.879,18.427h0a15.316,15.316,0,0,1-22.616-1.635l-36.049-45.953S501.7,312.169,528.392,313.306Z" transform="translate(-512.49 -313.28)"/>
      </g>
    </g>
    <g id="RIGHT_UPPER_ARM" transform="translate(375.546 292.676)">
      <path id="Path_117160" data-name="Path 117160" d="M445.481,312.5c-16.615,5.058-38.539,89.88-38.539,89.88-4.077,22.831,21.967,25.771,28.6,10.478L465.7,343.9S471.036,304.724,445.481,312.5Z" transform="translate(-406.512 -311.481)"/>
    </g>
    <g id="RIGHT_ARM" transform="translate(375.977 373.072)">
      <path id="Path_117161" data-name="Path 117161" d="M406.981,409.461l1.164,55.786h24.716l2.717-45.309C439.43,395.7,411.633,392.806,406.981,409.461Z" transform="translate(-406.981 -398.955)"/>
    </g>
    <g id="RIGHT_THIGH" transform="translate(337.829 416.12)">
      <g id="Group_56305" data-name="Group 56305">
        <path id="Path_117162" data-name="Path 117162" d="M440.6,449.286l-64.083,29.62a19.029,19.029,0,0,0-11.045,17.274h0a19.029,19.029,0,0,0,23.268,18.551L482.1,493.4V445.792H440.167Z" transform="translate(-365.475 -445.792)" fill="#707070"/>
        <path id="Path_117163" data-name="Path 117163" d="M482.861,445.792v15.259A8.541,8.541,0,0,0,486.439,468l5.158,3.683v17.24" transform="translate(-374.973 -445.792)" fill="none" stroke="#262424" stroke-linecap="round" stroke-linejoin="round" stroke-width="2"/>
        <path id="Path_117164" data-name="Path 117164" d="M398.505,480.64,454.633,455.1v-7.644" transform="translate(-368.148 -445.927)" fill="none" stroke="#262424" stroke-linecap="round" stroke-linejoin="round" stroke-width="2"/>
      </g>
    </g>
    <g id="BODY" transform="translate(401.857 278.187)">
      <g id="Group_56307" data-name="Group 56307">
        <path id="Path_117165" data-name="Path 117165" d="M522.134,313.038s-19.974-5.824-70.979-1.435c0,0-9.282,14.553-11.575,47.313-2.565,36.644-4.44,83.1-4.44,83.1H532.55S537.811,384.737,522.134,313.038Z" transform="translate(-435.139 -296.869)"/>
        <path id="Path_117166" data-name="Path 117166" d="M449.565,315.51c-2.819,6.049-8.115,20.21-9.77,43.854-.727,10.382-1.4,21.551-1.987,32.228" transform="translate(-435.355 -297.318)" fill="none" stroke="#262424" stroke-linecap="round" stroke-linejoin="round" stroke-width="2"/>
        <path id="Path_117167" data-name="Path 117167" d="M538.149,364.588a488.979,488.979,0,0,0-7.881-49.078" transform="translate(-442.836 -297.318)" fill="none" stroke="#262424" stroke-linecap="round" stroke-linejoin="round" stroke-width="2"/>
        <g id="Group_56306" data-name="Group 56306" transform="translate(34.24)">
          <path id="Path_117168" data-name="Path 117168" d="M506.018,312.673a21.479,21.479,0,0,1-13.549,12.154,79.844,79.844,0,0,0-3.793-12.515,32.471,32.471,0,0,0-5.129,12.453,15.376,15.376,0,0,1-11.153-12.377c1.223-9.645,9.517-16.907,16.636-16.665C504.762,296.257,506.018,312.673,506.018,312.673Z" transform="translate(-472.394 -295.716)" fill="#fff" stroke="#262424" stroke-linecap="round" stroke-linejoin="round" stroke-width="2"/>
        </g>
      </g>
    </g>
    <g id="LEFT_THIGH" transform="translate(454.453 328.87)">
      <g id="Group_56308" data-name="Group 56308">
        <path id="Path_117169" data-name="Path 117169" d="M492.366,485.722H511.1a25.994,25.994,0,0,0,25.826-23.046l10.436-91.407a18.328,18.328,0,0,0-18.21-20.408h0a18.328,18.328,0,0,0-17.743,13.732l-19.047,80.892v40.237Z" transform="translate(-492.366 -350.861)" fill="#707070"/>
        <line id="Line_17" data-name="Line 17" y2="32.806" transform="translate(0 98.088)" fill="none" stroke="#262424" stroke-linecap="round" stroke-linejoin="round" stroke-width="2"/>
      </g>
    </g>
    <g id="RIGHT_CALF" transform="translate(337.833 449.944)">
      <g id="Group_56310" data-name="Group 56310">
        <path id="Path_117170" data-name="Path 117170" d="M505.277,497.292v11.265l-26.208,2.712V496Z" transform="translate(-374.67 -483.678)" fill="#fff" stroke="#262424" stroke-linecap="round" stroke-linejoin="round" stroke-width="2"/>
        <g id="Group_56309" data-name="Group 56309" transform="translate(125.245 1.213)">
          <path id="Path_117171" data-name="Path 117171" d="M501.751,513.371V491.693l35.354-5.4V517.52Z" transform="translate(-501.751 -484.105)" fill="#707070"/>
          <path id="Path_117172" data-name="Path 117172" d="M501.751,513.371V491.693l35.354-5.4V517.52Z" transform="translate(-501.751 -484.105)" fill="none" stroke="#262424" stroke-linecap="round" stroke-linejoin="round" stroke-width="2"/>
          <line id="Line_18" data-name="Line 18" x2="17.691" transform="translate(4.396 22.604)" fill="none" stroke="#262424" stroke-linecap="round" stroke-linejoin="round" stroke-width="2"/>
          <line id="Line_19" data-name="Line 19" x2="17.691" transform="translate(4.396 14.25)" fill="none" stroke="#262424" stroke-linecap="round" stroke-linejoin="round" stroke-width="2"/>
          <path id="Path_117173" data-name="Path 117173" d="M520.984,501.838h0a17.925,17.925,0,0,0,17.925,17.925h2.268v-35.85h-2.268A17.925,17.925,0,0,0,520.984,501.838Z" transform="translate(-503.307 -483.913)" fill="#fff" stroke="#262424" stroke-linecap="round" stroke-linejoin="round" stroke-width="2"/>
        </g>
        <path id="Path_117174" data-name="Path 117174" d="M472.269,490.265V514.51l-86.817,3.8a19.015,19.015,0,0,1-19.705-16.81l-.267-2.344V497.3a14.727,14.727,0,0,1,15.928-14.65Z" transform="translate(-365.48 -482.594)" fill="#707070"/>
        <path id="Path_117175" data-name="Path 117175" d="M389.652,500.8a14.125,14.125,0,0,1-14.126,14.126,13.369,13.369,0,0,1-2.518-.23,18.912,18.912,0,0,1-7.261-12.858l-.267-2.344v-1.866a14.536,14.536,0,0,1,3.272-9.228,13.953,13.953,0,0,1,6.774-1.737A14.133,14.133,0,0,1,389.652,500.8Z" transform="translate(-365.48 -482.923)" fill="#fff"/>
        <path id="Path_117176" data-name="Path 117176" d="M381.44,518.068a19.031,19.031,0,0,1-15.694-16.563l-.267-2.344V497.3a14.727,14.727,0,0,1,15.928-14.65l90.861,7.619" transform="translate(-365.48 -482.594)" fill="none" stroke="#262424" stroke-linecap="round" stroke-linejoin="round" stroke-width="2"/>
        <line id="Line_20" data-name="Line 20" y2="19.656" transform="translate(99.749 9.31)" fill="none" stroke="#262424" stroke-linecap="round" stroke-linejoin="round" stroke-width="2"/>
      </g>
    </g>
    <g id="LEFT_CALF" transform="translate(473.834 328.421)">
      <g id="Group_56313" data-name="Group 56313">
        <g id="Group_56311" data-name="Group 56311">
          <path id="Path_117177" data-name="Path 117177" d="M540.819,486.97H529.553l-2.712-26.208h15.27Z" transform="translate(-514.536 -359.304)" fill="#fff" stroke="#262424" stroke-linecap="round" stroke-linejoin="round" stroke-width="2"/>
          <path id="Path_117178" data-name="Path 117178" d="M521.124,457.161h24.246l3.8-86.817a19.015,19.015,0,0,0-16.81-19.705l-2.344-.267h-1.866A14.727,14.727,0,0,0,513.5,366.3Z" transform="translate(-513.453 -350.372)" fill="#707070"/>
          <path id="Path_117179" data-name="Path 117179" d="M531.655,374.544a14.125,14.125,0,0,0,14.126-14.126,13.374,13.374,0,0,0-.23-2.518,18.912,18.912,0,0,0-12.858-7.261l-2.344-.267h-1.866a14.536,14.536,0,0,0-9.228,3.272,13.952,13.952,0,0,0-1.737,6.774A14.133,14.133,0,0,0,531.655,374.544Z" transform="translate(-513.782 -350.372)" fill="#fff"/>
          <path id="Path_117180" data-name="Path 117180" d="M545.222,357.9a18.912,18.912,0,0,0-12.858-7.261l-2.344-.267h-1.866A14.727,14.727,0,0,0,513.5,366.3l7.619,90.861h23.235" transform="translate(-513.453 -350.372)" fill="none" stroke="#262424" stroke-linecap="round" stroke-linejoin="round" stroke-width="2"/>
          <line id="Line_21" data-name="Line 21" x2="18.644" transform="translate(10.322 99.749)" fill="none" stroke="#262424" stroke-linecap="round" stroke-linejoin="round" stroke-width="2"/>
        </g>
        <g id="Group_56312" data-name="Group 56312" transform="translate(3.737 119.393)">
          <path id="Path_117181" data-name="Path 117181" d="M524.318,480.276H546l5.4,35.355H520.168Z" transform="translate(-517.733 -480.276)" fill="#707070"/>
          <path id="Path_117182" data-name="Path 117182" d="M524.318,480.276H546l5.4,35.355H520.168Z" transform="translate(-517.733 -480.276)" fill="none" stroke="#262424" stroke-linecap="round" stroke-linejoin="round" stroke-width="2"/>
          <line id="Line_22" data-name="Line 22" y2="17.691" transform="translate(13.246 4.396)" fill="none" stroke="#262424" stroke-linecap="round" stroke-linejoin="round" stroke-width="2"/>
          <line id="Line_23" data-name="Line 23" y2="17.691" transform="translate(21.6 4.396)" fill="none" stroke="#262424" stroke-linecap="round" stroke-linejoin="round" stroke-width="2"/>
          <path id="Path_117183" data-name="Path 117183" d="M535.444,499.509h0a17.925,17.925,0,0,0-17.925,17.925V519.7h35.85v-2.268A17.925,17.925,0,0,0,535.444,499.509Z" transform="translate(-517.519 -481.832)" fill="#fff" stroke="#262424" stroke-linecap="round" stroke-linejoin="round" stroke-width="2"/>
        </g>
      </g>
    </g>
    <g id="NECK" transform="translate(446.237 271.978)">
      <path id="Path_117184" data-name="Path 117184" d="M496.475,306.541a16.129,16.129,0,0,1-6.525,2.184,15.953,15.953,0,0,1-6.525-2.184V288.96h13.049Z" transform="translate(-483.426 -288.96)" fill="#fff" stroke="#262424" stroke-linecap="round" stroke-linejoin="round" stroke-width="2"/>
    </g>
    <g id="HEAD" transform="translate(433.166 231.491)">
      <g id="Group_56314" data-name="Group 56314">
        <path id="Path_117185" data-name="Path 117185" d="M501.22,282.067c.51-4.509,3.147-8.119,5.928-7.91a3.047,3.047,0,0,1,1.666.654c3.063,2.371-.128,14.916-8.1,11.764Z" transform="translate(-471.754 -247.275)" fill="#fff" stroke="#262424" stroke-linecap="round" stroke-linejoin="round" stroke-width="2"/>
        <path id="Path_117186" data-name="Path 117186" d="M477.946,282.067c-.51-4.509-3.147-8.119-5.928-7.91a3.047,3.047,0,0,0-1.666.654c-3.063,2.371.128,14.916,8.1,11.764Z" transform="translate(-469.205 -247.275)" fill="#fff" stroke="#262424" stroke-linecap="round" stroke-linejoin="round" stroke-width="2"/>
        <path id="Path_117187" data-name="Path 117187" d="M501.732,278.692a12.91,12.91,0,1,1-25.806,0c0-4-3.368-20.152,12.9-20.152S501.732,274.691,501.732,278.692Z" transform="translate(-469.726 -246.012)" fill="#fff" stroke="#262424" stroke-linecap="round" stroke-linejoin="round" stroke-width="2"/>
        <path id="Path_117188" data-name="Path 117188" d="M502.345,277.788l-1.265.109.811-6.115s-4.491,1-4.878-1.466c0,0-.5-2.549.465-8.056a56.163,56.163,0,0,1-9.787,1.316c-11.919,0-14.385-7.9-13.468-11.942l.018-.078c1.4-5.926,3.585-1.657,3.585-1.657s1.189-4.768,3.711-4.985,3.1,6.049,3.1,6.049,5.216-1.783,12.968.083c9.455,2.276,5.6,7.626,5.6,7.626S512.461,260.711,502.345,277.788Z" transform="translate(-469.597 -244.909)" fill="#262424"/>
        <path id="Path_117189" data-name="Path 117189" d="M477.626,256.29c-7.488,2.612-7.515,11.075-2.31,21.8H476.7l-.863-4.971s6.229-.045,3.92-11.384Z" transform="translate(-469.405 -245.83)" fill="#262424"/>
      </g>
    </g>
    <g id="LAPTOP" transform="translate(355.301 375.498)">
      <path id="Path_117190" data-name="Path 117190" d="M471.845,469.3h-80.37a6.989,6.989,0,0,1-6.989-6.989V408.582a6.989,6.989,0,0,1,6.989-6.989h80.37a6.989,6.989,0,0,1,6.989,6.989v53.726A6.989,6.989,0,0,1,471.845,469.3Z" transform="translate(-384.485 -401.594)" fill="#fff" stroke="#262424" stroke-linecap="round" stroke-linejoin="round" stroke-width="2"/>
    </g>
    <g id="LEFT_ARM" transform="translate(467.197 316.256)">
      <g id="Group_56318" data-name="Group 56318">
        <g id="Group_56316" data-name="Group 56316" transform="translate(18.832 2.508)">
          <g id="Group_56315" data-name="Group 56315" transform="translate(0.003 0.004)">
            <path id="Path_117191" data-name="Path 117191" d="M581.305,388.026v.009c.107,11.507-10.047,17.667-19.727,14.513a20.067,20.067,0,0,1-9.6-6.969c-11.962-15.266-25.257-41.346-25.257-41.346l16.447-14.363s33.948,29.05,37.432,42.914A22.158,22.158,0,0,1,581.305,388.026Z" transform="translate(-526.725 -339.87)"/>
            <path id="Path_117192" data-name="Path 117192" d="M584.209,391.889v.009c.107,11.507-10.047,17.667-19.727,14.513a12.284,12.284,0,0,1,19.727-14.522Z" transform="translate(-529.629 -343.733)" fill="#fff"/>
            <path id="Path_117193" data-name="Path 117193" d="M584.373,392.265v.009c.107,11.507-10.047,17.667-19.727,14.513" transform="translate(-529.793 -344.109)" fill="none" stroke="#262424" stroke-linecap="round" stroke-linejoin="round" stroke-width="2"/>
          </g>
          <path id="Path_117194" data-name="Path 117194" d="M568.283,364.281a303.261,303.261,0,0,0-25.108-24.415l-16.454,14.367s10.129,19.86,20.653,35.063" transform="translate(-526.721 -339.865)" fill="none" stroke="#262424" stroke-linecap="round" stroke-linejoin="round" stroke-width="2"/>
        </g>
        <g id="Group_56317" data-name="Group 56317">
          <path id="Path_117195" data-name="Path 117195" d="M540.989,344.673s-8.845-7.7-18.182-7.535c-2.953.052-12.449,7.7-14.906,11.138s-2.129,10.319.491,13.1,4.423-.983,4.423-.983-.655,4.423,6.552,5.733,11.3-3.767,11.466-9.828C530.834,356.3,540.17,357.285,540.989,344.673Z" transform="translate(-506.231 -337.136)" fill="#fff" stroke="#262424" stroke-linecap="round" stroke-linejoin="round" stroke-width="2"/>
          <path id="Path_117196" data-name="Path 117196" d="M513.277,358.123a21.812,21.812,0,0,1,.273-5.637c.555-2.406,5.182-5,5.182-5" transform="translate(-506.795 -337.974)" fill="none" stroke="#262424" stroke-linecap="round" stroke-linejoin="round" stroke-width="2"/>
        </g>
      </g>
    </g>
    <g id="PLANT" transform="translate(106.462 379.268)">
      <g id="Group_56320" data-name="Group 56320">
        <g id="Group_56319" data-name="Group 56319">
          <path id="Path_117197" data-name="Path 117197" d="M165.713,483.768s-29.9-25.515-25.633-73.338C173.209,445.182,165.713,483.768,165.713,483.768Z" transform="translate(-115.838 -406.079)" fill="#fff" stroke="#262424" stroke-linecap="round" stroke-linejoin="round" stroke-width="2"/>
          <path id="Path_117198" data-name="Path 117198" d="M163.615,484.98s-36.984-13.315-49.875-59.565C157.005,446.232,163.615,484.98,163.615,484.98Z" transform="translate(-113.74 -407.291)" fill="#707070"/>
          <path id="Path_117199" data-name="Path 117199" d="M167.942,483.768s29.9-25.515,25.633-73.338C160.445,445.182,167.942,483.768,167.942,483.768Z" transform="translate(-118.067 -406.079)" fill="#fff" stroke="#262424" stroke-linecap="round" stroke-linejoin="round" stroke-width="2"/>
          <path id="Path_117200" data-name="Path 117200" d="M168.006,484.98s36.984-13.315,49.875-59.565C174.615,446.232,168.006,484.98,168.006,484.98Z" transform="translate(-118.131 -407.291)" fill="#707070"/>
          <path id="Path_117201" data-name="Path 117201" d="M167.231,483.385s-19.808-33.952,0-77.689C187.038,449.434,167.231,483.385,167.231,483.385Z" transform="translate(-117.356 -405.696)" fill="#707070"/>
        </g>
        <path id="Path_117202" data-name="Path 117202" d="M201.216,471.084c0,33.7-18.462,49.7-18.462,49.7H146.835s-18.452-16-18.452-49.7h72.833Z" transform="translate(-114.925 -410.986)"/>
      </g>
    </g>
  </g>
</svg>
