<svg xmlns="http://www.w3.org/2000/svg" width="398" height="410" viewBox="0 0 398 410">
  <g id="Lead_Generation" data-name="Lead Generation" transform="translate(-225.86 -59)">
    <circle id="Ellipse_9984" data-name="Ellipse 9984" cx="30.452" cy="30.452" r="30.452" transform="translate(528.916 240.957)" fill="#707070"/>
    <circle id="Ellipse_9985" data-name="Ellipse 9985" cx="11.409" cy="11.409" r="11.409" transform="translate(547.958 250.855)" fill="#fff"/>
    <path id="Path_117285" data-name="Path 117285" d="M1118.716,750.48a25.656,25.656,0,0,1-41.456,0A21.8,21.8,0,0,1,1087.545,738a15.765,15.765,0,0,0,20.905,0A21.8,21.8,0,0,1,1118.716,750.48Z" transform="translate(-538.62 -463.931)" fill="#fff"/>
    <circle id="Ellipse_9986" data-name="Ellipse 9986" cx="20.702" cy="20.702" r="20.702" transform="translate(582.455 143.054)"/>
    <circle id="Ellipse_9987" data-name="Ellipse 9987" cx="7.757" cy="7.757" r="7.757" transform="translate(595.4 149.782)" fill="#fff"/>
    <path id="Path_117286" data-name="Path 117286" d="M1264.63,403.939a17.45,17.45,0,0,1-28.19,0,14.824,14.824,0,0,1,6.991-8.479,10.719,10.719,0,0,0,14.2,0A14.824,14.824,0,0,1,1264.63,403.939Z" transform="translate(-647.381 -229.888)" fill="#fff"/>
    <circle id="Ellipse_9988" data-name="Ellipse 9988" cx="30.452" cy="30.452" r="30.452" transform="translate(498.464 59)" fill="#707070"/>
    <circle id="Ellipse_9989" data-name="Ellipse 9989" cx="11.409" cy="11.409" r="11.409" transform="translate(517.507 68.898)" fill="#fff"/>
    <path id="Path_117287" data-name="Path 117287" d="M1022.576,176.05a25.656,25.656,0,0,1-41.455,0A21.8,21.8,0,0,1,991.4,163.58a15.764,15.764,0,0,0,20.905,0A21.8,21.8,0,0,1,1022.576,176.05Z" transform="translate(-472.932 -71.455)" fill="#fff"/>
    <circle id="Ellipse_9990" data-name="Ellipse 9990" cx="4.362" cy="4.362" r="4.362" transform="translate(518.596 231.059)" fill="#707070"/>
    <circle id="Ellipse_9991" data-name="Ellipse 9991" cx="2.61" cy="2.61" r="2.61" transform="translate(542.178 138.648)"/>
    <path id="Path_117288" data-name="Path 117288" d="M1238.468,218.68l.979,2.683a6.094,6.094,0,0,0,3.636,3.636l2.683.979-2.683.979a6.094,6.094,0,0,0-3.636,3.636l-.979,2.683-.979-2.683a6.094,6.094,0,0,0-3.636-3.636l-2.683-.979,2.683-.979a6.094,6.094,0,0,0,3.636-3.636Z" transform="translate(-643.78 -109.102)" fill="#707070"/>
    <path id="Path_117289" data-name="Path 117289" d="M1248.616,521l1.425,3.912a8.869,8.869,0,0,0,5.3,5.3l3.912,1.425-3.912,1.425a8.868,8.868,0,0,0-5.3,5.3l-1.425,3.912-1.425-3.912a8.868,8.868,0,0,0-5.3-5.3l-3.912-1.425,3.912-1.425a8.868,8.868,0,0,0,5.3-5.3Z" transform="translate(-648.433 -315.664)"/>
    <path id="Path_117290" data-name="Path 117290" d="M758.662,613.515a66.709,66.709,0,0,1-2.452,10.573s-3.82,1.723-9.819,4.051c-12.486,4.849-34.43,12.309-51.088,12.309-24.665,0-16.392-39.368,9.927-37.059l26.569-.95,12.416-29.026,13.005-1.552S761.747,593.332,758.662,613.515Z" transform="translate(-330.651 -350.415)"/>
    <path id="Path_117291" data-name="Path 117291" d="M861.3,683.054a.857.857,0,0,1-.532-.184l-13.259-10.4a.862.862,0,0,1,1.064-1.356l13.259,10.4a.862.862,0,0,1-.532,1.539Z" transform="translate(-444.502 -418.104)" fill="#262424"/>
    <path id="Path_117292" data-name="Path 117292" d="M900.658,703.37a66.709,66.709,0,0,1-2.452,10.573s-3.82,1.723-9.819,4.051a14.7,14.7,0,0,1,12.271-14.624Z" transform="translate(-472.647 -440.27)" fill="#fff"/>
    <path id="Path_117293" data-name="Path 117293" d="M367.72,517.189s5.872-14.345,7.13-15.771,8.809-5.2,12.249-4.529,2.6,7.551,2.518,9.395-4.026,3.858-4.026,3.858,4.615-1.343,4.951.336-8.894,5.2-8.894,5.2,4.865-.5,5.385.586-6.88,4.783-9.73,5.385S367.72,517.189,367.72,517.189Z" transform="translate(-116.909 -299.136)" fill="#fff"/>
    <path id="Path_117294" data-name="Path 117294" d="M374.964,520.647c-3.3,0-8.942-4.156-9.613-4.662a.862.862,0,0,1-.279-1.014c.991-2.417,5.993-14.57,7.285-16.015,1.466-1.66,9.277-5.543,13.059-4.8,3.852.751,3.43,6.968,3.253,9.629-.016.257-.032.478-.041.652a3.865,3.865,0,0,1-1.406,2.464,3.268,3.268,0,0,1,1.5.386,1.694,1.694,0,0,1,.811,1.137c.206,1.023-.532,2.122-4.792,4.175l-.732.352a2.428,2.428,0,0,1,1.932,1.08,1.216,1.216,0,0,1-.051,1.083c-.906,1.8-7.789,4.976-10.291,5.492a3.165,3.165,0,0,1-.637.044Zm-8.058-5.635c2.556,1.831,6.652,4.244,8.337,3.9a29.191,29.191,0,0,0,8.777-4.219,16.173,16.173,0,0,0-4.152-.038.862.862,0,0,1-.4-1.66c4.029-1.533,7.706-3.434,8.305-4.273a8.01,8.01,0,0,0-3.8.367.862.862,0,0,1-.633-1.584c1.467-.751,3.519-2.255,3.56-3.133,0-.184.025-.418.041-.69.136-2.014.5-7.361-1.862-7.82-3-.583-10.282,2.943-11.438,4.254C372.826,501.031,369.2,509.481,366.906,515.012Z" transform="translate(-115.056 -297.257)" fill="#262424"/>
    <path id="Path_117295" data-name="Path 117295" d="M456.591,311.889A77.758,77.758,0,0,1,419.317,165.87l75.914-41.433a8.482,8.482,0,0,1,11.51,3.376l13.382,24.5a8.5,8.5,0,0,1-3.376,11.5l-75.6,41.278a32.877,32.877,0,1,0,31.215,57.872l75.911-41.433a8.479,8.479,0,0,1,11.51,3.377l13.386,24.5a8.486,8.486,0,0,1-3.38,11.514l-75.914,41.436a77.285,77.285,0,0,1-29.5,9.141C461.789,311.756,459.169,311.889,456.591,311.889Z" transform="translate(-124.471 -43.999)" fill="#707070"/>
    <path id="Path_117296" data-name="Path 117296" d="M653.63,140.489l29.388-16.053a8.482,8.482,0,0,1,11.51,3.376l13.382,24.5a8.5,8.5,0,0,1-3.376,11.5l-29.388,16.053Z" transform="translate(-312.258 -43.999)"/>
    <path id="Path_117297" data-name="Path 117297" d="M821.08,447.027l29.388-16.053a8.479,8.479,0,0,1,11.51,3.376l13.386,24.5a8.486,8.486,0,0,1-3.38,11.514l-29.391,16.053Z" transform="translate(-426.67 -253.442)"/>
    <path id="Path_117298" data-name="Path 117298" d="M430.2,668.806s31.016-4.026,73.092-.491c0,0,9.293,9.93-2.129,39.387s-25.435,75.068-25.435,75.068H385S397.068,717.978,430.2,668.806Z" transform="translate(-128.715 -415.325)"/>
    <path id="Path_117299" data-name="Path 117299" d="M756.682,708.1a.861.861,0,0,1-.82-1.124c5.676-17.621,3.24-26.8,1.286-30.724a.862.862,0,0,1,1.539-.77c2.075,4.14,4.678,13.807-1.185,32.01A.862.862,0,0,1,756.682,708.1Z" transform="translate(-382.08 -420.914)" fill="#262424"/>
    <path id="Path_117300" data-name="Path 117300" d="M487.458,1009.215h0l-79.186-1.182a.862.862,0,1,1,0-1.723h0l79.186,1.181a.862.862,0,0,1,0,1.723Z" transform="translate(-144.027 -647.255)" fill="#262424"/>
    <path id="Path_117301" data-name="Path 117301" d="M630.782,681.538c.792.409,1.533.763,2.167,1.105a70.021,70.021,0,0,1,5.552-9.721,26.35,26.35,0,0,1,1.859,11.064l.469-.044a12.112,12.112,0,0,0,9.886-16.613c-1.9-4.355-5.505-7.545-9.312-8.131-6.107-.95-10.484,1.79-13.427,4.979A11.009,11.009,0,0,0,630.782,681.538Z" transform="translate(-292.644 -409.958)" fill="#fff"/>
    <path id="Path_117302" data-name="Path 117302" d="M638.531,682.991a.862.862,0,0,1-.858-.925,26.372,26.372,0,0,0-1.207-9.125,62.276,62.276,0,0,0-4.555,8.185.862.862,0,0,1-1.191.412c-.355-.19-.744-.386-1.156-.592-.317-.162-.653-.317-1-.507a11.615,11.615,0,0,1-6.142-8.362,12.09,12.09,0,0,1,3.1-10.345c3.921-4.257,8.828-6.072,14.19-5.248,4.048.633,7.963,4.013,9.971,8.638a12.521,12.521,0,0,1-.748,11.368,12.916,12.916,0,0,1-9.819,6.446l-.494.048h-.07ZM636.672,670.2h.067a.861.861,0,0,1,.706.513,27.171,27.171,0,0,1,1.967,10.453,11.213,11.213,0,0,0,8.007-5.527,10.814,10.814,0,0,0,.659-9.819c-1.777-4.1-5.176-7.089-8.653-7.621-4.837-.741-9.1.843-12.67,4.713a10.383,10.383,0,0,0-2.667,8.869,9.908,9.908,0,0,0,5.239,7.13h0c.336.174.662.339.976.494l.418.2a74.122,74.122,0,0,1,5.255-9.024.862.862,0,0,1,.7-.374Z" transform="translate(-290.815 -408.101)" fill="#262424"/>
    <path id="Path_117303" data-name="Path 117303" d="M662.344,608.6l-3.167,7.539L653,629.971c2.93,4.935,7.691,6.2,13.078,5l2.087-6.186,3.167-9.369Z" transform="translate(-311.828 -375.517)" fill="#fff"/>
    <path id="Path_117304" data-name="Path 117304" d="M660.609,634.391a11.253,11.253,0,0,1-10.18-5.844.862.862,0,0,1-.048-.789l6.164-13.832,3.167-7.523a.862.862,0,0,1,1.457-.215l9,10.814a.862.862,0,0,1,.155.827l-5.252,15.552a.862.862,0,0,1-.633.564A17.606,17.606,0,0,1,660.609,634.391Zm-8.47-6.335c2.48,3.877,6.335,5.328,11.447,4.32l4.941-14.63-7.782-9.353-2.616,6.218Z" transform="translate(-309.988 -373.657)" fill="#262424"/>
    <path id="Path_117305" data-name="Path 117305" d="M718.39,1175.76l1.093,25.3h9.939l1.932-25.3Z" transform="translate(-356.506 -763.033)" fill="#fff"/>
    <path id="Path_117306" data-name="Path 117306" d="M727.569,1200.058h-9.939a.862.862,0,0,1-.862-.824l-1.09-25.3a.862.862,0,0,1,.862-.9H729.5a.862.862,0,0,1,.849.938l-1.929,25.3a.862.862,0,0,1-.852.786Zm-9.116-1.723h8.318l1.8-23.572H717.436Z" transform="translate(-354.653 -761.174)" fill="#262424"/>
    <path id="Path_117307" data-name="Path 117307" d="M698.373,1312c-.317,3.6-.443,5.958-.443,5.958h49.016c3.354-17.871-13-15.017-13-15.017a16.169,16.169,0,0,0-4.362,9.062H698.373Z" transform="translate(-279.441 -849.815)" fill="#fff"/>
    <path id="Path_117308" data-name="Path 117308" d="M745.091,1316.932H696.075a.861.861,0,0,1-.858-.912c0-.025.143-2.414.447-5.98a.862.862,0,0,1,.858-.789H726.98a17.1,17.1,0,0,1,4.495-8.8.862.862,0,0,1,.469-.247c.3-.051,7.323-1.219,11.52,3.031,2.74,2.778,3.576,7.149,2.477,12.986A.862.862,0,0,1,745.091,1316.932Zm-48.1-1.717h47.375c.8-4.894.082-8.511-2.129-10.769-3.139-3.186-8.482-2.743-9.737-2.588a15.475,15.475,0,0,0-3.921,8.321.862.862,0,0,1-.858.789H697.317C697.158,1312.85,697.048,1314.329,696.994,1315.216Z" transform="translate(-340.672 -847.932)" fill="#262424"/>
    <path id="Path_117309" data-name="Path 117309" d="M719.024,1245H703.418c-2.217,8.166-3.484,20.322-4.118,27.516h31.206a16.17,16.17,0,0,1,4.362-9.062C724.728,1256.165,719.024,1245,719.024,1245Z" transform="translate(-343.463 -810.341)" fill="#707070"/>
    <path id="Path_117310" data-name="Path 117310" d="M752.6,1269.711a.856.856,0,0,1-.44-.12c-10.668-6.335-17.6-20.344-17.887-20.937a.862.862,0,0,1,1.546-.757c.07.139,7,14.13,17.221,20.215a.862.862,0,0,1-.44,1.6Z" transform="translate(-367.313 -812.016)" fill="#262424"/>
    <ellipse id="Ellipse_9992" data-name="Ellipse 9992" cx="3.807" cy="6.607" rx="3.807" ry="6.607" transform="translate(360.436 443.619)" fill="#fff"/>
    <path id="Path_117311" data-name="Path 117311" d="M715.769,1285.508c-2.616,0-4.669-3.281-4.669-7.469s2.049-7.469,4.669-7.469,4.669,3.281,4.669,7.469S718.388,1285.508,715.769,1285.508Zm0-13.215c-1.394,0-2.946,2.36-2.946,5.746s1.552,5.746,2.946,5.746,2.946-2.36,2.946-5.746-1.552-5.749-2.946-5.749Z" transform="translate(-351.525 -827.812)" fill="#262424"/>
    <path id="Path_117312" data-name="Path 117312" d="M597.121,946.2c-.044.6-.1,1.216-.146,1.85-1.748,21.653-6.145,63.181-6.145,63.181H564.151l-2.265-37.753-65.186,37L508.863,957s61.581-35.627,68.629-35.124c.481.035.988.092,1.517.177s1.121.2,1.707.317c7.149,1.641,16.7,6.867,16.952,13.585C597.722,937.475,597.52,941.184,597.121,946.2Z" transform="translate(-205.035 -589.563)" fill="#707070"/>
    <path id="Path_117313" data-name="Path 117313" d="M776.643,947.313c-6.3,1.21-13.246-3.763-16.03-11.767a19.216,19.216,0,0,1-.374-12.036c7.149,1.641,16.7,6.867,16.952,13.585C777.245,938.593,777.042,942.3,776.643,947.313Z" transform="translate(-384.558 -590.681)" fill="#fff"/>
    <path id="Path_117314" data-name="Path 117314" d="M605.825,1062.117a.862.862,0,0,1-.858-.811l-2.781-49.038-58.572,28.127a.862.862,0,1,1-.744-1.552l59.732-28.684a.862.862,0,0,1,1.232.729l2.851,50.331a.862.862,0,0,1-.811.909h-.051Z" transform="translate(-236.221 -649.827)" fill="#262424"/>
    <path id="Path_117315" data-name="Path 117315" d="M739.864,1184.693H719.982a.862.862,0,0,1,0-1.723h19.882a.862.862,0,0,1,0,1.723Z" transform="translate(-357.005 -767.959)" fill="#262424"/>
    <path id="Path_117316" data-name="Path 117316" d="M705.145,1015.05a.862.862,0,0,1-.776-1.232l11.675-24.5a.861.861,0,1,1,1.555.741l-11.675,24.5a.862.862,0,0,1-.779.491Z" transform="translate(-346.869 -635.311)" fill="#262424"/>
    <path id="Path_117317" data-name="Path 117317" d="M321.569,1248.716c-4.118.152-28.944.88-29.774-2.727s3.833-38.82,11.72-39.3a11.761,11.761,0,0,1,3.928.38,9.768,9.768,0,0,1,6.126,4.967l-.741,19.7C323.58,1232.312,325.687,1248.574,321.569,1248.716Z" transform="translate(-64.968 -784.141)" fill="#707070"/>
    <path id="Path_117318" data-name="Path 117318" d="M321.569,1248.716c-4.118.152-28.944.88-29.774-2.727s3.833-38.82,11.72-39.3a11.761,11.761,0,0,1,3.928.38c-11,7.763-9.547,33.724-9.547,33.724,4.026-8.305,14.931-9.062,14.931-9.062C323.58,1232.312,325.687,1248.574,321.569,1248.716Z" transform="translate(-64.968 -784.141)" fill="#fff"/>
    <path id="Path_117319" data-name="Path 117319" d="M310.486,1247.885c-2.217,0-4.6-.032-6.949-.117-12.15-.443-14.133-1.986-14.472-3.437-.817-3.522,2.651-29.749,8.625-37.759,1.223-1.641,2.534-2.515,3.909-2.6a12.616,12.616,0,0,1,4.213.412.862.862,0,0,1,.263,1.533c-8.365,5.9-9.236,23.214-9.239,30.091,4.872-6.287,13.655-6.968,14.07-7h.108c7.919.434,11.549,8.65,11.5,14.07-.025,2.851-1.067,4.577-2.79,4.64h0C318.737,1247.758,315.009,1247.885,310.486,1247.885Zm-8-42.219q-.386,0-.786.025a3.978,3.978,0,0,0-2.632,1.9c-5.841,7.836-8.958,33.626-8.327,36.34.019.067.633,1.666,12.936,2.109,7.082.253,14.551,0,15.977-.051h0c.652-.025,1.118-1.232,1.134-2.933.035-4.1-2.81-11.906-9.819-12.331-.779.07-10.544,1.1-14.168,8.574a.862.862,0,0,1-1.634-.317c-.057-1.029-1.235-24.225,8.425-33.258A9.938,9.938,0,0,0,302.485,1205.666Z" transform="translate(-63.086 -782.287)" fill="#262424"/>
    <path id="Path_117320" data-name="Path 117320" d="M402.534,1032.78c-3.095,10.19-9.448,30.854-15.368,48.433-5.426,16.106-12.2,32.159-19.8,41.218-3.915,4.672-8.052,7.482-12.331,7.482a20.633,20.633,0,0,1-10.959-3.5,41.407,41.407,0,0,1-11.061-10.845c-5.79-15.856,5.41-22.9,5.41-22.9l4.026,1.007,10.329-60.891h49.729Z" transform="translate(-92.061 -665.341)" fill="#707070"/>
    <path id="Path_117321" data-name="Path 117321" d="M330.928,1243.068a.862.862,0,0,1-.814-.586c-2.787-8.235-1.023-14.092.95-17.554a16.871,16.871,0,0,1,5.068-5.638.862.862,0,0,1,.919,1.457c-.418.266-10.215,6.693-5.305,21.184a.862.862,0,0,1-.817,1.137Z" transform="translate(-90.227 -792.693)" fill="#262424"/>
    <path id="Path_117322" data-name="Path 117322" d="M507.012,1084.907a.862.862,0,0,1-.817-1.134c5.407-16.135,11.159-34.75,14.1-44.411a.862.862,0,1,1,1.647.5c-2.949,9.67-8.7,28.3-14.117,44.458A.861.861,0,0,1,507.012,1084.907Z" transform="translate(-211.492 -669.405)" fill="#262424"/>
    <path id="Path_117323" data-name="Path 117323" d="M394.82,1304.247c-3.915,4.672-8.052,7.481-12.331,7.481a20.633,20.633,0,0,1-10.959-3.5c.871-4.343,4.887-8.1,10.256-9.1C387.3,1298.109,392.536,1300.313,394.82,1304.247Z" transform="translate(-56.426 -847.157)" fill="#fff"/>
    <path id="Path_117324" data-name="Path 117324" d="M345.9,1251.252a.861.861,0,0,1-.836-.659c-2.7-11.273,2.806-18.834,3.041-19.15a.862.862,0,0,1,1.381,1.029,22.646,22.646,0,0,0-2.749,17.722.862.862,0,0,1-.836,1.058Z" transform="translate(-100.919 -800.854)" fill="#262424"/>
    <path id="Path_117325" data-name="Path 117325" d="M360.2,1108.794a.861.861,0,0,1-.3-.054l-5.6-2.078a.861.861,0,1,1,.6-1.616l4.637,1.72,13.221-72.465a.862.862,0,1,1,1.695.317l-13.4,73.485a.862.862,0,0,1-.846.691Z" transform="translate(-107.353 -665.9)" fill="#262424"/>
    <path id="Path_117326" data-name="Path 117326" d="M408.231,1046.44a.862.862,0,0,1-.165-1.707l3.506-.684a6.259,6.259,0,0,0,4.932-4.853l1.026-4.849a.861.861,0,1,1,1.685.358l-1.026,4.849a7.975,7.975,0,0,1-6.287,6.186l-3.506.684a.867.867,0,0,1-.165.016Z" transform="translate(-143.999 -665.945)" fill="#262424"/>
    <path id="Path_117327" data-name="Path 117327" d="M697.54,590.8c-.846,7.586-3.145,16.645-12.242,15.134-10.814-1.8-17.738-9.528-17.738-19.838s4.824-16.072,17.155-14.76a18.937,18.937,0,0,1,3.1.586c7.082,1.989,10.592,7.919,10.076,14.814C697.809,587.983,697.7,589.364,697.54,590.8Z" transform="translate(-321.776 -349.928)" fill="#fff"/>
    <path id="Path_117328" data-name="Path 117328" d="M699.858,606.768a12.562,12.562,0,0,1-2.059-.177,23.424,23.424,0,0,1-11.4-5.068.862.862,0,1,1,1.109-1.318,21.75,21.75,0,0,0,10.576,4.688,7.676,7.676,0,0,0,6.148-1.229c3.554-2.689,4.612-8.793,5.1-13.151.162-1.422.269-2.768.361-4.026.51-6.807-3.114-12.141-9.452-13.937a.862.862,0,0,1,.466-1.657c7.174,2.015,11.276,8.033,10.7,15.707-.092,1.219-.2,2.642-.367,4.092-.523,4.672-1.688,11.241-5.771,14.333A8.732,8.732,0,0,1,699.858,606.768Z" transform="translate(-334.42 -349.74)" fill="#262424"/>
    <path id="Path_117329" data-name="Path 117329" d="M651.376,567.045a31.672,31.672,0,0,0,3.459,4.273l5.461.4,1.207-3.855s3.484-.117,4.21-2.448a1.351,1.351,0,0,0,.047-.165,29.728,29.728,0,0,0,.475-9.5s8.3,3.766,12.825,4.3a10.4,10.4,0,0,0,5.324-1.267c3.57-1.717,6.734-7.469,6.154-11.4v-.076c-.915-5.743-3.943-1.8-3.943-1.8s-.8-4.624-3.693-4.989-4.773,3.883-4.773,3.883A45.538,45.538,0,0,0,661.2,543.5c-11.2,1.584-8.5,9.319-8.5,9.319S644.446,555.386,651.376,567.045Z" transform="translate(-308.826 -328.974)" fill="#262424"/>
    <path id="Path_117330" data-name="Path 117330" d="M654.9,617.927a7.937,7.937,0,0,0-6.769-8.869,7.214,7.214,0,0,0-2.727.165c-5.35,1.384-4.08,13.816,8.98,13.009Z" transform="translate(-304.616 -375.789)" fill="#fff"/>
    <path id="Path_117331" data-name="Path 117331" d="M651.359,621.226c-7.067,0-10.877-3.972-11.533-8.1-.507-3.19.969-5.98,3.51-6.652a8.081,8.081,0,0,1,3.05-.187A8.8,8.8,0,0,1,653.9,616.1a.861.861,0,1,1-1.711-.206,7.075,7.075,0,0,0-6.018-7.919,6.371,6.371,0,0,0-2.4.146c-1.663.431-2.6,2.407-2.239,4.7.529,3.332,3.712,7.063,10.953,6.614a.862.862,0,0,1,.108,1.72A11.792,11.792,0,0,1,651.359,621.226Z" transform="translate(-302.759 -373.89)" fill="#262424"/>
    <path id="Path_117332" data-name="Path 117332" d="M390.643,628.522a182.857,182.857,0,0,1-28.57-13.826c-6.316-3.8-10.358-6.652-10.358-6.652-.57-3.684-.979-7.405-1.267-11.086a213.5,213.5,0,0,1,1.09-40.271,13.134,13.134,0,0,1,16.442,1.679c.336,8.235,5.7,28.019,5.7,28.019l32.571,5.667C433.777,597.351,415.979,638.084,390.643,628.522Z" transform="translate(-104.765 -338.571)"/>
    <circle id="Ellipse_9993" data-name="Ellipse 9993" cx="1.175" cy="1.175" r="1.175" transform="translate(249.006 218.053)" fill="#fff"/>
    <path id="Path_117333" data-name="Path 117333" d="M361.337,562.493a2.037,2.037,0,1,1,2.037-2.037,2.037,2.037,0,0,1-2.037,2.037Zm0-2.35a.317.317,0,1,0,.317.317.317.317,0,0,0-.317-.317Z" transform="translate(-111.156 -341.232)" fill="#262424"/>
    <path id="Path_117334" data-name="Path 117334" d="M370.608,574.832a.858.858,0,0,1-.4-.1c-8.181-4.327-13.414-.719-13.62-.564a.862.862,0,0,1-1.007-1.4c.25-.184,6.275-4.412,15.448.44a.862.862,0,0,1-.418,1.622Z" transform="translate(-108.384 -349.75)" fill="#262424"/>
    <path id="Path_117335" data-name="Path 117335" d="M484.214,712.905a22.369,22.369,0,0,1-7.947-1.511.862.862,0,0,1,.608-1.612c12.2,4.606,22.9-3.136,26.768-12.762,3.019-7.507,1.973-16.825-7.162-20.728a.861.861,0,1,1,.678-1.584c10.205,4.359,11.4,14.672,8.083,22.955a25.361,25.361,0,0,1-10.966,12.6A20.753,20.753,0,0,1,484.214,712.905Z" transform="translate(-190.693 -420.639)" fill="#262424"/>
    <path id="Path_117336" data-name="Path 117336" d="M386.784,670.262a.862.862,0,0,1-.633-1.444l10.234-11.086a.862.862,0,1,1,1.267,1.169l-10.234,11.086A.859.859,0,0,1,386.784,670.262Z" transform="translate(-129.346 -408.897)" fill="#262424"/>
    <path id="Path_117337" data-name="Path 117337" d="M364.011,701.422a13.325,13.325,0,0,1-.887,4.8c-6.316-3.8-10.358-6.652-10.358-6.652-.57-3.684-.979-7.406-1.267-11.086h.082A12.707,12.707,0,0,1,364.011,701.422Z" transform="translate(-105.826 -430.096)" fill="#fff"/>
  </g>
</svg>
