<svg xmlns="http://www.w3.org/2000/svg" xmlns:xlink="http://www.w3.org/1999/xlink" width="452.471" height="513.31" viewBox="0 0 452.471 513.31">
  <defs>
    <clipPath id="clip-path">
      <path id="Path_117040" data-name="Path 117040" d="M792.392,648.85a10.434,10.434,0,0,0-10.385,8.953L761.691,794.139a10.495,10.495,0,0,0,10.381,12.044h190.72a10.547,10.547,0,0,0,10.385-8.953l20.316-136.336a10.5,10.5,0,0,0-10.385-12.044ZM994.3,661.02Z" transform="translate(-761.576 -648.85)" fill="none"/>
    </clipPath>
    <clipPath id="clip-path-2">
      <path id="Path_117066" data-name="Path 117066" d="M792.392,131.83a10.434,10.434,0,0,0-10.385,8.953L761.691,277.127a10.495,10.495,0,0,0,10.381,12.044h190.72a10.547,10.547,0,0,0,10.385-8.953l20.316-136.336a10.5,10.5,0,0,0-10.385-12.044H792.392ZM994.3,144Z" transform="translate(-761.576 -131.83)" fill="none"/>
    </clipPath>
  </defs>
  <g id="Team_Meeting" data-name="Team Meeting" transform="translate(-222.26 -79)">
    <path id="Path_117015" data-name="Path 117015" d="M993.1,659.821l-2.88,19.322L972.774,796.158a11.314,11.314,0,0,1-11.192,9.651H770.866a11.31,11.31,0,0,1-11.188-12.981l16.941-113.68,3.375-22.656a11.314,11.314,0,0,1,11.192-9.651H981.9a11.314,11.314,0,0,1,11.2,12.981Z" transform="translate(-319.332 -337.486)" fill="#fff"/>
    <path id="Path_117016" data-name="Path 117016" d="M960.39,805.423H769.67a12.129,12.129,0,0,1-12-13.922l20.336-136.336a12.21,12.21,0,0,1,12-10.344H980.73a12.134,12.134,0,0,1,12,13.922L972.418,795.079A12.211,12.211,0,0,1,960.39,805.423ZM790.01,646.455a10.547,10.547,0,0,0-10.385,8.953L759.293,791.744a10.495,10.495,0,0,0,10.381,12.044h190.72a10.547,10.547,0,0,0,10.385-8.953L991.1,658.5a10.5,10.5,0,0,0-10.385-12.044H789.994Zm201.908,12.17Z" transform="translate(-318.136 -336.286)" fill="#262424"/>
    <path id="Path_117017" data-name="Path 117017" d="M1018.619,659.324a10.319,10.319,0,0,1-.118,1.57l-2.876,19.322v.122H803.66l3.359-22.535A10.5,10.5,0,0,1,817.4,648.85H1008.12A10.507,10.507,0,0,1,1018.619,659.324Z" transform="translate(-345.546 -338.681)"/>
    <circle id="Ellipse_9956" data-name="Ellipse 9956" cx="4.714" cy="4.714" r="4.714" transform="translate(478.868 320.789)" fill="#fff"/>
    <circle id="Ellipse_9957" data-name="Ellipse 9957" cx="4.714" cy="4.714" r="4.714" transform="translate(501.549 320.789)" fill="#fff"/>
    <circle id="Ellipse_9958" data-name="Ellipse 9958" cx="4.714" cy="4.714" r="4.714" transform="translate(524.234 320.789)" fill="#fff"/>
    <g id="Group_56284" data-name="Group 56284" transform="translate(441.042 310.169)" clip-path="url(#clip-path)">
      <path id="Path_117018" data-name="Path 117018" d="M996.879,801.878c-21.48-.941-23.123-11.05-18.892-26.259-3.209-4.986-6.9-11.046-3.615-22.446,3.042-10.633,22.531-22.616,37.321-9.018h0c.341.093,11.245,3.27,11.444,23.634C1023.357,788.482,1021.057,802.953,996.879,801.878Z" transform="translate(-887.287 -701.881)" fill="#262424"/>
      <path id="Path_117019" data-name="Path 117019" d="M911.5,932.706c-2.779,10.839-5.748,22.717-10.373,32.79-5.9,9.557-18.981,24.421-27.963,22.786-11.7-2.126-4.057-31.025-2.231-37.93.085-.325,11.854-20.486,17.533-36.307A34.358,34.358,0,0,1,908.054,893.6S917.79,908.163,911.5,932.706Z" transform="translate(-824.112 -794.313)" fill="#707070"/>
      <path id="Path_117020" data-name="Path 117020" d="M1008.7,891.81s-22.016-15.472-68.894-4.219c0,0-17.444,22.944-18.133,46.343-.174,5.915,3.209,16.916,3.124,23.732a398.878,398.878,0,0,1-4.576,54.457l97.526,3.144S1023.377,959.6,1008.7,891.81Z" transform="translate(-855.863 -788.304)" fill="#707070"/>
      <path id="Path_117021" data-name="Path 117021" d="M925.533,974.249h-.024a.811.811,0,0,1-.811-.844c.073-2.26.122-4.507.15-6.681.041-3.379-.811-7.882-1.623-12.239s-1.594-8.519-1.505-11.509c.548-18.592,11.525-36.863,16.227-43.857a.819.819,0,0,1,1.359.913c-4.616,6.876-15.415,24.823-15.943,43-.085,2.84.673,6.872,1.477,11.16.811,4.434,1.692,9.018,1.647,12.576-.028,2.187-.077,4.462-.15,6.71A.811.811,0,0,1,925.533,974.249Z" transform="translate(-856.751 -797.378)" fill="#262424"/>
      <path id="Path_117022" data-name="Path 117022" d="M1021.7,1188.161h0l-86.894-2.028a.811.811,0,1,1,.036-1.623l86.894,2.028a.812.812,0,0,1-.036,1.623Z" transform="translate(-864.062 -967.21)" fill="#262424"/>
      <path id="Path_117023" data-name="Path 117023" d="M1027.185,868.673a21.379,21.379,0,0,1-13.468,12.1,79.583,79.583,0,0,0-3.777-12.458,32.326,32.326,0,0,0-5.107,12.4,15.3,15.3,0,0,1-11.1-12.32c1.217-9.6,9.472-16.831,16.559-16.588C1025.936,852.329,1027.185,868.673,1027.185,868.673Z" transform="translate(-899.553 -769.467)" fill="#fff"/>
      <path id="Path_117024" data-name="Path 117024" d="M1012.52,880.377a.811.811,0,0,1-.811-.673,72.469,72.469,0,0,0-3.172-10.835,32.391,32.391,0,0,0-4.093,10.754.811.811,0,0,1-1.026.661c-10.377-2.84-11.683-12.912-11.7-13.014a.814.814,0,0,1,0-.2c1.331-10.5,10.243-17.561,17.4-17.3,16.206.552,17.687,17.444,17.7,17.63a.812.812,0,0,1-.065.385,22.312,22.312,0,0,1-14,12.576A.813.813,0,0,1,1012.52,880.377Zm-3.777-14.093h.1a.811.811,0,0,1,.657.507,83.676,83.676,0,0,1,3.651,11.687,20.6,20.6,0,0,0,12.032-11.156c-.2-1.89-2.105-15.448-16.1-15.922-6.418-.211-14.474,6.491-15.707,15.768a14.352,14.352,0,0,0,9.639,11.273,33.144,33.144,0,0,1,5.083-11.829.811.811,0,0,1,.633-.329Z" transform="translate(-898.355 -768.259)" fill="#262424"/>
      <path id="Path_117025" data-name="Path 117025" d="M1032.485,804.09l-.256,9.626-.434,16.47c-5.541,3.874-10.929,4.28-16.125.377l.763-7.651,1.152-11.59Z" transform="translate(-912.593 -741.114)" fill="#fff"/>
      <path id="Path_117026" data-name="Path 117026" d="M1022,832.914a13.2,13.2,0,0,1-8.012-2.9.811.811,0,0,1-.32-.734l1.915-19.241a.811.811,0,0,1,.458-.653l14.9-7.237a.811.811,0,0,1,1.176.759l-.69,26.1a.811.811,0,0,1-.349.649A15.943,15.943,0,0,1,1022,832.914Zm-6.661-3.935c4.527,3.209,9.265,3.067,14.458-.43l.645-24.34-13.282,6.45Z" transform="translate(-911.398 -739.911)" fill="#262424"/>
      <path id="Path_117027" data-name="Path 117027" d="M988.756,779.559c.527,7.943,2.5,17.488,12.048,16.34,11.359-1.367,18.924-9.1,19.395-19.841s-4.264-16.973-17.164-16.162a19.751,19.751,0,0,0-3.245.467c-7.472,1.74-11.407,7.748-11.192,14.965C988.622,776.618,988.671,778.062,988.756,779.559Z" transform="translate(-896.498 -714.807)" fill="#fff"/>
      <path id="Path_117028" data-name="Path 117028" d="M998.078,796.379a9.172,9.172,0,0,1-6.036-2.053c-4.089-3.391-4.99-10.267-5.314-15.148-.106-1.513-.15-2.941-.191-4.276-.235-7.984,4.292-14.032,11.821-15.784a.819.819,0,0,1,.373,1.594c-6.726,1.566-10.77,6.986-10.547,14.146.041,1.318.085,2.726.187,4.215.3,4.58,1.124,11.01,4.726,14a8.011,8.011,0,0,0,6.409,1.586,22.961,22.961,0,0,0,11.29-4.389.819.819,0,1,1,1,1.3,24.6,24.6,0,0,1-12.089,4.718,13.515,13.515,0,0,1-1.627.093Z" transform="translate(-895.273 -714.373)" fill="#262424"/>
      <path id="Path_117029" data-name="Path 117029" d="M993.69,750.643s.949,17.715,24.608,17.849c0,0,14.056-4.328,9.33-17.849S999.653,733.876,993.69,750.643Z" transform="translate(-899.529 -702.579)" fill="#262424"/>
      <path id="Path_117030" data-name="Path 117030" d="M848.159,880.027s-4.361-29.48-4.495-31.236,3.111-7.03,10.276-7.574,8.791,1.894,8.791,4.191,1.083,10.819,1.083,10.819-.272-10.819-.134-12.442,4.191-2.568,4.462.134,1.351,22.04,1.351,22.04,9.33-2.84,11.764-2.974,2.162,3.785.945,4.462-21.975,15.415-21.975,15.415Z" transform="translate(-810.362 -763.135)" fill="#fff"/>
      <path id="Path_117031" data-name="Path 117031" d="M859,882.5a.842.842,0,0,1-.2,0l-12.069-2.84a.811.811,0,0,1-.621-.677c-.178-1.217-4.365-29.528-4.5-31.293a6.42,6.42,0,0,1,1.846-4.057,13.212,13.212,0,0,1,9.184-4.4c3.959-.3,6.75.272,8.288,1.7a4.248,4.248,0,0,1,.811,1.051,3.436,3.436,0,0,1,3.116-1.753h.032a2.631,2.631,0,0,1,2.8,2.434c.235,2.361,1.067,16.957,1.3,21.042,2.5-.742,8.925-2.6,10.953-2.71a2.434,2.434,0,0,1,2.564,1.894c.406,1.4,0,3.452-1.172,4.1-.864.479-13.57,9.452-21.906,15.367a.811.811,0,0,1-.422.142Zm-11.359-4.328,11.168,2.629c3.18-2.26,20.571-14.6,21.748-15.249a2.5,2.5,0,0,0,.406-2.215c-.191-.665-.564-.734-.9-.718-1.915.105-9,2.158-11.57,2.941a.811.811,0,0,1-1.055-.738c0-.195-1.083-19.35-1.351-22-.024-.239-.1-.97-1.177-.97h0c-.852,0-1.623.507-1.623.811-.106,1.25.045,8.625.138,12.353a.814.814,0,0,1-1.623.122c-.045-.349-1.087-8.6-1.087-10.921a2.718,2.718,0,0,0-.856-2.109c-1.172-1.087-3.615-1.525-7.055-1.266a11.454,11.454,0,0,0-8.065,3.833,5.177,5.177,0,0,0-1.456,2.86c.069,1.359,2.848,20.32,4.373,30.648Z" transform="translate(-809.139 -761.959)" fill="#262424"/>
      <path id="Path_117032" data-name="Path 117032" d="M835.228,931.25l15.821,4.361s1.623,29.208,2.84,41.378,1.42,31.845-6.085,33.67-26.51-8.576-23.326-27.18C829.549,953.866,835.228,931.25,835.228,931.25Z" transform="translate(-798.749 -816.69)" fill="#707070"/>
      <path id="Path_117033" data-name="Path 117033" d="M893,1046.881a.811.811,0,0,1-.771-1.1c2.957-8.259,1.74-23.4,1.294-27.845L892.18,1000.9a.814.814,0,1,1,1.623-.13l1.339,17.038c.58,5.789,1.623,20.194-1.383,28.543a.811.811,0,0,1-.763.527Z" transform="translate(-839.195 -857.564)" fill="#262424"/>
      <path id="Path_117034" data-name="Path 117034" d="M864.046,957.912a.815.815,0,0,1-.2-.024l-14-3.55a.819.819,0,0,1,.406-1.586l14,3.55a.812.812,0,0,1-.2,1.611Z" transform="translate(-813.673 -829.454)" fill="#262424"/>
      <circle id="Ellipse_9959" data-name="Ellipse 9959" cx="2.239" cy="2.239" r="2.239" transform="translate(38.15 117.753)" fill="#fff"/>
      <path id="Path_117035" data-name="Path 117035" d="M856.665,943.219a3.055,3.055,0,1,1,3.055-3.055A3.055,3.055,0,0,1,856.665,943.219Zm0-4.462a.589.589,0,1,0,0-.012Z" transform="translate(-816.275 -820.172)" fill="#262424"/>
      <path id="Path_117036" data-name="Path 117036" d="M1118.724,904s27.683,13.833,25.249,123.359h-35.8s.438-72.773-2.162-90.094C1102.769,915.626,1111.966,904.54,1118.724,904Z" transform="translate(-965.888 -800.494)" fill="#707070"/>
      <path id="Path_117037" data-name="Path 117037" d="M1107.009,1014.426a.811.811,0,0,1-.811-.811c-.02-22.953-.333-63.284-2.178-75.6-2.783-18.547,3.355-29.293,9.456-32.859a.814.814,0,0,1,.811,1.412c-6.109,3.574-11.156,14.6-8.665,31.212,1.862,12.413,2.178,52.846,2.2,75.86a.811.811,0,0,1-.811.811h0Z" transform="translate(-964.692 -801.114)" fill="#262424"/>
      <path id="Path_117038" data-name="Path 117038" d="M1054.3,801.554a8.277,8.277,0,0,1,7.468-8.925,7.524,7.524,0,0,1,2.84.3c5.509,1.692,3.606,14.6-9.967,13.135Z" transform="translate(-935.536 -734.286)" fill="#fff"/>
      <path id="Path_117039" data-name="Path 117039" d="M1055.474,805.792a19.749,19.749,0,0,1-2.118-.118.816.816,0,1,1,.175-1.623c7.574.811,11.095-2.965,11.809-6.442.495-2.434-.406-4.556-2.17-5.1a6.718,6.718,0,0,0-2.527-.268,7.456,7.456,0,0,0-6.718,8.052.814.814,0,1,1-1.623.122,9.1,9.1,0,0,1,8.215-9.8,8.346,8.346,0,0,1,3.14.333c2.576.791,3.959,3.728,3.29,6.99C1066.1,802.007,1062.261,805.792,1055.474,805.792Z" transform="translate(-934.349 -733.088)" fill="#262424"/>
    </g>
    <circle id="Ellipse_9960" data-name="Ellipse 9960" cx="20.786" cy="20.786" r="20.786" transform="translate(599.388 415.342)"/>
    <path id="Path_117041" data-name="Path 117041" d="M1189.806,946s-5.537,5.537-12.324,6.856a2.876,2.876,0,0,1-2.519-.868l-2.207-2.207a2.506,2.506,0,0,1-.349-3.493l2.552-2.552a2.509,2.509,0,0,1,3.493.349l1.217,1.217a7.706,7.706,0,0,0,2.109-.617,12.329,12.329,0,0,0,6.718-6.718,7.711,7.711,0,0,0,.617-2.109l-1.217-1.217a2.51,2.51,0,0,1-.353-3.493l2.552-2.552a2.506,2.506,0,0,1,3.493.353l2.207,2.207a2.876,2.876,0,0,1,.868,2.519C1195.343,940.469,1189.806,946,1189.806,946Z" transform="translate(-564.37 -504.612)" fill="#fff"/>
    <path id="Path_117042" data-name="Path 117042" d="M993.1,142.8l-2.88,19.322L972.774,279.138a11.314,11.314,0,0,1-11.192,9.651H770.866a11.31,11.31,0,0,1-11.188-12.981l16.941-113.68,3.375-22.656a11.314,11.314,0,0,1,11.192-9.651H981.9A11.314,11.314,0,0,1,993.1,142.8Z" transform="translate(-319.332 -30.204)" fill="#fff"/>
    <path id="Path_117043" data-name="Path 117043" d="M960.39,288.4H769.67a12.129,12.129,0,0,1-12-13.922l20.336-136.336a12.206,12.206,0,0,1,12-10.344H980.73a12.134,12.134,0,0,1,12,13.922l-20.34,136.336A12.211,12.211,0,0,1,960.39,288.4ZM790.01,129.435a10.434,10.434,0,0,0-10.385,8.953L759.293,274.732a10.495,10.495,0,0,0,10.381,12.044h190.72a10.547,10.547,0,0,0,10.385-8.953L991.1,141.487a10.5,10.5,0,0,0-10.385-12.044H789.994ZM991.919,141.6Z" transform="translate(-318.136 -29.003)" fill="#262424"/>
    <path id="Path_117044" data-name="Path 117044" d="M1018.619,142.3a10.319,10.319,0,0,1-.118,1.57l-2.876,19.322v.122H803.66l3.359-22.535A10.5,10.5,0,0,1,817.4,131.83H1008.12A10.507,10.507,0,0,1,1018.619,142.3Z" transform="translate(-345.546 -31.399)" fill="#707070"/>
    <circle id="Ellipse_9961" data-name="Ellipse 9961" cx="4.714" cy="4.714" r="4.714" transform="translate(478.868 111.052)" fill="#fff"/>
    <circle id="Ellipse_9962" data-name="Ellipse 9962" cx="4.714" cy="4.714" r="4.714" transform="translate(501.549 111.052)" fill="#fff"/>
    <circle id="Ellipse_9963" data-name="Ellipse 9963" cx="4.714" cy="4.714" r="4.714" transform="translate(524.234 111.052)" fill="#fff"/>
    <g id="Group_56285" data-name="Group 56285" transform="translate(441.042 100.431)" clip-path="url(#clip-path-2)">
      <path id="Path_117045" data-name="Path 117045" d="M914.632,414.706c-2.779,10.839-5.748,22.717-10.373,32.79-5.906,9.557-18.981,24.409-27.963,22.786-11.7-2.126-4.057-31.025-2.231-37.93.085-.325,9.939-23.326,15.618-39.147s16.34-17.606,16.34-17.606S920.92,390.163,914.632,414.706Z" transform="translate(-825.972 -276.711)"/>
      <path id="Path_117046" data-name="Path 117046" d="M1011.834,373.81s-27.18-15.472-74.058-4.219c0,0-12.835,12.073-12.239,42.457.617,31.411-2.187,82.074-2.187,82.074l97.526,3.144S1026.507,441.6,1011.834,373.81Z" transform="translate(-857.724 -270.702)"/>
      <path id="Path_117047" data-name="Path 117047" d="M1024.805,670.161h0l-86.894-2.028a.811.811,0,0,1,0-1.623h0l86.894,2.028a.811.811,0,0,1,0,1.623Z" transform="translate(-865.896 -449.608)" fill="#262424"/>
      <path id="Path_117048" data-name="Path 117048" d="M926.941,454.678h0a.811.811,0,0,1-.811-.832l.844-46.773q0-.041,0-.081c1.773-14.916,6.945-23.65,9.866-27.529a.818.818,0,1,1,1.306.986c-2.84,3.744-7.813,12.17-9.545,26.7l-.848,46.725A.811.811,0,0,1,926.941,454.678Z" transform="translate(-859.376 -278.813)" fill="#262424"/>
      <path id="Path_117049" data-name="Path 117049" d="M1030.286,350.673a21.378,21.378,0,0,1-13.488,12.1,79.586,79.586,0,0,0-3.777-12.458,32.325,32.325,0,0,0-5.107,12.4,15.3,15.3,0,0,1-11.1-12.32c1.217-9.6,9.472-16.831,16.559-16.588C1029.036,334.333,1030.286,350.673,1030.286,350.673Z" transform="translate(-901.384 -251.865)" fill="#fff"/>
      <path id="Path_117050" data-name="Path 117050" d="M1015.61,362.395a.811.811,0,0,1-.811-.669,72.469,72.469,0,0,0-3.172-10.835,32.387,32.387,0,0,0-4.093,10.754.811.811,0,0,1-1.026.661c-10.377-2.84-11.683-12.912-11.7-13.014a.814.814,0,0,1,0-.2c1.331-10.5,10.243-17.541,17.4-17.3,16.206.552,17.687,17.444,17.7,17.63a.81.81,0,0,1-.065.406,22.312,22.312,0,0,1-14,12.555A.812.812,0,0,1,1015.61,362.395Zm-3.777-14.093h.1a.811.811,0,0,1,.657.507,83.658,83.658,0,0,1,3.651,11.687,20.592,20.592,0,0,0,12.032-11.16c-.2-1.89-2.105-15.448-16.1-15.922h-.308c-6.365,0-14.2,6.625-15.415,15.776a14.352,14.352,0,0,0,9.639,11.273,33.146,33.146,0,0,1,5.083-11.829.811.811,0,0,1,.665-.337Z" transform="translate(-900.192 -250.67)" fill="#262424"/>
      <path id="Path_117051" data-name="Path 117051" d="M1035.615,286.1l-.256,9.626-.434,16.47c-5.541,3.874-10.929,4.28-16.125.377l.763-7.651,1.152-11.59Z" transform="translate(-914.453 -223.518)" fill="#fff"/>
      <path id="Path_117052" data-name="Path 117052" d="M1025.126,314.924a13.2,13.2,0,0,1-8.012-2.9.811.811,0,0,1-.32-.734l1.915-19.241a.811.811,0,0,1,.458-.653l14.9-7.237a.811.811,0,0,1,1.177.759l-.69,26.1a.811.811,0,0,1-.349.649A16.012,16.012,0,0,1,1025.126,314.924Zm-6.661-3.935c4.527,3.209,9.265,3.067,14.458-.43l.645-24.34-13.281,6.45Z" transform="translate(-913.258 -222.314)" fill="#262424"/>
      <path id="Path_117053" data-name="Path 117053" d="M991.906,261.563c.527,7.943,2.5,17.488,12.048,16.34,11.359-1.367,18.924-9.1,19.395-19.841s-4.276-16.977-17.184-16.166a19.752,19.752,0,0,0-3.245.467c-7.472,1.74-11.407,7.748-11.192,14.965C991.752,258.622,991.8,260.062,991.906,261.563Z" transform="translate(-898.358 -197.204)" fill="#fff"/>
      <path id="Path_117054" data-name="Path 117054" d="M1001.228,278.379a9.168,9.168,0,0,1-6.036-2.053c-4.089-3.391-4.99-10.267-5.314-15.148-.106-1.513-.15-2.941-.191-4.276-.239-7.984,4.292-14.032,11.821-15.784a.819.819,0,0,1,.373,1.594c-6.726,1.566-10.775,6.986-10.547,14.146.041,1.318.085,2.73.187,4.215.3,4.58,1.124,11.01,4.726,14a8.036,8.036,0,0,0,6.406,1.586,22.96,22.96,0,0,0,11.29-4.389.819.819,0,0,1,1,1.3,24.591,24.591,0,0,1-12.089,4.718A13.456,13.456,0,0,1,1001.228,278.379Z" transform="translate(-897.145 -196.771)" fill="#262424"/>
      <path id="Path_117055" data-name="Path 117055" d="M1019.176,244.451a33.015,33.015,0,0,1-3.805,4.288l-5.708.158-1.075-4.057s-3.606-.284-4.272-2.75a1.433,1.433,0,0,1-.041-.174,31.39,31.39,0,0,1-.053-9.91s-8.819,3.537-13.565,3.874a10.811,10.811,0,0,1-5.489-1.578c-3.651-1.955-6.665-8.113-5.882-12.17v-.077c1.217-5.943,4.195-1.7,4.195-1.7s1.055-4.783,4.081-5.022,4.795,4.268,4.795,4.268a47.5,47.5,0,0,1,17.679-.134c11.59,2.178,8.418,10.105,8.418,10.105S1026.945,232.638,1019.176,244.451Z" transform="translate(-890.895 -181.455)" fill="#262424"/>
      <path id="Path_117056" data-name="Path 117056" d="M1057.426,283.564a8.277,8.277,0,0,1,7.468-8.925,7.526,7.526,0,0,1,2.84.3c5.509,1.692,3.606,14.6-9.967,13.135Z" transform="translate(-937.396 -216.69)" fill="#fff"/>
      <path id="Path_117057" data-name="Path 117057" d="M1058.6,287.792a19.921,19.921,0,0,1-2.118-.118.816.816,0,1,1,.174-1.623c7.57.811,11.091-2.965,11.8-6.442.495-2.434-.406-4.556-2.17-5.1a6.738,6.738,0,0,0-2.527-.268,7.456,7.456,0,0,0-6.718,8.052.814.814,0,1,1-1.623.122,9.1,9.1,0,0,1,8.215-9.8,8.357,8.357,0,0,1,3.14.333c2.576.791,3.959,3.728,3.29,6.99C1069.227,284.007,1065.377,287.792,1058.6,287.792Z" transform="translate(-936.203 -215.486)" fill="#262424"/>
      <path id="Path_117058" data-name="Path 117058" d="M851.289,362.027s-4.361-29.48-4.495-31.236,3.111-7.03,10.276-7.574,8.791,1.894,8.791,4.195,1.083,10.819,1.083,10.819-.272-10.819-.134-12.442,4.191-2.568,4.462.134,1.351,22.04,1.351,22.04,9.33-2.84,11.764-2.974,2.162,3.785.945,4.462-21.975,15.415-21.975,15.415Z" transform="translate(-812.222 -245.532)" fill="#fff"/>
      <path id="Path_117059" data-name="Path 117059" d="M862.159,364.471a.811.811,0,0,1-.187-.02l-12.069-2.84a.811.811,0,0,1-.621-.677c-.179-1.217-4.365-29.528-4.5-31.293a6.419,6.419,0,0,1,1.846-4.057,13.212,13.212,0,0,1,9.184-4.4c3.963-.3,6.75.272,8.288,1.7a4.257,4.257,0,0,1,.811,1.051,3.436,3.436,0,0,1,3.115-1.752,2.637,2.637,0,0,1,2.84,2.434c.235,2.361,1.067,16.957,1.3,21.042,2.5-.742,8.925-2.6,10.953-2.71a2.434,2.434,0,0,1,2.564,1.894c.406,1.4,0,3.452-1.172,4.1-.864.479-13.57,9.452-21.906,15.367A.811.811,0,0,1,862.159,364.471ZM850.8,360.143l11.168,2.629c3.18-2.26,20.571-14.6,21.748-15.249a2.5,2.5,0,0,0,.406-2.215c-.191-.665-.564-.734-.9-.718-1.915.105-9,2.158-11.574,2.941a.811.811,0,0,1-1.055-.738c0-.195-1.083-19.35-1.351-22.007-.024-.239-.1-.97-1.176-.97h0c-.852,0-1.623.507-1.623.811-.105,1.249.045,8.624.138,12.353a.814.814,0,0,1-1.623.122c-.045-.349-1.087-8.6-1.087-10.921a2.718,2.718,0,0,0-.856-2.109c-1.172-1.087-3.615-1.525-7.055-1.266a11.454,11.454,0,0,0-8.065,3.834,5.176,5.176,0,0,0-1.456,2.86c.073,1.367,2.852,20.328,4.381,30.652Z" transform="translate(-811.023 -244.325)" fill="#262424"/>
      <path id="Path_117060" data-name="Path 117060" d="M838.358,413.25l15.821,4.361s1.623,29.208,2.84,41.378,1.42,31.845-6.085,33.67-26.51-8.576-23.326-27.18C832.679,435.866,838.358,413.25,838.358,413.25Z" transform="translate(-800.609 -299.087)"/>
      <path id="Path_117061" data-name="Path 117061" d="M896.125,528.881a.811.811,0,0,1-.771-1.1c2.957-8.255,1.74-23.4,1.294-27.845L895.31,482.9a.814.814,0,1,1,1.623-.13l1.339,17.038c.58,5.789,1.623,20.194-1.383,28.543A.811.811,0,0,1,896.125,528.881Z" transform="translate(-841.055 -339.962)" fill="#262424"/>
      <path id="Path_117062" data-name="Path 117062" d="M867.176,439.922a.812.812,0,0,1-.2-.024l-14-3.55a.819.819,0,0,1,.406-1.586l14,3.55a.812.812,0,0,1-.2,1.611Z" transform="translate(-815.533 -311.857)" fill="#262424"/>
      <circle id="Ellipse_9964" data-name="Ellipse 9964" cx="2.239" cy="2.239" r="2.239" transform="translate(39.42 117.355)" fill="#fff"/>
      <path id="Path_117063" data-name="Path 117063" d="M859.795,425.229a3.055,3.055,0,1,1,3.055-3.055A3.055,3.055,0,0,1,859.795,425.229Zm0-4.462a.59.59,0,1,0,0-.016Z" transform="translate(-818.135 -302.576)" fill="#262424"/>
      <path id="Path_117064" data-name="Path 117064" d="M1121.862,386s27.683,13.833,25.249,123.359h-35.8s.434-72.768-2.162-90.094C1105.9,397.63,1115.1,386.54,1121.862,386Z" transform="translate(-967.752 -282.892)"/>
      <path id="Path_117065" data-name="Path 117065" d="M1110.139,496.426a.811.811,0,0,1-.811-.811c-.02-22.953-.333-63.284-2.178-75.6-2.783-18.547,3.355-29.293,9.456-32.859a.814.814,0,1,1,.811,1.412c-6.109,3.574-11.156,14.6-8.665,31.212,1.862,12.413,2.178,52.846,2.2,75.86a.811.811,0,0,1-.811.811h0Z" transform="translate(-966.552 -283.511)" fill="#262424"/>
    </g>
    <circle id="Ellipse_9965" data-name="Ellipse 9965" cx="20.786" cy="20.786" r="20.786" transform="translate(599.388 205.604)" fill="#707070"/>
    <path id="Path_117067" data-name="Path 117067" d="M1189.806,428.982s-5.537,5.537-12.324,6.856a2.876,2.876,0,0,1-2.519-.868l-2.207-2.207a2.506,2.506,0,0,1-.349-3.493l2.552-2.552a2.509,2.509,0,0,1,3.493.349l1.217,1.217a7.709,7.709,0,0,0,2.109-.617,12.328,12.328,0,0,0,6.718-6.718,7.708,7.708,0,0,0,.617-2.109l-1.217-1.217a2.51,2.51,0,0,1-.353-3.493l2.552-2.552a2.506,2.506,0,0,1,3.493.353l2.207,2.207a2.876,2.876,0,0,1,.868,2.519C1195.343,423.449,1189.806,428.982,1189.806,428.982Z" transform="translate(-564.37 -197.33)" fill="#fff"/>
    <path id="Path_117068" data-name="Path 117068" d="M602.22,626.447v24.462a8.227,8.227,0,0,0,8.227,8.227h34.684l6.442,6.458a.921.921,0,0,0,1.574-.653v-5.805h6.835a8.227,8.227,0,0,0,8.227-8.227V626.447a8.227,8.227,0,0,0-8.227-8.227h-49.54A8.227,8.227,0,0,0,602.22,626.447Z" transform="translate(-225.823 -320.477)"/>
    <rect id="Rectangle_14231" data-name="Rectangle 14231" width="48.635" height="5.168" rx="2.584" transform="translate(433.71 315) rotate(180)" fill="#fff"/>
    <rect id="Rectangle_14232" data-name="Rectangle 14232" width="20.993" height="5.168" rx="2.584" transform="translate(433.71 326.57) rotate(180)" fill="#fff"/>
    <path id="Path_117069" data-name="Path 117069" d="M517.5,129.75v37.135a12.486,12.486,0,0,0,12.486,12.486h52.623l9.8,9.8a1.4,1.4,0,0,0,2.389-.99v-8.811h10.377a12.486,12.486,0,0,0,12.486-12.486V129.75a12.486,12.486,0,0,0-12.486-12.49h-75.19A12.486,12.486,0,0,0,517.5,129.75Z" transform="translate(-175.471 -22.739)" fill="#707070"/>
    <path id="Path_117070" data-name="Path 117070" d="M592.811,91.49v37.135a12.486,12.486,0,0,1-12.486,12.486H527.673l-9.8,9.8a1.4,1.4,0,0,1-2.389-.99v-8.811H505.126a12.486,12.486,0,0,1-12.486-12.486V91.49A12.486,12.486,0,0,1,505.126,79h75.2a12.486,12.486,0,0,1,12.486,12.49Z" transform="translate(-160.696)"/>
    <rect id="Rectangle_14233" data-name="Rectangle 14233" width="73.831" height="7.842" rx="3.921" transform="translate(345.112 97.352)" fill="#fff"/>
    <rect id="Rectangle_14234" data-name="Rectangle 14234" width="31.869" height="7.842" rx="3.921" transform="translate(345.112 114.918)" fill="#fff"/>
    <path id="Path_117071" data-name="Path 117071" d="M464.654,1198.54l-2.434,21.772H474.8L479.258,1198Z" transform="translate(-142.616 -665.059)" fill="#fff"/>
    <path id="Path_117072" data-name="Path 117072" d="M473.6,1219.915H461.023a.811.811,0,0,1-.811-.909l2.434-21.772a.811.811,0,0,1,.783-.726l14.6-.54a.811.811,0,0,1,.832.978l-4.462,22.312a.811.811,0,0,1-.8.657Zm-11.663-1.623h10.99l4.126-20.636-12.872.467Z" transform="translate(-141.419 -663.852)" fill="#262424"/>
    <path id="Path_117073" data-name="Path 117073" d="M434.759,596.709c7.261,40.339,6.953,85.125,4.255,122.99-.746,10.418-1.667,20.283-2.661,29.435-3.769,34.559-8.409,64.578-8.409,64.578H403.016c-3.586-56.976-23.606-158.364-23.606-158.364-14.332-17.038-19.76-43.812-19.76-43.812C364.907,561.883,429.567,567.94,434.759,596.709Z" transform="translate(-81.655 -294.564)" fill="#707070"/>
    <path id="Path_117074" data-name="Path 117074" d="M464.434,838.87h0a.811.811,0,0,1-.811-.836c1.821-80.038-21.845-203.563-22.084-204.8a.826.826,0,1,1,1.623-.308c.239,1.241,23.934,124.945,22.117,205.15a.811.811,0,0,1-.844.8Z" transform="translate(-130.316 -328.817)" fill="#262424"/>
    <path id="Path_117075" data-name="Path 117075" d="M456.786,661.946a.811.811,0,0,1-.588-1.387l4.174-4.316a9.736,9.736,0,0,0,2.673-8.061l-3.107-24.161a.818.818,0,1,1,1.623-.207l3.107,24.161a11.359,11.359,0,0,1-3.12,9.407l-4.174,4.316A.811.811,0,0,1,456.786,661.946Z" transform="translate(-138.895 -323.376)" fill="#262424"/>
    <path id="Path_117076" data-name="Path 117076" d="M533.68,932.042c-.746,10.417-1.667,20.283-2.661,29.435-6.734-.523-12.065-6.9-12.089-14.734-.024-8.178,5.773-14.823,12.941-14.843A11.144,11.144,0,0,1,533.68,932.042Z" transform="translate(-176.321 -506.907)" fill="#fff"/>
    <path id="Path_117077" data-name="Path 117077" d="M456.175,1153.5h30.51a3.116,3.116,0,0,1,3.071,3.651l-2.99,17.5a3.116,3.116,0,0,1-3.071,2.592h-27.52a3.115,3.115,0,0,1-3.116-3.115v-17.5a3.116,3.116,0,0,1,3.116-3.128Z" transform="translate(-137.172 -638.611)"/>
    <path id="Path_117078" data-name="Path 117078" d="M502.814,1282.106H441.42c.041-2.3.13-4.56.264-6.758A182.55,182.55,0,0,1,446.957,1241h20.6c7.152,14.332,20.961,21.468,28.559,24.45a9.367,9.367,0,0,1,5.886,7.874l.183,2.028Z" transform="translate(-130.254 -690.616)" fill="#707070"/>
    <path id="Path_117079" data-name="Path 117079" d="M502.814,1332.428H441.42c.041-2.3.13-4.56.264-6.758H502.2Z" transform="translate(-130.254 -740.938)" fill="#fff"/>
    <path id="Path_117080" data-name="Path 117080" d="M501.625,1332.053H440.231a.812.812,0,0,1-.811-.832c.041-2.276.13-4.564.264-6.795a.811.811,0,0,1,.811-.767h60.513a.811.811,0,0,1,.811.742l.617,6.758a.811.811,0,0,1-.811.893Zm-60.558-1.623h59.661l-.466-5.124H441.278c-.105,1.675-.17,3.391-.211,5.107Z" transform="translate(-129.065 -739.743)" fill="#262424"/>
    <path id="Path_117081" data-name="Path 117081" d="M348.1,1198.54l-2.434,21.772h12.576L362.708,1198Z" transform="translate(-73.347 -665.059)" fill="#fff"/>
    <path id="Path_117082" data-name="Path 117082" d="M357.048,1219.915H344.473a.811.811,0,0,1-.811-.909l2.434-21.772a.811.811,0,0,1,.783-.726l14.6-.54a.811.811,0,0,1,.832.978l-4.462,22.312a.811.811,0,0,1-.8.657Zm-11.663-1.623h10.985l4.126-20.636-12.864.475Z" transform="translate(-72.149 -663.852)" fill="#262424"/>
    <path id="Path_117083" data-name="Path 117083" d="M428.294,614.732c-1.708,40.972-11.764,84.594-22.665,120.958-3,10-6.053,19.472-9.014,28.145-11.209,32.891-21.058,54.948-21.058,54.948L350,819.594c8.925-56.388,11.493-159.7,11.493-159.7-10.276-19.74-9.736-47.057-9.736-47.057C367.715,565.513,429.511,585.524,428.294,614.732Z" transform="translate(-75.92 -300.446)" fill="#707070"/>
    <path id="Path_117084" data-name="Path 117084" d="M460.765,955.994c-3,10-6.053,19.472-9.014,28.145-6.458-1.98-10.267-9.375-8.584-17.014,1.761-7.988,8.864-13.208,15.866-11.663a11.148,11.148,0,0,1,1.732.531Z" transform="translate(-131.056 -520.75)" fill="#fff"/>
    <path id="Path_117085" data-name="Path 117085" d="M458.44,801.634a.811.811,0,0,1-.771-1.087q1.059-3.022,2.138-6.186c3.2-9.379,6.223-18.839,9.006-28.117,13.561-45.3,21.176-85.932,22.632-120.755a20.129,20.129,0,0,0-1.347-8.057.819.819,0,0,1,1.529-.584,21.747,21.747,0,0,1,1.44,8.706c-1.456,34.96-9.1,75.726-22.717,121.156-2.787,9.3-5.821,18.774-9.022,28.174q-1.079,3.168-2.138,6.2A.811.811,0,0,1,458.44,801.634Z" transform="translate(-139.883 -331.235)" fill="#262424"/>
    <path id="Path_117086" data-name="Path 117086" d="M384.773,846.484a.811.811,0,0,1-.811-1.014c19.245-77.709,23.082-203.442,23.123-204.683a.812.812,0,0,1,1.623.049c-.037,1.262-3.878,127.152-23.147,205.036A.811.811,0,0,1,384.773,846.484Z" transform="translate(-96.09 -333.421)" fill="#262424"/>
    <path id="Path_117087" data-name="Path 117087" d="M437.837,673.36a.811.811,0,0,1-.458-1.521l5.014-3.3a9.736,9.736,0,0,0,4.369-7.3L449,636.976a.815.815,0,0,1,1.623.15l-2.235,24.259a11.359,11.359,0,0,1-5.1,8.519l-5.014,3.3A.811.811,0,0,1,437.837,673.36Z" transform="translate(-127.6 -331.184)" fill="#262424"/>
    <path id="Path_117088" data-name="Path 117088" d="M339.616,1153.5h30.51a3.116,3.116,0,0,1,3.071,3.651l-2.99,17.5a3.115,3.115,0,0,1-3.079,2.584H339.616a3.115,3.115,0,0,1-3.116-3.115v-17.5a3.116,3.116,0,0,1,3.116-3.12Z" transform="translate(-67.897 -638.611)"/>
    <path id="Path_117089" data-name="Path 117089" d="M386.264,1282.106H324.87c.041-2.3.13-4.56.264-6.758A182.55,182.55,0,0,1,330.407,1241h20.6c7.152,14.332,20.961,21.468,28.559,24.45a9.367,9.367,0,0,1,5.886,7.874l.183,2.028Z" transform="translate(-60.985 -690.616)" fill="#707070"/>
    <path id="Path_117090" data-name="Path 117090" d="M386.264,1332.428H324.87c.041-2.3.13-4.56.264-6.758h60.513Z" transform="translate(-60.985 -740.938)" fill="#fff"/>
    <path id="Path_117091" data-name="Path 117091" d="M385.074,1332.053H323.681a.811.811,0,0,1-.811-.832c.041-2.276.13-4.564.264-6.795a.811.811,0,0,1,.811-.767h60.513a.811.811,0,0,1,.811.742l.617,6.758a.811.811,0,0,1-.811.893Zm-60.558-1.623h59.661l-.467-5.124h-59c-.093,1.675-.17,3.391-.2,5.107Z" transform="translate(-59.796 -739.743)" fill="#262424"/>
    <path id="Path_117092" data-name="Path 117092" d="M541.161,344.733l4.462,3.651,16.9-22.312s-3.789-9.6-3.789-10.815,5.545-12.17,7.3-13.659,2.974-.134,2.974,1.351-2.028,9.241-2.028,9.241S582.267,298.353,585.241,297s3.923.54,2.3,2.568-7.3,7.168-7.3,7.168,10.819-5.813,12.442-5.679,7.708,5.679,5.545,10.276-25.017,18.255-25.017,18.255-8.925,43.844-13.927,48.424-32.8-13.172-32.8-13.172Z" transform="translate(-180.808 -129.295)" fill="#fff"/>
    <path id="Path_117093" data-name="Path 117093" d="M555.524,378.36c-3.322,0-8.649-1.89-16.117-5.679s-14.523-8.3-14.6-8.345a.811.811,0,0,1-.219-1.172l14.677-20.129a.811.811,0,0,1,1.18-.15L544.247,346l16.109-21.273c-1.051-2.677-3.675-9.489-3.675-10.689,0-1.55,5.679-12.677,7.59-14.284a2.58,2.58,0,0,1,2.86-.645,2.84,2.84,0,0,1,1.46,2.621,51.5,51.5,0,0,1-1.391,6.831c4.28-3.821,14.044-12.43,16.462-13.529s3.5-.207,3.838.235c.7.9.487,2.28-.564,3.59a42.363,42.363,0,0,1-3.067,3.209c3.168-1.574,6.6-3.128,7.635-3.047,1.3.11,4,2.3,5.541,4.949,1.347,2.328,1.578,4.572.677,6.491-2.109,4.531-21.545,16.352-25.009,18.433-1.217,5.915-9.164,43.99-14.105,48.514A4.4,4.4,0,0,1,555.524,378.36ZM526.43,363.407c10.624,6.7,27.845,15.748,31.074,12.791,3.943-3.61,11.213-35.865,13.679-47.986a.811.811,0,0,1,.381-.539c6.3-3.765,23.009-14.316,24.7-17.9a5.419,5.419,0,0,0-.588-4.933c-1.371-2.4-3.708-4.126-4.284-4.182h0c-.99,0-6.864,2.84-11.979,5.586a.812.812,0,1,1-.937-1.327c.057-.053,5.651-5.115,7.213-7.071.613-.763.69-1.387.548-1.566s-.759-.256-1.87.251c-2.345,1.067-13.821,11.225-18.044,15.05a.811.811,0,0,1-1.339-.811,82.717,82.717,0,0,0,2-9.034,1.27,1.27,0,0,0-.515-1.136c-.26-.122-.665.028-1.116.406-1.623,1.359-6.868,11.785-7.014,13.062a100.774,100.774,0,0,0,3.732,10.491.811.811,0,0,1-.11.811l-16.9,22.312a.811.811,0,0,1-1.168.138l-3.813-3.12Z" transform="translate(-179.586 -128.079)" fill="#262424"/>
    <path id="Path_117094" data-name="Path 117094" d="M446.626,336.415c9.221,2.621,36.782,30.494,36.782,30.494l-16.024,28.6s-31.033-19.269-39.552-32.048S422.829,329.657,446.626,336.415Z" transform="translate(-119.675 -152.214)"/>
    <path id="Path_117095" data-name="Path 117095" d="M513.425,433.442a.811.811,0,0,1-.714-1.217l14.953-26.774a.821.821,0,1,1,1.428.811l-14.949,26.75A.811.811,0,0,1,513.425,433.442Z" transform="translate(-172.56 -193.774)" fill="#262424"/>
    <path id="Path_117096" data-name="Path 117096" d="M373.551,325.851a48.1,48.1,0,0,0-21.5,7.574L350.7,369.257l9.541,35.974s-12.247,41.1-16.571,59.763H429.4s-5.14-40.295-14.6-70.046c0,0,5.951-21.906,5.14-30.291s-20.823-33.8-20.823-33.8S384.776,324.906,373.551,325.851Z" transform="translate(-72.158 -146.651)"/>
    <path id="Path_117097" data-name="Path 117097" d="M407.619,314.336c7.748,1.286,12.17,6.9,12.657,11.148s-2.531,7.846-5.4,8.4c0,0-2.868-8.3-5.063-8.519s-3.8,8.9-3.8,8.9-10.381-1.047-13.164-10.186C390.93,317.772,398.589,312.819,407.619,314.336Z" transform="translate(-101.212 -139.704)" fill="#fff"/>
    <path id="Path_117098" data-name="Path 117098" d="M404.821,333.894h-.081c-.11,0-10.953-1.217-13.866-10.762a7.087,7.087,0,0,1,1.546-6.945c2.876-3.282,8.426-4.787,14.137-3.838h0c7.9,1.314,12.77,7.087,13.334,11.862.556,4.681-2.746,8.661-6.057,9.3a.811.811,0,0,1-.929-.535c-1.44-4.162-3.481-7.89-4.373-7.979-.771.126-2.191,4.126-2.909,8.227A.811.811,0,0,1,404.821,333.894ZM403.158,313.7c-3.967,0-7.513,1.286-9.509,3.562a5.436,5.436,0,0,0-1.217,5.387c2.166,7.115,9.375,9.046,11.72,9.493.71-3.708,2.15-9.022,4.539-8.783,2.272.227,4.547,5.748,5.493,8.341a7.053,7.053,0,0,0,4.057-7.3c-.495-4.178-4.868-9.253-11.979-10.438h0a19.153,19.153,0,0,0-3.107-.26Z" transform="translate(-100.016 -138.521)" fill="#262424"/>
    <path id="Path_117099" data-name="Path 117099" d="M423.978,302.459a5.16,5.16,0,0,1-3.582,3.927,12.718,12.718,0,0,1-9.136-3.927l.925-16.839,3.152.661,7.671,1.623.811,12.109Z" transform="translate(-112.329 -122.801)" fill="#fff"/>
    <path id="Path_117100" data-name="Path 117100" d="M419.014,306.007a13.5,13.5,0,0,1-9.537-4.186.811.811,0,0,1-.219-.6l.921-16.839a.811.811,0,0,1,.986-.755l10.819,2.272a.811.811,0,0,1,.649.746l.974,14.567a.807.807,0,0,1,0,.138,5.916,5.916,0,0,1-4.105,4.608.812.812,0,0,1-.252.053h-.231Zm-8.113-5.059a11.975,11.975,0,0,0,8.113,3.424h0a4.392,4.392,0,0,0,2.925-3.144l-.929-13.862-9.282-1.947Z" transform="translate(-111.138 -121.602)" fill="#262424"/>
    <path id="Path_117101" data-name="Path 117101" d="M427.619,300.976c-9.184-.9-9.959-12.616-9.959-12.616a14.324,14.324,0,0,1,1.477-1.1l7.671,1.623Z" transform="translate(-116.133 -123.776)" fill="#262424"/>
    <path id="Path_117102" data-name="Path 117102" d="M435.879,653.3h-71.4a.811.811,0,1,1,0-1.623h71.4a.811.811,0,0,1,0,1.623Z" transform="translate(-84.045 -340.363)" fill="#262424"/>
    <path id="Path_117103" data-name="Path 117103" d="M502.98,396.023a.811.811,0,0,1-.811-.986c1.684-8.073,2.406-14.052,2.093-17.294-.406-4.284-6.665-14.778-17.152-28.8a.819.819,0,1,1,1.31-.982c6.263,8.373,16.864,23.354,17.472,29.614.333,3.452-.381,9.436-2.122,17.784A.811.811,0,0,1,502.98,396.023Z" transform="translate(-157.312 -159.657)" fill="#262424"/>
    <path id="Path_117104" data-name="Path 117104" d="M302.079,470.517s-4.6,19.476-3.379,24.527,28.644,23.224,51.159,32.129c0,0,3.7,4.815,7.837,5.708s9.067-.783,9.067-.783,7.387,4.028,9.626,3.468,6.491-7.708,6.6-10.077-5.935-5.038-5.935-5.038,7.3.88,8.519-.568-6.726-5.476-9.914-6.259-16.507,4.028-16.507,4.028L325.34,484.739l3.813-10.3s3.919-12.089-9.517-14.551S302.079,470.517,302.079,470.517Z" transform="translate(-45.309 -226.191)" fill="#fff"/>
    <path id="Path_117105" data-name="Path 117105" d="M374.779,535.2c-2.584,0-7.614-2.576-9.253-3.452a20.1,20.1,0,0,1-9.156.7c-3.963-.856-7.42-4.9-8.17-5.829-22.831-9.071-50.112-27.143-51.451-32.616-1.262-5.168,3.168-24.1,3.355-24.9v-.061c.045-.138,4.523-13.756,18.5-11.192,4.369.811,7.464,2.673,9.188,5.57,2.7,4.519,1.03,9.817.957,10.04l-3.651,9.833,33.07,32.186c2.681-.953,13.415-4.641,16.5-3.882,2.7.665,9.862,4,10.588,6.239a1.363,1.363,0,0,1-.243,1.347c-.811.969-3.245,1.172-5.456,1.124,1.623,1.079,3.14,2.507,3.071,3.988-.126,2.649-4.523,10.142-7.225,10.831a2.737,2.737,0,0,1-.625.077Zm-9.168-5.152a.811.811,0,0,1,.406.1c2.953,1.623,7.708,3.728,9.038,3.4,1.765-.442,5.886-7.233,5.988-9.33.057-1.168-3.128-3.221-5.448-4.251a.811.811,0,0,1,.43-1.558c3.444.406,6.9.32,7.675-.191-.641-1.217-6.324-4.284-9.371-5.034-2.146-.527-10.973,2.178-16.036,4a.811.811,0,0,1-.848-.183l-33.833-32.916a.811.811,0,0,1-.195-.872l3.813-10.3s1.5-4.8-.811-8.677c-1.477-2.466-4.19-4.057-8.073-4.787-12.4-2.272-16.377,9.241-16.632,10.048-.207.88-4.5,19.4-3.351,24.1,1.091,4.462,27.561,22.425,50.668,31.561a.812.812,0,0,1,.349.264c.037.045,3.566,4.588,7.359,5.408,3.874.84,8.584-.742,8.633-.759A.811.811,0,0,1,365.611,530.05Z" transform="translate(-44.137 -224.972)" fill="#262424"/>
    <path id="Path_117106" data-name="Path 117106" d="M324.611,344.67c-6.32,3.886-27.111,57.941-27.111,57.941l32.453,9.026s10.194-35.382,11.213-41.682C344.963,346.427,324.611,344.67,324.611,344.67Z" transform="translate(-44.718 -157.897)"/>
    <path id="Path_117107" data-name="Path 117107" d="M377.51,401.511a.811.811,0,0,1-.787-1.039l1.623-5.732c3.777-13.541,6-22.109,6.43-24.77,2.6-16.081-6.41-21.606-12.008-23.468a.818.818,0,1,1,.515-1.554c6.085,2.028,15.894,8,13.107,25.277-.446,2.763-2.621,11.156-6.47,24.953l-1.623,5.736A.811.811,0,0,1,377.51,401.511Z" transform="translate(-89.118 -158.037)" fill="#262424"/>
    <path id="Path_117108" data-name="Path 117108" d="M332.72,480.326a.814.814,0,0,1-.227-.032l-25.48-7.367a.819.819,0,0,1,.454-1.574l25.48,7.367a.811.811,0,1,1-.227,1.607Z" transform="translate(-50.019 -233.169)" fill="#262424"/>
    <path id="Path_117109" data-name="Path 117109" d="M309.626,191.283c5.594,1.939,1.623,13.574-.15,17.29s1.432,13.918-5.387,17.728,6.929,17.074-10,32.246c-13.046,11.7-36.916,4.572-34.267-7.521s21.395-18.567,23.663-29.662c1.444-7.059-2.028-16.985,9.33-21.22C301.31,196.982,305.208,189.753,309.626,191.283Z" transform="translate(-22.204 -66.609)" fill="#262424"/>
    <path id="Path_117110" data-name="Path 117110" d="M456,257.835s3.245-4.827,6.738-3.185,2.316,13.273-6.276,11.687Z" transform="translate(-138.92 -104.192)" fill="#fff"/>
    <path id="Path_117111" data-name="Path 117111" d="M456.849,266.1a9.357,9.357,0,0,1-1.7-.162.811.811,0,0,1-.669-.759l-.462-8.519a.811.811,0,0,1,.138-.5c.15-.219,3.688-5.387,7.764-3.468,2.365,1.112,2.787,5.051,1.817,8.061C462.642,264.19,460.123,266.1,456.849,266.1Zm-.771-1.675a5.545,5.545,0,0,0,6.105-4.158c.884-2.754.211-5.529-.957-6.085-2.434-1.152-4.929,1.846-5.558,2.69Z" transform="translate(-137.741 -102.974)" fill="#262424"/>
    <path id="Path_117112" data-name="Path 117112" d="M387.073,206.867l-1.988-.945a1.935,1.935,0,0,0-1.959.17,6.514,6.514,0,0,0-1.988,2.146,4.507,4.507,0,0,0-.268,3.047,1.915,1.915,0,0,0,.864,1.217l2.138,1.331a1.943,1.943,0,0,0,2.84-.961l1.343-3.546A1.943,1.943,0,0,0,387.073,206.867Z" transform="translate(-94.179 -75.321)" fill="#fff"/>
    <path id="Path_117113" data-name="Path 117113" d="M383.7,213.745a2.751,2.751,0,0,1-1.456-.406l-2.138-1.331a2.718,2.718,0,0,1-1.217-1.712,5.274,5.274,0,0,1,.349-3.61,7.363,7.363,0,0,1,2.235-2.434,2.759,2.759,0,0,1,2.783-.243l1.988.945h0a2.775,2.775,0,0,1,1.4,3.468l-1.355,3.537A2.763,2.763,0,0,1,383.7,213.745Zm-.649-8.373a1.107,1.107,0,0,0-.645.207,5.745,5.745,0,0,0-1.74,1.862,3.7,3.7,0,0,0-.195,2.487,1.091,1.091,0,0,0,.5.686l2.138,1.331a1.124,1.124,0,0,0,1.647-.556l1.343-3.546a1.132,1.132,0,0,0-.568-1.412h0l-1.988-.945a1.132,1.132,0,0,0-.487-.114Z" transform="translate(-92.99 -74.138)" fill="#262424"/>
    <path id="Path_117114" data-name="Path 117114" d="M422.739,238.735c-.406,7.2-3.594,15.5-12.3,15.269-6.4-.162-13.48-7.87-14.016-17.606s1.152-18.044,12.852-17.444a28.265,28.265,0,0,1,3.72.491c6.783,1.5,9.375,2.105,9.878,15.452C422.914,236.07,422.82,237.376,422.739,238.735Z" transform="translate(-103.46 -83.162)" fill="#fff"/>
    <path id="Path_117115" data-name="Path 117115" d="M409.564,253.623h-.406c-6.535-.174-14.227-7.764-14.815-18.373-.284-5.124-.134-11.488,3.574-15.217,2.272-2.284,5.679-3.331,10.142-3.107a29.138,29.138,0,0,1,3.854.507c7.424,1.623,10.016,2.888,10.519,16.227.041,1.067-.028,2.2-.1,3.4l-.032.519C421.888,245.38,418.306,253.623,409.564,253.623Zm-2.677-35.094c-3.456,0-6.012.872-7.781,2.653-2.5,2.519-3.489,6.957-3.1,13.971.523,9.44,7.412,16.673,13.225,16.827,9.886.26,11.269-11.03,11.46-14.5h0l.032-.523c.069-1.16.134-2.256.1-3.245-.479-12.75-2.686-13.237-9.237-14.685a27.584,27.584,0,0,0-3.582-.475q-.576-.024-1.116-.024Z" transform="translate(-102.219 -81.957)" fill="#262424"/>
    <path id="Path_117116" data-name="Path 117116" d="M392.223,225.339a6.9,6.9,0,0,0,4.365-5.558c.126-.836.2-1.959.446-2.978,4.909,5.14,14.174,8.259,18.21,9.428a3.144,3.144,0,0,0,3.489-1.18c4.714-6.957-.9-20.283-9.935-20.032-10.251-7.1-22.226-1.939-23.934,6.722C382.974,221.344,389.335,226.556,392.223,225.339Z" transform="translate(-96.436 -72.914)" fill="#262424"/>
    <path id="Path_117117" data-name="Path 117117" d="M386.317,257.719s-4.722-4.868-9.7-3.29-2.081,13.172,10.194,11.716Z" transform="translate(-90.368 -104.076)" fill="#fff"/>
    <path id="Path_117118" data-name="Path 117118" d="M383.555,265.912c-6.491,0-10.267-3.736-11.1-7.558-.609-2.8.483-5.168,2.718-5.882,5.391-1.724,10.324,3.286,10.547,3.5a.819.819,0,1,1-1.176,1.14c-.057-.057-4.462-4.495-8.856-3.079-1.6.511-1.967,2.365-1.623,3.976.767,3.525,4.681,6.953,11.464,6.15a.817.817,0,1,1,.195,1.623,18.325,18.325,0,0,1-2.17.13Z" transform="translate(-89.167 -102.886)" fill="#262424"/>
    <path id="Path_117119" data-name="Path 117119" d="M1071.481,1223.308a.811.811,0,0,1-.811-.811v-5.5a.811.811,0,1,1,1.623,0v5.5A.811.811,0,0,1,1071.481,1223.308Z" transform="translate(-504.239 -675.864)" fill="#262424"/>
    <path id="Path_117120" data-name="Path 117120" d="M1083.886,1238.273h-5.5a.811.811,0,0,1,0-1.623h5.5a.811.811,0,0,1,0,1.623Z" transform="translate(-508.34 -688.03)" fill="#262424"/>
    <path id="Path_117121" data-name="Path 117121" d="M1071.481,1250.668a.811.811,0,0,1-.811-.811v-5.5a.811.811,0,0,1,1.623,0v5.5A.811.811,0,0,1,1071.481,1250.668Z" transform="translate(-504.239 -692.125)" fill="#262424"/>
    <path id="Path_117122" data-name="Path 117122" d="M1056.516,1238.273h-5.505a.811.811,0,0,1,0-1.623h5.5a.811.811,0,1,1,0,1.623Z" transform="translate(-492.073 -688.03)" fill="#262424"/>
    <path id="Path_117123" data-name="Path 117123" d="M280.381,772.548a.811.811,0,0,1-.811-.811v-4.706a.811.811,0,1,1,1.623,0v4.7a.811.811,0,0,1-.811.819Z" transform="translate(-34.061 -408.438)" fill="#262424"/>
    <path id="Path_117124" data-name="Path 117124" d="M290.953,785.323h-4.681a.811.811,0,0,1,0-1.623h4.681a.811.811,0,1,1,0,1.623Z" transform="translate(-37.562 -418.827)" fill="#262424"/>
    <path id="Path_117125" data-name="Path 117125" d="M280.381,795.894a.811.811,0,0,1-.811-.811v-4.7a.811.811,0,1,1,1.623,0v4.7a.811.811,0,0,1-.811.815Z" transform="translate(-34.061 -422.316)" fill="#262424"/>
    <path id="Path_117126" data-name="Path 117126" d="M267.619,785.323h-4.7a.811.811,0,0,1,0-1.623h4.7a.811.811,0,0,1,0,1.623Z" transform="translate(-23.684 -418.827)" fill="#262424"/>
    <path id="Path_117127" data-name="Path 117127" d="M1299.881,571.384a.811.811,0,0,1-.811-.811v-4.7a.811.811,0,1,1,1.623,0v4.7a.811.811,0,0,1-.811.815Z" transform="translate(-639.984 -288.882)" fill="#262424"/>
    <path id="Path_117128" data-name="Path 117128" d="M1310.459,584.153h-4.7a.811.811,0,1,1,0-1.623h4.7a.811.811,0,0,1,0,1.623Z" transform="translate(-643.479 -299.265)" fill="#262424"/>
    <path id="Path_117129" data-name="Path 117129" d="M1299.881,594.728a.811.811,0,0,1-.811-.811v-4.706a.811.811,0,1,1,1.623,0v4.706A.811.811,0,0,1,1299.881,594.728Z" transform="translate(-639.984 -302.754)" fill="#262424"/>
    <path id="Path_117130" data-name="Path 117130" d="M1287.109,584.153h-4.7a.811.811,0,0,1,0-1.623h4.7a.811.811,0,1,1,0,1.623Z" transform="translate(-629.601 -299.265)" fill="#262424"/>
    <circle id="Ellipse_9966" data-name="Ellipse 9966" cx="3.493" cy="3.493" r="3.493" transform="translate(222.26 421.946)"/>
    <circle id="Ellipse_9967" data-name="Ellipse 9967" cx="6.827" cy="6.827" r="6.827" transform="translate(613.347 555.252)" fill="#707070"/>
    <circle id="Ellipse_9968" data-name="Ellipse 9968" cx="5.683" cy="5.683" r="5.683" transform="translate(403.706 491.725)"/>
  </g>
</svg>
