<svg id="presention-chart_twotone" data-name="presention-chart/twotone" xmlns="http://www.w3.org/2000/svg" width="48" height="48" viewBox="0 0 48 48">
  <g id="vuesax_twotone_presention-chart" data-name="vuesax/twotone/presention-chart">
    <g id="presention-chart">
      <path id="Vector" d="M5.82,30H30.2C34,30,36,28,36,24.2V0H0V24.2C.02,28,2.02,30,5.82,30Z" transform="translate(5.98 4)" fill="none" stroke="#292d32" stroke-linecap="round" stroke-linejoin="round" stroke-width="2.5"/>
      <path id="Vector-2" data-name="Vector" d="M0,0H40" transform="translate(4 4)" fill="none" stroke="#292d32" stroke-linecap="round" stroke-linejoin="round" stroke-width="2.5"/>
      <g id="Group_78" data-name="Group 78" transform="translate(16 34)" opacity="0.4">
        <path id="Vector-3" data-name="Vector" d="M0,10,8,6V0" fill="none" stroke="#292d32" stroke-linecap="round" stroke-linejoin="round" stroke-width="2.5"/>
        <path id="Vector-4" data-name="Vector" d="M4,3l8,4" transform="translate(4 3)" fill="none" stroke="#292d32" stroke-linecap="round" stroke-linejoin="round" stroke-width="2.5"/>
      </g>
      <path id="Vector-5" data-name="Vector" d="M0,6,6.3.74A.964.964,0,0,1,7.8,1l2.4,4a.976.976,0,0,0,1.5.26L18,0" transform="translate(15 16)" fill="none" stroke="#292d32" stroke-linecap="round" stroke-linejoin="round" stroke-width="2.5" opacity="0.4"/>
      <path id="Vector-6" data-name="Vector" d="M0,0H48V48H0Z" fill="none" opacity="0"/>
    </g>
  </g>
</svg>
