<svg xmlns="http://www.w3.org/2000/svg" width="443.879" height="514.311" viewBox="0 0 443.879 514.311">
  <g id="Report" transform="translate(-77.94 -43.345)">
    <g id="ORNAMENT">
      <g id="Group_56218" data-name="Group 56218">
        <path id="Path_116934" data-name="Path 116934" d="M521.819,327.613A10.22,10.22,0,0,0,511.6,337.831a10.22,10.22,0,0,0-10.218-10.218A10.22,10.22,0,0,0,511.6,317.4a10.22,10.22,0,0,0,10.218,10.218Z"/>
        <path id="Path_116935" data-name="Path 116935" d="M126.748,225.221a10.116,10.116,0,0,0-10.113,10.113,10.116,10.116,0,0,0-10.113-10.113,10.116,10.116,0,0,0,10.113-10.113,10.116,10.116,0,0,0,10.113,10.113Z" fill="#707070"/>
        <path id="Path_116936" data-name="Path 116936" d="M391.309,288.462a6.468,6.468,0,0,0-6.466,6.466,6.468,6.468,0,0,0-6.466-6.466A6.468,6.468,0,0,0,384.843,282a6.468,6.468,0,0,0,6.466,6.466Z" fill="#707070"/>
        <path id="Path_116937" data-name="Path 116937" d="M88.244,310.3a5.033,5.033,0,0,0-5.032,5.032,5.033,5.033,0,0,0-5.032-5.032,5.033,5.033,0,0,0,5.032-5.032,5.033,5.033,0,0,0,5.032,5.032Z"/>
        <circle id="Ellipse_9932" data-name="Ellipse 9932" cx="2.207" cy="2.207" r="2.207" transform="translate(471.22 284.048)" fill="#707070"/>
        <circle id="Ellipse_9933" data-name="Ellipse 9933" cx="3.166" cy="3.166" r="3.166" transform="translate(508.436 535.728)"/>
        <circle id="Ellipse_9934" data-name="Ellipse 9934" cx="4.789" cy="4.789" r="4.789" transform="translate(119.022 395.786)" fill="#707070"/>
      </g>
    </g>
    <g id="REPORT-2" data-name="REPORT">
      <g id="Group_56232" data-name="Group 56232">
        <g id="Group_56220" data-name="Group 56220">
          <path id="Path_116938" data-name="Path 116938" d="M490.075,333.383V545.545a11.114,11.114,0,0,1-11.11,11.11H172.9a11.105,11.105,0,0,1-11.1-11.11V333.383a11.105,11.105,0,0,1,11.1-11.11H478.965A11.113,11.113,0,0,1,490.075,333.383Z" fill="#fff" stroke="#262424" stroke-linecap="round" stroke-linejoin="round" stroke-width="2"/>
          <path id="Path_116939" data-name="Path 116939" d="M490.075,333.383v24.966H161.8V333.383a11.105,11.105,0,0,1,11.1-11.11H478.965A11.113,11.113,0,0,1,490.075,333.383Z" stroke="#262424" stroke-linecap="round" stroke-linejoin="round" stroke-width="2"/>
          <g id="Group_56219" data-name="Group 56219">
            <circle id="Ellipse_9935" data-name="Ellipse 9935" cx="6.809" cy="6.809" r="6.809" transform="translate(402.869 333.983)" fill="#fff" stroke="#262424" stroke-linecap="round" stroke-linejoin="round" stroke-width="2"/>
            <circle id="Ellipse_9936" data-name="Ellipse 9936" cx="6.809" cy="6.809" r="6.809" transform="translate(427.239 333.983)" fill="#fff" stroke="#262424" stroke-linecap="round" stroke-linejoin="round" stroke-width="2"/>
            <circle id="Ellipse_9937" data-name="Ellipse 9937" cx="6.809" cy="6.809" r="6.809" transform="translate(451.609 333.983)" fill="#fff" stroke="#262424" stroke-linecap="round" stroke-linejoin="round" stroke-width="2"/>
          </g>
        </g>
        <g id="Group_56231" data-name="Group 56231">
          <g id="Group_56230" data-name="Group 56230">
            <g id="Group_56221" data-name="Group 56221">
              <path id="Path_116940" data-name="Path 116940" d="M193.106,434.4h-7.2a3.089,3.089,0,0,1-3.089-3.089V394.24a3.089,3.089,0,0,1,3.089-3.089h7.2a3.089,3.089,0,0,1,3.089,3.089v37.066A3.089,3.089,0,0,1,193.106,434.4Z" fill="#707070"/>
              <path id="Path_116941" data-name="Path 116941" d="M214.848,434.4h-7.2a3.089,3.089,0,0,1-3.089-3.089V413.354a3.089,3.089,0,0,1,3.089-3.089h7.2a3.089,3.089,0,0,1,3.089,3.089v17.953A3.089,3.089,0,0,1,214.848,434.4Z" fill="#707070"/>
              <path id="Path_116942" data-name="Path 116942" d="M236.59,434.4h-7.2a3.089,3.089,0,0,1-3.089-3.089v-25.12a3.089,3.089,0,0,1,3.089-3.089h7.2a3.089,3.089,0,0,1,3.089,3.089v25.121A3.089,3.089,0,0,1,236.59,434.4Z" fill="#707070"/>
            </g>
            <g id="Group_56224" data-name="Group 56224">
              <path id="Path_116943" data-name="Path 116943" d="M276.948,456.55v63.786a5.012,5.012,0,0,1-5.017,5.017H186.879a5.012,5.012,0,0,1-5.017-5.017V456.55a5.012,5.012,0,0,1,5.017-5.017h85.052A5.012,5.012,0,0,1,276.948,456.55Z" fill="none" stroke="#262424" stroke-linecap="round" stroke-linejoin="round" stroke-width="2"/>
              <path id="Path_116944" data-name="Path 116944" d="M276.948,456.55v8.838H181.862V456.55a5.012,5.012,0,0,1,5.017-5.017h85.052A5.012,5.012,0,0,1,276.948,456.55Z"/>
              <g id="Group_56222" data-name="Group 56222">
                <line id="Line_4" data-name="Line 4" y2="50.651" transform="translate(204.557 469.927)" fill="none" stroke="#262424" stroke-linecap="round" stroke-linejoin="round" stroke-width="2"/>
                <line id="Line_5" data-name="Line 5" y2="50.651" transform="translate(229.405 469.927)" fill="none" stroke="#262424" stroke-linecap="round" stroke-linejoin="round" stroke-width="2"/>
                <line id="Line_6" data-name="Line 6" y2="50.651" transform="translate(254.253 469.927)" fill="none" stroke="#262424" stroke-linecap="round" stroke-linejoin="round" stroke-width="2"/>
              </g>
              <g id="Group_56223" data-name="Group 56223">
                <line id="Line_7" data-name="Line 7" x1="80.755" transform="translate(189.028 482.829)" fill="none" stroke="#262424" stroke-linecap="round" stroke-linejoin="round" stroke-width="2"/>
                <line id="Line_8" data-name="Line 8" x1="80.755" transform="translate(189.028 507.676)" fill="none" stroke="#262424" stroke-linecap="round" stroke-linejoin="round" stroke-width="2"/>
              </g>
            </g>
            <g id="Group_56225" data-name="Group 56225">
              <path id="Path_116945" data-name="Path 116945" d="M324.845,509.14H291.474a3.832,3.832,0,0,1-3.832-3.832v-.042a3.832,3.832,0,0,1,3.832-3.832h33.371a3.832,3.832,0,0,1,3.832,3.832v.042A3.832,3.832,0,0,1,324.845,509.14Z"/>
              <path id="Path_116946" data-name="Path 116946" d="M312.481,525.354H291.474a3.832,3.832,0,0,1-3.832-3.832v-.042a3.832,3.832,0,0,1,3.832-3.832h21.007a3.832,3.832,0,0,1,3.832,3.832v.042A3.832,3.832,0,0,1,312.481,525.354Z"/>
            </g>
            <g id="Group_56229" data-name="Group 56229">
              <g id="Group_56227" data-name="Group 56227">
                <path id="Path_116947" data-name="Path 116947" d="M413.777,430.268H465.8c2.263,0,4.092,2.242,4.092,5.017v85.052c0,2.775-1.829,5.017-4.092,5.017H413.777c-2.263,0-4.092-2.242-4.092-5.017V435.285C409.685,432.51,411.514,430.268,413.777,430.268Z" fill="#fff" stroke="#262424" stroke-linecap="round" stroke-linejoin="round" stroke-width="2"/>
                <line id="Line_9" data-name="Line 9" x2="42.289" transform="translate(418.642 501.435)" fill="#fff" stroke="#262424" stroke-linecap="round" stroke-linejoin="round" stroke-width="2"/>
                <line id="Line_10" data-name="Line 10" x2="42.289" transform="translate(418.642 510.543)" fill="#fff" stroke="#262424" stroke-linecap="round" stroke-linejoin="round" stroke-width="2"/>
                <g id="Group_56226" data-name="Group 56226">
                  <path id="Path_116948" data-name="Path 116948" d="M439.786,443.207A24.189,24.189,0,1,0,463.975,467.4,24.195,24.195,0,0,0,439.786,443.207Zm0,35.411A11.221,11.221,0,1,1,451.007,467.4,11.224,11.224,0,0,1,439.786,478.618Z" fill="#707070"/>
                  <path id="Path_116949" data-name="Path 116949" d="M463.976,467.4H451.008a11.224,11.224,0,0,0-11.221-11.221V443.208A24.194,24.194,0,0,1,463.976,467.4Z"/>
                </g>
              </g>
              <g id="Group_56228" data-name="Group 56228">
                <path id="Path_116950" data-name="Path 116950" d="M470.015,401.16l-.131.05v18.018c0,2.775-1.83,5.017-4.092,5.017H413.78c-2.262,0-4.092-2.242-4.092-5.017V400.155l2.725-1.016,20.954-7.752,15.1,5.59,7.2-2.664,14.217,5.269Z" fill="#707070"/>
                <path id="Path_116951" data-name="Path 116951" d="M469.885,401.21v18.018c0,2.775-1.83,5.017-4.092,5.017H413.78c-2.262,0-4.092-2.242-4.092-5.017V398.133l2.725,1.005,12.649,4.685,7.2-2.664,18.872,6.988Z"/>
                <path id="Path_116952" data-name="Path 116952" d="M409.688,396.575v22.653c0,2.775,1.83,5.017,4.092,5.017h52.012c2.262,0,4.092-2.242,4.092-5.017V396.575" fill="none" stroke="#262424" stroke-linecap="round" stroke-linejoin="round" stroke-width="2"/>
                <circle id="Ellipse_9938" data-name="Ellipse 9938" cx="1.743" cy="1.743" r="1.743" transform="translate(431.623 389.644)"/>
                <circle id="Ellipse_9939" data-name="Ellipse 9939" cx="1.743" cy="1.743" r="1.743" transform="translate(446.732 395.237)"/>
                <circle id="Ellipse_9940" data-name="Ellipse 9940" cx="1.743" cy="1.743" r="1.743" transform="translate(423.328 402.088)" fill="#fff"/>
                <circle id="Ellipse_9941" data-name="Ellipse 9941" cx="1.743" cy="1.743" r="1.743" transform="translate(430.518 399.411)" fill="#fff"/>
                <circle id="Ellipse_9942" data-name="Ellipse 9942" cx="1.743" cy="1.743" r="1.743" transform="translate(449.394 406.405)" fill="#fff"/>
                <circle id="Ellipse_9943" data-name="Ellipse 9943" cx="1.743" cy="1.743" r="1.743" transform="translate(453.944 392.579)"/>
              </g>
            </g>
          </g>
          <path id="Path_116953" data-name="Path 116953" d="M324.226,381.895,302.991,403.13a2.466,2.466,0,0,0-.218,3.239l50.858,66.742a2.466,2.466,0,0,1-.218,3.239l-4.348,4.348a2.466,2.466,0,0,0,0,3.488L363.386,498.5a2.466,2.466,0,0,1,.485,2.8l-2.552,5.388a2.466,2.466,0,0,0-.052,1.994l8.812,21.415a2.466,2.466,0,0,0,2.281,1.528h0a2.466,2.466,0,0,0,2.443-2.8l-1.886-13.741a2.466,2.466,0,0,1,1.322-2.532l7.727-3.946a2.466,2.466,0,0,0,1.243-2.895l-2.41-8.159a2.466,2.466,0,0,1,.621-2.442l11.186-11.186a2.466,2.466,0,0,0,.42-2.927l-9.433-17.255a2.466,2.466,0,0,0-2.164-1.283H354.988a2.466,2.466,0,0,1-2.038-1.078l-6.538-9.6a2.466,2.466,0,0,1,.294-3.132l.466-.466a2.466,2.466,0,0,1,2.876-.447l8.823,4.56a2.466,2.466,0,0,0,3.2-.844l11.3-17.321a2.466,2.466,0,0,0-.067-2.792L359.9,412.8a2.466,2.466,0,0,0-2.682-.925l-8.127,2.342a2.466,2.466,0,0,1-2.427-.626l-2.482-2.482a2.466,2.466,0,0,1,.519-3.884l8.643-4.948a2.466,2.466,0,0,0,1.017-3.168l-5.364-11.7a2.466,2.466,0,0,0-1.687-1.375l-20.781-4.8A2.469,2.469,0,0,0,324.226,381.895Z" fill="#707070"/>
        </g>
      </g>
    </g>
    <g id="PLANT">
      <g id="Group_56236" data-name="Group 56236">
        <g id="Group_56235" data-name="Group 56235">
          <g id="Group_56233" data-name="Group 56233">
            <path id="Path_116954" data-name="Path 116954" d="M130.279,494.089a127.977,127.977,0,0,1-16.575,21.22c-8.1-20.27-6.965-38.292-2.157-53.089a91.219,91.219,0,0,1,12.81-24.933,95.6,95.6,0,0,1,16.4-17.885c9.648,21.985,5.012,43.735-2.953,60.939A120.584,120.584,0,0,1,130.279,494.089Z" fill="#707070"/>
            <path id="Path_116955" data-name="Path 116955" d="M130.279,494.089c-4.187-21.278-8.183-13.117-14.364-21.977a30.494,30.494,0,0,1-4.368-9.892,91.219,91.219,0,0,1,12.81-24.933c-.5,4-.894,12.22,2.649,19.47,4.722,9.656,9.889,2.352,10.8,23.584A120.6,120.6,0,0,1,130.279,494.089Z" fill="#fff"/>
            <path id="Path_116956" data-name="Path 116956" d="M138.552,426.821s-13.064,54.983-23.607,82.44" fill="none" stroke="#262424" stroke-linecap="round" stroke-linejoin="round" stroke-width="2"/>
          </g>
          <g id="Group_56234" data-name="Group 56234">
            <path id="Path_116957" data-name="Path 116957" d="M117.226,484.868a151.5,151.5,0,0,1-5.355,31.422C92.049,499.715,83.107,480.3,79.807,462.178A107.985,107.985,0,0,1,79.153,429,113.163,113.163,0,0,1,86.2,401.154c22.4,17.492,29.786,42.76,31.147,65.162A142.728,142.728,0,0,1,117.226,484.868Z"/>
            <path id="Path_116958" data-name="Path 116958" d="M117.226,484.868c-16.313-19.822-15.895-9.073-27.311-14.834a36.1,36.1,0,0,1-10.107-7.856A107.985,107.985,0,0,1,79.153,429c1.728,4.451,5.931,13.237,13.695,18.8,10.343,7.41,11.626-3.1,24.5,18.513A142.73,142.73,0,0,1,117.226,484.868Z" fill="#fff"/>
            <path id="Path_116959" data-name="Path 116959" d="M88.067,410.124s17.267,64.634,21.7,99.167" fill="none" stroke="#262424" stroke-linecap="round" stroke-linejoin="round" stroke-width="2"/>
          </g>
        </g>
        <path id="Path_116960" data-name="Path 116960" d="M145.215,508.121c0,34.067-12.608,48.534-12.608,48.534H91.548S78.94,542.188,78.94,508.121h66.275Z" fill="#fff" stroke="#262424" stroke-linecap="round" stroke-linejoin="round" stroke-width="2"/>
      </g>
    </g>
    <g id="ORNAMENT_2">
      <g id="Group_56238" data-name="Group 56238">
        <g id="Group_56237" data-name="Group 56237">
          <path id="Path_116961" data-name="Path 116961" d="M171.135,131.35l-10.277,10.277H148.8" fill="none" stroke="#262424" stroke-linecap="round" stroke-linejoin="round" stroke-width="2"/>
          <circle id="Ellipse_9944" data-name="Ellipse 9944" cx="3.832" cy="3.832" r="3.832" transform="translate(141.135 137.795)"/>
        </g>
        <path id="Path_116962" data-name="Path 116962" d="M91.041,136.652h31.931a4.975,4.975,0,0,1,4.975,4.975h0a4.975,4.975,0,0,1-4.975,4.975H91.041a4.975,4.975,0,0,1-4.975-4.975h0A4.975,4.975,0,0,1,91.041,136.652Z" fill="#707070"/>
      </g>
    </g>
    <g id="PIE_CHART">
      <g id="Group_56244" data-name="Group 56244">
        <g id="Group_56239" data-name="Group 56239">
          <path id="Path_116963" data-name="Path 116963" d="M406.907,60.249A89.353,89.353,0,1,0,496.26,149.6,89.373,89.373,0,0,0,406.907,60.249Zm0,130.8A41.449,41.449,0,1,1,448.356,149.6,41.462,41.462,0,0,1,406.907,191.051Z" fill="#fff" stroke="#262424" stroke-linecap="round" stroke-linejoin="round" stroke-width="2"/>
          <path id="Path_116964" data-name="Path 116964" d="M451.254,146.6a44.518,44.518,0,0,0-41.348-41.349V63.3a86.459,86.459,0,0,1,83.3,83.3H451.254Z"/>
        </g>
        <g id="Group_56241" data-name="Group 56241">
          <g id="Group_56240" data-name="Group 56240">
            <path id="Path_116965" data-name="Path 116965" d="M433.1,58.6,443.376,48.32h12.06" fill="none" stroke="#262424" stroke-linecap="round" stroke-linejoin="round" stroke-width="2"/>
            <circle id="Ellipse_9945" data-name="Ellipse 9945" cx="3.832" cy="3.832" r="3.832" transform="translate(455.436 44.489)"/>
          </g>
          <path id="Path_116966" data-name="Path 116966" d="M513.193,53.3H481.262a4.975,4.975,0,0,1-4.975-4.975h0a4.975,4.975,0,0,1,4.975-4.975h31.931a4.975,4.975,0,0,1,4.975,4.975h0A4.975,4.975,0,0,1,513.193,53.3Z" fill="#707070"/>
        </g>
        <g id="Group_56243" data-name="Group 56243">
          <g id="Group_56242" data-name="Group 56242">
            <path id="Path_116967" data-name="Path 116967" d="M433.1,240.606l10.277,10.278h12.06" fill="none" stroke="#262424" stroke-linecap="round" stroke-linejoin="round" stroke-width="2"/>
            <circle id="Ellipse_9946" data-name="Ellipse 9946" cx="3.832" cy="3.832" r="3.832" transform="translate(455.436 247.052)"/>
          </g>
          <path id="Path_116968" data-name="Path 116968" d="M513.193,245.908H481.262a4.975,4.975,0,0,0-4.975,4.975h0a4.975,4.975,0,0,0,4.975,4.975h31.931a4.975,4.975,0,0,0,4.975-4.975h0A4.975,4.975,0,0,0,513.193,245.908Z" fill="#707070"/>
        </g>
      </g>
    </g>
    <g id="ARROW">
      <path id="Path_116969" data-name="Path 116969" d="M200.9,167.639v15.22l-2.7-2.7-16.5,16.5-9.83-9.83-1-1-10.84,10.83-9.83-9.83L161.038,176l9.83-9.83L181.7,177l6.67-6.67-2.69-2.69Z"/>
    </g>
    <g id="CHART_1">
      <g id="Group_56245" data-name="Group 56245">
        <path id="Path_116970" data-name="Path 116970" d="M205.594,92.584l-.13.05v17.92c0,2.76-1.82,4.99-4.07,4.99h-51.73c-2.25,0-4.07-2.23-4.07-4.99V91.584l2.71-1.01,20.84-7.71,15.02,5.56,7.16-2.65,14.14,5.24Z" fill="#707070"/>
        <path id="Path_116971" data-name="Path 116971" d="M205.464,92.634v17.92c0,2.76-1.82,4.99-4.07,4.99h-51.73c-2.25,0-4.07-2.23-4.07-4.99V89.574l2.71,1,12.58,4.66,7.16-2.65,18.77,6.95Z"/>
        <path id="Path_116972" data-name="Path 116972" d="M145.594,88.024v22.53c0,2.76,1.82,4.99,4.07,4.99h51.73c2.25,0,4.07-2.23,4.07-4.99V88.024" fill="none" stroke="#262424" stroke-linecap="round" stroke-linejoin="round" stroke-width="2"/>
        <circle id="Ellipse_9947" data-name="Ellipse 9947" cx="1.733" cy="1.733" r="1.733" transform="translate(167.411 81.131)"/>
        <circle id="Ellipse_9948" data-name="Ellipse 9948" cx="1.733" cy="1.733" r="1.733" transform="translate(182.438 86.694)"/>
        <circle id="Ellipse_9949" data-name="Ellipse 9949" cx="1.733" cy="1.733" r="1.733" transform="translate(159.161 93.508)" fill="#fff"/>
        <circle id="Ellipse_9950" data-name="Ellipse 9950" cx="1.733" cy="1.733" r="1.733" transform="translate(166.312 90.846)" fill="#fff"/>
        <circle id="Ellipse_9951" data-name="Ellipse 9951" cx="1.733" cy="1.733" r="1.733" transform="translate(185.086 97.801)" fill="#fff"/>
        <circle id="Ellipse_9952" data-name="Ellipse 9952" cx="1.733" cy="1.733" r="1.733" transform="translate(189.611 84.051)"/>
      </g>
    </g>
    <g id="RIGHT_ARM">
      <g id="Group_56247" data-name="Group 56247">
        <g id="Group_56246" data-name="Group 56246">
          <path id="Path_116973" data-name="Path 116973" d="M242.361,245.042q-.555,1.775-1.115,3.266c-.46,1.239-.94,2.441-1.425,3.588a16.415,16.415,0,0,1-19.508,9.328,17.471,17.471,0,0,1-12.449-20.619l2.17-15.385s16.494-63.8,20.02-72.227c3.653-8.733,13.907-14.453,13.907-14.453,10.427,9.92,12.161,23.835,8.922,49.266C251.7,197.1,247.458,228.792,242.361,245.042Z"/>
          <path id="Path_116974" data-name="Path 116974" d="M242.361,245.042q-.555,1.775-1.115,3.266c-.46,1.239-.94,2.441-1.425,3.588a16.387,16.387,0,0,1-16.932,9.986,16.156,16.156,0,0,1-2.537-.5,15,15,0,0,1,.072-8.464,14.611,14.611,0,0,1,18.311-9.587A14.426,14.426,0,0,1,242.361,245.042Z" fill="#fff"/>
        </g>
      </g>
    </g>
    <g id="RIGHT_THIGH">
      <g id="Group_56249" data-name="Group 56249">
        <path id="Path_116975" data-name="Path 116975" d="M301.047,281.251,295.5,309.472a17.438,17.438,0,0,1-17.11,14.073H217.71a18.863,18.863,0,0,1-18.745-20.967h0a18.863,18.863,0,0,1,16.713-16.649l45.447-2.2V265.472h39.921Z" fill="#707070"/>
        <g id="Group_56248" data-name="Group 56248">
          <path id="Path_116976" data-name="Path 116976" d="M288.453,273.449l-4.77,26.029a9.362,9.362,0,0,1-9.208,7.674h-42.1" fill="none" stroke="#262424" stroke-linecap="round" stroke-linejoin="round" stroke-width="2"/>
          <path id="Path_116977" data-name="Path 116977" d="M280.424,273.449l-2.76,15.915a6.491,6.491,0,0,0,2.889,6.571l3.382,2.171" fill="#fff" stroke="#262424" stroke-linecap="round" stroke-linejoin="round" stroke-width="1.568"/>
        </g>
      </g>
    </g>
    <g id="RIGHT_CALF">
      <g id="Group_56257" data-name="Group 56257">
        <g id="Group_56255" data-name="Group 56255">
          <g id="Group_56251" data-name="Group 56251">
            <g id="Group_56250" data-name="Group 56250">
              <path id="Path_116978" data-name="Path 116978" d="M237.739,389.791l16,33.161,12.614-6.867-13.1-34.984Z" fill="#fff" stroke="#262424" stroke-linecap="round" stroke-linejoin="round" stroke-width="2"/>
            </g>
          </g>
          <g id="Group_56254" data-name="Group 56254">
            <path id="Path_116979" data-name="Path 116979" d="M261.032,493.641l5.268,3.622,44.768-65.111s-2.6-2.1-7.088-5.483a436.073,436.073,0,0,0-41.521-28.052L244.84,417.108s6.3,30.6,9.829,56.4c.367,2.678.633,5.418.762,8.2C255.681,487.034,257.608,491.287,261.032,493.641Z" fill="#707070"/>
            <path id="Path_116980" data-name="Path 116980" d="M261.032,493.641l5.268,3.622,44.768-65.111s-2.6-2.1-7.088-5.483a436.073,436.073,0,0,0-41.521-28.052L244.84,417.108s6.3,30.6,9.829,56.4c.367,2.678.633,5.418.762,8.2C255.681,487.034,257.608,491.287,261.032,493.641Z" fill="none" stroke="#262424" stroke-linecap="round" stroke-linejoin="round" stroke-width="2"/>
            <line id="Line_11" data-name="Line 11" x2="8.944" y2="42.22" transform="translate(257.312 411.965)" fill="none" stroke="#262424" stroke-linecap="round" stroke-linejoin="round" stroke-width="2"/>
            <g id="Group_56252" data-name="Group 56252">
              <ellipse id="Ellipse_9953" data-name="Ellipse 9953" cx="7.016" cy="7.81" rx="7.016" ry="7.81" transform="translate(269.453 427.235) rotate(-55.489)" fill="#fff"/>
            </g>
            <g id="Group_56253" data-name="Group 56253">
              <path id="Path_116981" data-name="Path 116981" d="M261.032,493.641l5.268,3.622,44.768-65.111s-2.6-2.1-7.088-5.483l-23.633,34.373s-16.823-8.33-25.677,12.463c.367,2.678.633,5.418.762,8.2C255.681,487.034,257.608,491.287,261.032,493.641Z" fill="#fff" stroke="#262424" stroke-linecap="round" stroke-linejoin="round" stroke-width="2"/>
            </g>
          </g>
        </g>
        <g id="Group_56256" data-name="Group 56256">
          <path id="Path_116982" data-name="Path 116982" d="M235.459,301.548,258.952,387,235,397.278,194.079,323.3l-1.377-2.485-.759-1.378a24.125,24.125,0,0,1-.812-22.135,23.059,23.059,0,0,1,5.939-7.669c.5-.428,1.031-.84,1.595-1.24a24.184,24.184,0,0,1,2.914-1.785,23.066,23.066,0,0,1,16.195-2.356A24.108,24.108,0,0,1,235.459,301.548Z" fill="#707070"/>
          <path id="Path_116983" data-name="Path 116983" d="M236.647,307.152H223.071l23.8,70.454" fill="none" stroke="#262424" stroke-linecap="round" stroke-linejoin="round" stroke-width="2"/>
          <line id="Line_12" data-name="Line 12" y1="8.201" x2="20.584" transform="translate(234.422 382.092)" fill="none" stroke="#262424" stroke-linecap="round" stroke-linejoin="round" stroke-width="2"/>
          <path id="Path_116984" data-name="Path 116984" d="M212.339,295.024a17.737,17.737,0,0,1-18.26,28.272l-1.377-2.485-.759-1.378a24.125,24.125,0,0,1-.812-22.135,23.059,23.059,0,0,1,5.939-7.669c.5-.428,1.031-.84,1.595-1.24A17.692,17.692,0,0,1,212.339,295.024Z" fill="#fff" stroke="#262424" stroke-linecap="round" stroke-linejoin="round" stroke-width="2"/>
        </g>
      </g>
    </g>
    <g id="LEFT_THIGH">
      <g id="Group_56259" data-name="Group 56259">
        <path id="Path_116985" data-name="Path 116985" d="M343.818,281.251l-5.549,28.221a17.438,17.438,0,0,1-17.11,14.073H285.585a18.863,18.863,0,0,1-18.745-20.967h0a18.863,18.863,0,0,1,16.713-16.649l20.343-2.2V265.472h39.921v15.779Z" fill="#707070"/>
        <g id="Group_56258" data-name="Group 56258">
          <path id="Path_116986" data-name="Path 116986" d="M331.224,273.449l-4.77,26.029a9.362,9.362,0,0,1-9.208,7.674H299" fill="none" stroke="#262424" stroke-linecap="round" stroke-linejoin="round" stroke-width="2"/>
          <path id="Path_116987" data-name="Path 116987" d="M323.2,273.449l-2.76,15.915a6.491,6.491,0,0,0,2.889,6.571l3.382,2.171" fill="none" stroke="#262424" stroke-linecap="round" stroke-linejoin="round" stroke-width="2"/>
        </g>
      </g>
    </g>
    <g id="LEFT_CALF">
      <g id="Group_56267" data-name="Group 56267">
        <g id="Group_56265" data-name="Group 56265">
          <g id="Group_56261" data-name="Group 56261">
            <g id="Group_56260" data-name="Group 56260">
              <path id="Path_116988" data-name="Path 116988" d="M254.314,389.487l-8.254,35.882L260.2,427.9l11.661-35.488Z" fill="#fff" stroke="#262424" stroke-linecap="round" stroke-linejoin="round" stroke-width="2"/>
            </g>
          </g>
          <g id="Group_56264" data-name="Group 56264">
            <path id="Path_116989" data-name="Path 116989" d="M207.54,485.088l1.845,6.121L285.039,468.4s-.718-3.268-2.1-8.711a436.08,436.08,0,0,0-14.854-47.857l-25.313,3.41s-14.222,27.81-27.6,50.154c-1.388,2.319-2.895,4.623-4.531,6.871C207.5,476.586,206.341,481.11,207.54,485.088Z" fill="#707070"/>
            <path id="Path_116990" data-name="Path 116990" d="M207.54,485.088l1.845,6.121L285.039,468.4s-.718-3.268-2.1-8.711a436.08,436.08,0,0,0-14.854-47.857l-25.313,3.41s-14.222,27.81-27.6,50.154c-1.388,2.319-2.895,4.623-4.531,6.871C207.5,476.586,206.341,481.11,207.54,485.088Z" fill="none" stroke="#262424" stroke-linecap="round" stroke-linejoin="round" stroke-width="2"/>
            <line id="Line_13" data-name="Line 13" x1="19.426" y2="38.538" transform="translate(236.293 419.03)" fill="none" stroke="#262424" stroke-linecap="round" stroke-linejoin="round" stroke-width="2"/>
            <g id="Group_56262" data-name="Group 56262">
              <ellipse id="Ellipse_9954" data-name="Ellipse 9954" cx="7.016" cy="7.81" rx="7.016" ry="7.81" transform="translate(255.641 438.536) rotate(-16.777)" fill="#fff"/>
            </g>
            <g id="Group_56263" data-name="Group 56263">
              <path id="Path_116991" data-name="Path 116991" d="M207.54,485.088l1.845,6.121L285.039,468.4s-.718-3.268-2.1-8.711L243,471.731s-7.918-17.021-27.83-6.333c-1.388,2.319-2.895,4.623-4.531,6.871C207.5,476.586,206.341,481.11,207.54,485.088Z" fill="#fff" stroke="#262424" stroke-linecap="round" stroke-linejoin="round" stroke-width="2"/>
            </g>
          </g>
        </g>
        <g id="Group_56266" data-name="Group 56266">
          <path id="Path_116992" data-name="Path 116992" d="M307.723,319.2l-35.11,81.37-25.12-6.96,14.34-83.32.48-2.8.27-1.55a24.125,24.125,0,0,1,13.21-17.78,23.059,23.059,0,0,1,9.43-2.27c.66-.02,1.33-.01,2.02.03a24.185,24.185,0,0,1,3.39.43,23.066,23.066,0,0,1,14.11,8.29A24.106,24.106,0,0,1,307.723,319.2Z" fill="#707070"/>
          <line id="Line_14" data-name="Line 14" y1="23.214" x2="3.996" transform="translate(248.051 367.153)" fill="none" stroke="#262424" stroke-linecap="round" stroke-linejoin="round" stroke-width="2"/>
          <path id="Path_116993" data-name="Path 116993" d="M309.675,307.152H297.719l-28.9,79.193" fill="none" stroke="#262424" stroke-linecap="round" stroke-linejoin="round" stroke-width="2"/>
          <line id="Line_15" data-name="Line 15" x2="20.317" y2="5.524" transform="translate(252.867 387.531)" fill="none" stroke="#262424" stroke-linecap="round" stroke-linejoin="round" stroke-width="2"/>
          <path id="Path_116994" data-name="Path 116994" d="M293.763,299.655a17.737,17.737,0,0,1-31.93,10.64l.48-2.8.27-1.55a24.125,24.125,0,0,1,13.21-17.78,23.059,23.059,0,0,1,9.43-2.27c.66-.02,1.33-.01,2.02.03A17.692,17.692,0,0,1,293.763,299.655Z" fill="#fff" stroke="#262424" stroke-linecap="round" stroke-linejoin="round" stroke-width="2"/>
          <line id="Line_16" data-name="Line 16" x1="2.158" y2="12.536" transform="translate(259.675 310.295)" fill="#fff" stroke="#262424" stroke-linecap="round" stroke-linejoin="round" stroke-width="1.568"/>
        </g>
      </g>
    </g>
    <g id="BODY">
      <g id="Group_56269" data-name="Group 56269">
        <path id="Path_116995" data-name="Path 116995" d="M337.39,137.507s-31.058-16.122-52.368-13.433-41.059,14.467-41.059,14.467c-13.433,38.1-12.986,148.524-12.986,148.524s23.84,6.364,88.278,3.031l.967-16.435a2.359,2.359,0,0,1,2.394-2.22h0a2.359,2.359,0,0,1,2.319,2.415l-.391,16.332c9.74,0,21.785-1.125,21.785-1.125C348.5,220.091,337.39,137.507,337.39,137.507Z"/>
        <path id="Path_116996" data-name="Path 116996" d="M242.357,143.658c-11.791,41.977-11.38,143.406-11.38,143.406" fill="none" stroke="#262424" stroke-linecap="round" stroke-linejoin="round" stroke-width="2"/>
        <g id="Group_56268" data-name="Group 56268">
          <path id="Path_116997" data-name="Path 116997" d="M308.647,131.967a24.788,24.788,0,0,1-14.536,15.164,92.146,92.146,0,0,0-5.453-14.073,37.474,37.474,0,0,0-4.821,14.777,17.746,17.746,0,0,1-13.91-13.275c.569-11.206,9.483-20.284,17.7-20.624C305.776,113.184,308.647,131.967,308.647,131.967Z" fill="#fff" stroke="#262424" stroke-linecap="round" stroke-linejoin="round" stroke-width="2"/>
        </g>
      </g>
    </g>
    <g id="LEFT_UPPER_ARM">
      <g id="Group_56270" data-name="Group 56270">
        <path id="Path_116998" data-name="Path 116998" d="M367.393,241.075q0,1.86-.09,3.45c-.07,1.32-.17,2.61-.29,3.85a16.414,16.414,0,0,1-15.84,14.72,17.471,17.471,0,0,1-18.03-15.97l-.82-9.5s-2.51-74.71-2.19-83.84,7.26-16.28,7.26-16.28c12.91,6.36,18.49,20.56,22.98,45.8C362.013,192.525,367.413,224.045,367.393,241.075Z"/>
        <path id="Path_116999" data-name="Path 116999" d="M332.273,236.265c-.33-10.16-2.43-74.08-2.14-82.48.2-6,3.286-11.159,5.368-13.98" fill="none" stroke="#262424" stroke-linecap="round" stroke-linejoin="round" stroke-width="2"/>
        <path id="Path_117000" data-name="Path 117000" d="M367.393,241.075q0,1.86-.09,3.45c-.07,1.32-.17,2.61-.29,3.85a16.387,16.387,0,0,1-13.185,14.58,16.155,16.155,0,0,1-2.57.28,15,15,0,0,1-2.455-8.1,14.611,14.611,0,0,1,14.62-14.61A14.421,14.421,0,0,1,367.393,241.075Z" fill="#fff"/>
      </g>
    </g>
    <g id="LEFT_ARM">
      <g id="Group_56274" data-name="Group 56274">
        <g id="Group_56271" data-name="Group 56271">
          <path id="Path_117001" data-name="Path 117001" d="M366.577,250.886a22.3,22.3,0,0,1-16.184,14.559l-.109.026c-.243.06-.5.118-.739.179C333.179,269.663,286.76,276.9,286.76,276.9c-11.952-7.185-7.179-21.059-7.179-21.059l61.987-28.536c13.1-6.323,25.62,2.539,26.16,15.507A22.682,22.682,0,0,1,366.577,250.886Z"/>
          <path id="Path_117002" data-name="Path 117002" d="M338.434,268.03C318.18,272,286.76,276.9,286.76,276.9c-11.952-7.185-7.179-21.059-7.179-21.059l61.987-28.536" fill="none" stroke="#262424" stroke-linecap="round" stroke-linejoin="round" stroke-width="2"/>
          <path id="Path_117003" data-name="Path 117003" d="M350.393,265.446l-.109.026A14.611,14.611,0,0,1,365.1,241.849a14.269,14.269,0,0,1,2.631.967,22.693,22.693,0,0,1-1.151,8.071A22.3,22.3,0,0,1,350.393,265.446Z" fill="#fff"/>
          <path id="Path_117004" data-name="Path 117004" d="M367.728,242.816a22.693,22.693,0,0,1-1.151,8.071,22.3,22.3,0,0,1-16.184,14.559l-.109.026" fill="none" stroke="#262424" stroke-linecap="round" stroke-linejoin="round" stroke-width="2"/>
        </g>
        <g id="Group_56272" data-name="Group 56272">
          <path id="Path_117005" data-name="Path 117005" d="M282.546,257.947s7.884,6.858,5.791,15.969l-11.874,8.444-5.479,8.386a2.524,2.524,0,0,1-2.661,1.083l-11.034-2.454a2.524,2.524,0,0,1-1.816-3.347l4.359-11.667-6.869,9.943a2.524,2.524,0,0,1-3.9.307h0a2.524,2.524,0,0,1-.54-2.617l5.712-15.44a5.8,5.8,0,0,1,4.276-3.671Z" fill="#fff" stroke="#262424" stroke-linecap="round" stroke-linejoin="round" stroke-width="2"/>
        </g>
        <g id="Group_56273" data-name="Group 56273">
          <circle id="Ellipse_9955" data-name="Ellipse 9955" cx="2.228" cy="2.228" r="2.228" transform="translate(291.504 268.651)" fill="#fff"/>
        </g>
      </g>
    </g>
    <g id="NECK">
      <g id="Group_56276" data-name="Group 56276">
        <g id="Group_56275" data-name="Group 56275">
          <path id="Path_117006" data-name="Path 117006" d="M296.535,90.761l.545,11.154.935,19.079c-6.068,4.961-12.261,5.9-18.61,1.845l.212-8.912.321-13.5Z" fill="#fff" stroke="#262424" stroke-linecap="round" stroke-linejoin="round" stroke-width="2"/>
        </g>
        <path id="Path_117007" data-name="Path 117007" d="M290.8,94.1c.292,5.035,2.047,22.125-11.31,24.993l.444-18.664Z" fill="#262424"/>
      </g>
    </g>
    <g id="HEAD">
      <g id="Group_56282" data-name="Group 56282">
        <g id="Group_56281" data-name="Group 56281">
          <g id="Group_56277" data-name="Group 56277">
            <path id="Path_117008" data-name="Path 117008" d="M262.875,94.677c1.907,9.031,5.736,19.664,16.507,16.781,12.8-3.429,20.229-13.545,19.01-25.95s-7.687-18.777-22.374-15.754a22.9,22.9,0,0,0-3.666,1.071c-8.29,3.224-11.821,10.765-10.392,19.01C262.219,91.326,262.511,92.975,262.875,94.677Z" fill="#fff"/>
          </g>
          <g id="Group_56278" data-name="Group 56278">
            <path id="Path_117009" data-name="Path 117009" d="M298.393,85.509c-1.219-12.405-7.687-18.777-22.374-15.754a22.9,22.9,0,0,0-3.666,1.071c-8.29,3.224-11.821,10.765-10.392,19.01.258,1.49.55,3.138.914,4.841,1.907,9.031,5.736,19.664,16.507,16.781a28.093,28.093,0,0,0,11.214-5.77" fill="none" stroke="#262424" stroke-linecap="round" stroke-linejoin="round" stroke-width="2"/>
          </g>
          <path id="Path_117010" data-name="Path 117010" d="M302.519,87.419a38.289,38.289,0,0,1-3.663,5.547l-6.524,1.117-1.9-4.5s-4.188.265-5.354-2.455A1.639,1.639,0,0,1,285,86.94a36.4,36.4,0,0,1-1.685-11.368s-9.541,5.506-14.934,6.67a12.468,12.468,0,0,1-6.557-.91c-4.5-1.649-8.978-8.2-8.742-12.984q0-.046,0-.092c.428-7.019,4.535-2.632,4.535-2.632s.428-5.661,3.86-6.435,6.2,4.114,6.2,4.114a55.066,55.066,0,0,1,20.269-3.049c13.66.6,11.316,10.218,11.316,10.218S309.5,72.578,302.519,87.419Z" fill="#262424"/>
          <g id="Group_56279" data-name="Group 56279">
            <path id="Path_117011" data-name="Path 117011" d="M293.683,93.222a9.6,9.6,0,0,1,7.106-11.472,8.725,8.725,0,0,1,3.3-.121c6.6,1.038,6.529,16.152-9.285,16.708Z" fill="#fff"/>
          </g>
          <g id="Group_56280" data-name="Group 56280">
            <path id="Path_117012" data-name="Path 117012" d="M293.683,93.222a9.6,9.6,0,0,1,7.106-11.472,8.725,8.725,0,0,1,3.3-.121c6.6,1.038,6.529,16.152-9.285,16.708" fill="none" stroke="#262424" stroke-linecap="round" stroke-linejoin="round" stroke-width="2"/>
          </g>
        </g>
      </g>
    </g>
    <g id="LAPTOP">
      <g id="Group_56283" data-name="Group 56283">
        <path id="Path_117013" data-name="Path 117013" d="M312.961,282.914H285.033a4.792,4.792,0,0,0-4.792,4.792h0a4.792,4.792,0,0,0,4.792,4.792h27.928a4.792,4.792,0,0,0,4.792-4.792h0A4.792,4.792,0,0,0,312.961,282.914Z" fill="#fff" stroke="#262424" stroke-linecap="round" stroke-linejoin="round" stroke-width="2"/>
        <path id="Path_117014" data-name="Path 117014" d="M280.241,292.5h-91.96a6.083,6.083,0,0,1-5.791-5l-10.664-67.348a4.161,4.161,0,0,1,4.208-5h91.96a6.083,6.083,0,0,1,5.791,5L284.449,287.5A4.161,4.161,0,0,1,280.241,292.5Z" fill="#fff" stroke="#262424" stroke-linecap="round" stroke-linejoin="round" stroke-width="2"/>
      </g>
    </g>
  </g>
</svg>
