<svg id="shop_twotone" data-name="shop/twotone" xmlns="http://www.w3.org/2000/svg" width="48" height="48" viewBox="0 0 48 48">
  <g id="vuesax_twotone_shop" data-name="vuesax/twotone/shop">
    <g id="shop">
      <path id="Vector" d="M6.032,20a5.93,5.93,0,0,0,6-6.64L10.712,0H1.372L.032,13.36A5.93,5.93,0,0,0,6.032,20Z" transform="translate(17.968 4)" fill="none" stroke="#292d32" stroke-linecap="round" stroke-linejoin="round" stroke-width="2.5"/>
      <path id="Vector-2" data-name="Vector" d="M8.02,20a6.513,6.513,0,0,0,6.6-7.3l-.56-5.5C13.34,2,11.34,0,6.1,0H0L1.4,14.02A6.815,6.815,0,0,0,8.02,20Z" transform="translate(28.6 4)" fill="none" stroke="#292d32" stroke-linecap="round" stroke-linejoin="round" stroke-width="2.5"/>
      <path id="Vector-3" data-name="Vector" d="M6.636,20a6.78,6.78,0,0,0,6.6-5.98l.44-4.42.96-9.6h-6.1C3.3,0,1.3,2,.576,7.2l-.54,5.5A6.513,6.513,0,0,0,6.636,20Z" transform="translate(4.644 4)" fill="none" stroke="#292d32" stroke-linecap="round" stroke-linejoin="round" stroke-width="2.5"/>
      <g id="Group_680" data-name="Group 680" transform="translate(6.02 22.439)" opacity="0.4">
        <path id="Vector-4" data-name="Vector" d="M0,0V8.98c0,8.98,3.6,12.58,12.58,12.58H23.36c8.98,0,12.58-3.6,12.58-12.58V0" fill="none" stroke="#292d32" stroke-linecap="round" stroke-linejoin="round" stroke-width="2.5"/>
        <path id="Vector-5" data-name="Vector" d="M5,0C1.66,0,0,1.66,0,5v5H10V5C10,1.66,8.34,0,5,0Z" transform="translate(12.98 11.561)" fill="none" stroke="#292d32" stroke-linecap="round" stroke-linejoin="round" stroke-width="2.5"/>
      </g>
      <path id="Vector-6" data-name="Vector" d="M0,0H48V48H0Z" fill="none" opacity="0"/>
    </g>
  </g>
</svg>
