<svg xmlns="http://www.w3.org/2000/svg" xmlns:xlink="http://www.w3.org/1999/xlink" width="630.095" height="630.095" viewBox="0 0 630.095 630.095">
  <defs>
    <clipPath id="clip-path">
      <rect id="Rectangle_13849" data-name="Rectangle 13849" width="630.095" height="630.095" fill="#fff"/>
    </clipPath>
    <clipPath id="clip-path-2">
      <path id="Path_107302" data-name="Path 107302" d="M497.945,403.839l.2.2-.2-.2m.2.2h0M622.2,622.507c.632-.6,1.262-1.209,1.872-1.82l.007-.007a90.962,90.962,0,0,0,0-128.49L515.706,383.817l-.108-.108c-18.446-18.446-38.818-31.718-60.549-39.448a143.458,143.458,0,0,0-67.534-6.756c-23.729,3.14-48.238,11.764-72.846,25.635-25.228,14.22-50.523,33.933-75.182,58.593L175.124,486.1a61.035,61.035,0,0,1-88.347-2.217c-21.831-24.1-20.425-61.478,3.2-85.1L129.647,359.1c48.962-48.962,124.071-61.778,154.091-65.016,32.586-3.515,66.282-7.149,101.08-18.821,39.4-13.215,73.888-34.972,105.43-66.514l19.012-19.012a87.8,87.8,0,0,0-1.908-125.87,85.989,85.989,0,0,0-62.024-23.295,90.51,90.51,0,0,0-61.522,26.587L237.622,213.347a13.358,13.358,0,1,0,18.891,18.891L404.135,84.616a61.035,61.035,0,0,1,88.347,2.217c21.831,24.1,20.426,61.478-3.2,85.1l-17.926,17.926c-64.022,64.022-128.311,70.956-190.482,77.661A351.132,351.132,0,0,0,192.852,288.7c-33.208,12.913-60.829,30.244-82.1,51.511L70,380.971a87.8,87.8,0,0,0,1.908,125.87,85.99,85.99,0,0,0,62.025,23.295,90.513,90.513,0,0,0,61.522-26.587l62.924-62.924c24.182-24.182,61.914-56.014,104.34-70.33,50.448-17.023,95.529-6.154,133.989,32.307l1.238,1.238-1.067-1.067L605.187,511.082a64.451,64.451,0,0,1,3.491,86.928c-1.115,1.309-2.293,2.584-3.5,3.791-25,25-66.243,24.444-91.932-1.244L343.579,430.888a13.412,13.412,0,0,0-18.166-.672c-.257.221-.508.454-.745.692a13.359,13.359,0,0,0,.02,18.871L494,619.092A93.987,93.987,0,0,0,557.861,646.7q1.423.043,2.839.043a88.87,88.87,0,0,0,61.5-24.236" transform="translate(-44.358 -40.536)" fill="#fff"/>
    </clipPath>
  </defs>
  <g id="Group_55561" data-name="Group 55561" clip-path="url(#clip-path)">
    <g id="Group_55560" data-name="Group 55560" transform="translate(11.904 11.944)">
      <g id="Group_55559" data-name="Group 55559" clip-path="url(#clip-path-2)">
        <rect id="Rectangle_13848" data-name="Rectangle 13848" width="864.203" height="864.203" transform="translate(918.574 302.776) rotate(135)" fill="#fff"/>
      </g>
    </g>
  </g>
</svg>
