<svg xmlns="http://www.w3.org/2000/svg" width="204.148" height="204.029" viewBox="0 0 204.148 204.029">
  <g id="b" transform="translate(2 2.021)">
    <g id="c" transform="translate(0 -0.004)">
      <g id="Group_56127" data-name="Group 56127" transform="translate(0 0)">
        <path id="Path_111711" data-name="Path 111711" d="M0,104.293C.006,58.3,26.082,20.771,65.589,6.31,90.6-2.848,115.492-1.979,140.008,8.5c3.638,1.554,5.459,4.423,4.919,7.532-.8,4.562-5.236,6.869-9.676,4.93A82.408,82.408,0,0,0,113.8,14.582c-29.313-4.139-54.643,4.122-75.617,25A81.642,81.642,0,0,0,14.378,87.1c-4.033,28.962,4.345,54.08,25.007,74.825a83.362,83.362,0,0,0,47.7,23.943,86.458,86.458,0,0,0,87.6-41.73,85.307,85.307,0,0,0,11.949-48.153,84.229,84.229,0,0,0-7.186-30.594,7.629,7.629,0,0,1-.886-4.819,6.746,6.746,0,0,1,5.6-5.431,6.6,6.6,0,0,1,7.1,3.972,88.36,88.36,0,0,1,6.69,20.495c6.473,34.711-2.251,65.121-26.7,90.591-16.055,16.723-35.931,26.739-59.044,29.124-39.83,4.106-71.594-10.612-94.824-43.061C5.47,139.633.128,120.609,0,104.293Z" transform="translate(0 0.004)" stroke="#f8f8f8" stroke-width="4"/>
        <path id="Path_111712" data-name="Path 111712" d="M193.29,126.7a66.907,66.907,0,0,1-55.579,65.807c-36.728,6.206-71.789-19.28-77.059-56.008a66.637,66.637,0,0,1,52.37-75.065,64.871,64.871,0,0,1,37.435,3.047c4.245,1.627,6.139,5.275,4.674,8.991-1.437,3.638-5.2,5.036-9.387,3.482C119.684,67.274,91.569,78.115,79,102.682c-16.278,31.82,3.426,70.792,38.744,76.614,29.72,4.9,57.662-15.565,61.707-45.217A53.154,53.154,0,0,0,176.26,107.3c-1.755-4.54.546-8.752,5.036-9.5a6.709,6.709,0,0,1,7.348,4.507,66.909,66.909,0,0,1,4.646,24.383Z" transform="translate(-26.554 -26.561)" fill="#b2b3b5" stroke="#f8f8f8" stroke-width="4"/>
        <path id="Path_111713" data-name="Path 111713" d="M239.522,53.631c-3.053,0-6.44-.819-9.069.234-2.551,1.025-4.334,3.966-6.445,6.078q-22.185,22.177-44.348,44.365c-2.072,2.078-4.362,3.175-7.3,2.278a6.607,6.607,0,0,1-3.2-10.59,20.393,20.393,0,0,1,1.448-1.5Q195.14,69.956,219.69,45.442A3.841,3.841,0,0,0,221,42.389c-.084-5,0-10-.05-15a7.4,7.4,0,0,1,2.323-5.582q9.676-9.626,19.308-19.3c2.173-2.178,4.713-2.98,7.587-1.771a6.541,6.541,0,0,1,4.145,6.607c-.017,3.543.089,7.091-.045,10.629-.061,1.716.223,2.412,2.184,2.3,3.532-.2,7.08-.033,10.623-.061,3.086-.028,5.426,1.214,6.668,4.061,1.248,2.863.507,5.431-1.666,7.61q-9.718,9.735-19.447,19.458a7.163,7.163,0,0,1-5.409,2.239c-2.568-.039-5.142-.011-7.71-.011v.078Zm1.343-30.422a18.268,18.268,0,0,0-6.557,14.138,14.181,14.181,0,0,1-.011,1.46c-.1,1,.117,1.482,1.315,1.443,2.774-.1,5.554-.039,8.334-.022a1.914,1.914,0,0,0,1.5-.524c1.95-1.933,3.927-3.833,6.067-5.9-9.944-1.37-10.033-1.46-10.646-10.584Z" transform="translate(-74.239 -0.072)" stroke="#f8f8f8" stroke-width="4"/>
        <path id="Path_111714" data-name="Path 111714" d="M153.3,187.658c-16.395,0-30.65-12.072-33.107-27.736a33.339,33.339,0,0,1,22.478-37.279,6.758,6.758,0,0,1,8.724,3.883c1.32,3.576-.468,7.208-4.273,8.662-8.924,3.42-14.066,10.417-14.038,19.119a20.143,20.143,0,0,0,15.871,19.581,19.92,19.92,0,0,0,22.572-11.871c.3-.7.524-1.432.813-2.134a6.652,6.652,0,0,1,8.523-3.916,6.511,6.511,0,0,1,4.017,8.272c-3.983,11.921-12.116,19.453-24.294,22.556a27.677,27.677,0,0,1-7.275.869Z" transform="translate(-53.049 -54.143)" fill="#b2b3b5" stroke="#f8f8f8" stroke-width="4"/>
      </g>
    </g>
  </g>
</svg>
