<svg id="video-vertical" xmlns="http://www.w3.org/2000/svg" width="48" height="48" viewBox="0 0 48 48">
  <path id="Vector" d="M14,40H26c10,0,14-4,14-14V14C40,4,36,0,26,0H14C4,0,0,4,0,14V26C0,36,4,40,14,40Z" transform="translate(4 4)" fill="none" stroke="#292d32" stroke-linecap="round" stroke-linejoin="round" stroke-width="2.5"/>
  <g id="Group_596" data-name="Group 596" transform="translate(4.059 5.039)" opacity="0.4">
    <path id="Vector-2" data-name="Vector" d="M0,0V37.92" transform="translate(9.723)" fill="none" stroke="#292d32" stroke-linecap="round" stroke-linejoin="round" stroke-width="2.5"/>
    <path id="Vector-3" data-name="Vector" d="M0,0V37.92" transform="translate(29.723)" fill="none" stroke="#292d32" stroke-linecap="round" stroke-linejoin="round" stroke-width="2.5"/>
    <path id="Vector-4" data-name="Vector" d="M8.7,0H0" transform="translate(1.02 8.9)" fill="none" stroke="#292d32" stroke-linecap="round" stroke-linejoin="round" stroke-width="2.5"/>
    <path id="Vector-5" data-name="Vector" d="M9.72,0H0" transform="translate(0 18.961)" fill="none" stroke="#292d32" stroke-linecap="round" stroke-linejoin="round" stroke-width="2.5"/>
    <path id="Vector-6" data-name="Vector" d="M8.82,0H0" transform="translate(0.902 28.9)" fill="none" stroke="#292d32" stroke-linecap="round" stroke-linejoin="round" stroke-width="2.5"/>
    <path id="Vector-7" data-name="Vector" d="M8.7,0H0" transform="translate(31.02 8.9)" fill="none" stroke="#292d32" stroke-linecap="round" stroke-linejoin="round" stroke-width="2.5"/>
    <path id="Vector-8" data-name="Vector" d="M9.72,0H0" transform="translate(30 18.961)" fill="none" stroke="#292d32" stroke-linecap="round" stroke-linejoin="round" stroke-width="2.5"/>
    <path id="Vector-9" data-name="Vector" d="M22,0H0" transform="translate(7.883 18.961)" fill="none" stroke="#292d32" stroke-linecap="round" stroke-linejoin="round" stroke-width="2.5"/>
    <path id="Vector-10" data-name="Vector" d="M8.82,0H0" transform="translate(30.902 28.9)" fill="none" stroke="#292d32" stroke-linecap="round" stroke-linejoin="round" stroke-width="2.5"/>
  </g>
  <path id="Vector-11" data-name="Vector" d="M0,0H48V48H0Z" fill="none" opacity="0"/>
</svg>
